<svg xmlns="http://www.w3.org/2000/svg" width="66.173" height="74.658" viewBox="0 0 66.173 74.658">
  <g id="Group_372" data-name="Group 372" transform="translate(-34.813 -184.448)">
    <g id="Group_64" data-name="Group 64" transform="translate(34.813 241.648)">
      <path id="Path_66" data-name="Path 66" d="M43.559,373.906H35.516v2.316h8.043c1.386,0,1.386.81,1.386,1.2V378.5H38.576a3.5,3.5,0,0,0-3.763,3.619,3.4,3.4,0,0,0,3.287,3.7h6.244c.721,0,2.916,0,2.916-2.274v-6.12A3.384,3.384,0,0,0,43.559,373.906Zm1.386,9.557a3.887,3.887,0,0,1-.6.037H38.1c-.717,0-.972-.716-.972-1.385,0-.559.15-1.3,1.447-1.3h6.369Z" transform="translate(-34.813 -368.427)" fill="#2d2d2d"/>
      <path id="Path_67" data-name="Path 67" d="M82.438,377.525v8.312h2.316v-8.312c0-1.365.652-1.365.93-1.365h4.8v-2.316h-4.8C83.712,373.844,82.438,375.289,82.438,377.525Z" transform="translate(-66.682 -368.385)" fill="#2d2d2d"/>
      <path id="Path_68" data-name="Path 68" d="M213.058,373.844c-1.972,0-3.246,1.445-3.246,3.681v8.312h2.316v-8.312c0-1.365.652-1.365.931-1.365h4.8v-2.316Z" transform="translate(-151.917 -368.385)" fill="#2d2d2d"/>
      <path id="Path_69" data-name="Path 69" d="M124.106,362.834c-1.537,0-4.263-.011-6-.011a4.8,4.8,0,0,0-4.673,4.942V370a4.882,4.882,0,0,0,4.239,4.735h5.045c2.11,0,3.7-1.938,3.7-4.508V357.344h-2.316Zm0,7.392c0,1.078-.518,2.192-1.385,2.192h-5.045A2.71,2.71,0,0,1,115.753,370v-2.233c0-.555.4-2.626,2.357-2.626,1.734,0,4.462.007,6,.011Z" transform="translate(-87.426 -357.344)" fill="#2d2d2d"/>
      <path id="Path_70" data-name="Path 70" d="M170.333,373.948h-4.008a4.451,4.451,0,0,0-4.356,4.08v3.887a4.314,4.314,0,0,0,4.384,4h3.953a4.314,4.314,0,0,0,4.384-4v-3.887A4.451,4.451,0,0,0,170.333,373.948Zm2.04,7.967a2.066,2.066,0,0,1-2.068,1.682h-3.953a2.066,2.066,0,0,1-2.068-1.682v-3.887a2.138,2.138,0,0,1,2.04-1.764h4.008a2.138,2.138,0,0,1,2.04,1.764Z" transform="translate(-119.902 -368.455)" fill="#2d2d2d"/>
    </g>
    <path id="Path_71" data-name="Path 71" d="M67.975,184.448,76.328,199,51.571,241.627H35.25Z" transform="translate(-0.292)" fill="#1162a1"/>
    <path id="Path_72" data-name="Path 72" d="M101.705,288.615,88.417,311.442l21.7-12.654Z" transform="translate(-35.87 -69.705)" fill="#07426d"/>
    <path id="Path_73" data-name="Path 73" d="M130.417,267.967l15.356-8.436,19.188,32.284H149.853Z" transform="translate(-63.975 -50.243)" fill="#3a86c7"/>
  </g>
</svg>
