<svg xmlns="http://www.w3.org/2000/svg" width="105.672" height="42.258" viewBox="0 0 105.672 42.258">
  <g id="Group_369" data-name="Group 369" transform="translate(-511.587 -76.638)">
    <g id="Group_107" data-name="Group 107" transform="translate(511.587 76.638)">
      <path id="Path_128" data-name="Path 128" d="M527.758,119.464l-1.487-4.219s-2.78,6.718-3.764,9.106a4.83,4.83,0,0,0,1.531,5.966,16.844,16.844,0,0,0,8.172,3.14c-2.105-.588-4.519-1.079-6.147-3.007s-1.277-3.786-.551-5.544Z" transform="translate(-516.81 -95.895)" fill="#2d2d2d"/>
      <path id="Path_129" data-name="Path 129" d="M550.387,133.457a16.844,16.844,0,0,0,8.172-3.14,4.83,4.83,0,0,0,1.531-5.966c-.984-2.387-3.764-9.106-3.764-9.106l-1.487,4.219,2.245,5.441c.726,1.759,1.077,3.616-.551,5.544S552.492,132.869,550.387,133.457Z" transform="translate(-530.94 -95.895)" fill="#2d2d2d"/>
      <path id="Path_130" data-name="Path 130" d="M534.9,104.11l-5.889,14.125-5.9-14.125-11.52,5.577,10.209-1.536,7.214,20.5,7.2-20.5s10.375,1.61,10.375,1.54S534.9,104.11,534.9,104.11Z" transform="translate(-511.587 -90.341)" fill="#2d2d2d"/>
      <path id="Path_131" data-name="Path 131" d="M541.338,84.52l3.585,8.687,1.5-4.209-5.085-12.36L536.3,88.876l1.5,4.209Z" transform="translate(-523.915 -76.638)" fill="#2d2d2d"/>
      <path id="Path_132" data-name="Path 132" d="M535.345,152.559c-2.673.141-3.634-1.267-3.634-1.267s-.961,1.408-3.634,1.267A17.051,17.051,0,0,1,517,146.734a17.9,17.9,0,0,0,10.94,6.769,21.671,21.671,0,0,0,3.135.351l0,.005h1.251v0a21.711,21.711,0,0,0,3.148-.351,17.9,17.9,0,0,0,10.94-6.768A17.052,17.052,0,0,1,535.345,152.559Z" transform="translate(-514.288 -111.601)" fill="#2d2d2d"/>
    </g>
    <text id="Vollar" transform="translate(553.259 110.71)" fill="#2d2d2d" font-size="25" font-family="HelveticaNeue-Medium, Helvetica Neue" font-weight="500"><tspan x="0" y="0">Vollar</tspan></text>
  </g>
</svg>
