<svg xmlns="http://www.w3.org/2000/svg" width="71.211" height="68.966" viewBox="0 0 71.211 68.966">
  <g id="Group_370" data-name="Group 370" transform="translate(361.701 -36.781)">
    <path id="Path_74" data-name="Path 74" d="M-277.022,52.85a16.087,16.087,0,0,0-16.069-16.069,16.091,16.091,0,0,0-15.981,14.391,16.089,16.089,0,0,0-14.586,16,16.087,16.087,0,0,0,16.069,16.069,16.091,16.091,0,0,0,15.981-14.391A16.089,16.089,0,0,0-277.022,52.85Zm-16.069-12.839A12.857,12.857,0,0,1-280.374,51.1h-25.434A12.856,12.856,0,0,1-293.091,40.011ZM-305.93,65.689V54.331h11.181V65.689Zm-3.23-11.259V65.689h-11.18A12.86,12.86,0,0,1-309.16,54.43Zm1.571,25.579a12.857,12.857,0,0,1-12.717-11.09h25.434A12.856,12.856,0,0,1-307.589,80.009ZM-291.52,65.59V54.331h11.18A12.86,12.86,0,0,1-291.52,65.59Z" transform="translate(-25.755)" fill="#26ddf9"/>
    <g id="Group_67" data-name="Group 67" transform="translate(-361.701 91.055)">
      <g id="Group_66" data-name="Group 66">
        <path id="Path_75" data-name="Path 75" d="M-350.034,217.5a5.115,5.115,0,0,1-2.249,1.478,9.422,9.422,0,0,1-3.221.526,6.382,6.382,0,0,1-3.255-.81,5.4,5.4,0,0,1-2.161-2.352,8.274,8.274,0,0,1-.781-3.624v-.972a8.8,8.8,0,0,1,.722-3.707,5.342,5.342,0,0,1,2.082-2.4,6,6,0,0,1,3.187-.83,5.971,5.971,0,0,1,3.977,1.213,5.184,5.184,0,0,1,1.7,3.531H-352.9a2.85,2.85,0,0,0-.869-1.8,2.775,2.775,0,0,0-1.851-.57,2.613,2.613,0,0,0-2.288,1.129,5.938,5.938,0,0,0-.8,3.359v.913a5.654,5.654,0,0,0,.854,3.4,2.926,2.926,0,0,0,2.5,1.149,3.267,3.267,0,0,0,2.367-.707v-2.465h-2.681V211.8h5.628Z" transform="translate(361.701 -204.813)" fill="#2d2d2d"/>
        <path id="Path_76" data-name="Path 76" d="M-306.474,213.523h-5.657v3.83h6.639v2.367h-9.585v-14.3h9.566v2.387h-6.62v3.408h5.657Z" transform="translate(330.136 -205.225)" fill="#2d2d2d"/>
        <path id="Path_77" data-name="Path 77" d="M-273.087,205.421l3.673,10.371,3.653-10.371h3.87v14.3h-2.956v-3.909l.295-6.747-3.86,10.656h-2.023l-3.85-10.646.295,6.737v3.909h-2.946v-14.3Z" transform="translate(304.316 -205.225)" fill="#2d2d2d"/>
        <path id="Path_78" data-name="Path 78" d="M-215.751,219.72H-218.7v-14.3h2.947Z" transform="translate(264.888 -205.225)" fill="#2d2d2d"/>
        <path id="Path_79" data-name="Path 79" d="M-186.382,219.72h-2.946l-5.735-9.408v9.408h-2.946v-14.3h2.946l5.745,9.428v-9.428h2.936Z" transform="translate(250.882 -205.225)" fill="#2d2d2d"/>
        <path id="Path_80" data-name="Path 80" d="M-147.406,219.72h-2.946v-14.3h2.946Z" transform="translate(218.617 -205.225)" fill="#2d2d2d"/>
      </g>
    </g>
  </g>
</svg>
