<svg xmlns="http://www.w3.org/2000/svg" width="68.644" height="70.009" viewBox="0 0 68.644 70.009">
  <g id="Group_371" data-name="Group 371" transform="translate(3955.355 -523.579)">
    <g id="Group_69" data-name="Group 69" transform="translate(-3942.795 523.579)">
      <path id="Path_81" data-name="Path 81" d="M-3889.972,555.034l.009-19.48h5.48V523.632a21.764,21.764,0,0,0-19.677,21.662,21.764,21.764,0,0,0,19.677,21.662V555.034Z" transform="translate(3904.159 -523.619)" fill="#7a31e8"/>
      <path id="Path_82" data-name="Path 82" d="M-3787.729,545.254a21.763,21.763,0,0,0-19.823-21.675v12a9.741,9.741,0,0,1,8.611,9.674,9.741,9.741,0,0,1-8.611,9.675v12A21.763,21.763,0,0,0-3787.729,545.254Z" transform="translate(3831.253 -523.579)" fill="#1cb7ec"/>
    </g>
    <g id="Group_70" data-name="Group 70" transform="translate(-3955.355 578.587)">
      <path id="Path_83" data-name="Path 83" d="M-3955.355,763.219v-14.6h4.492a6.823,6.823,0,0,1,3.445.867,6.048,6.048,0,0,1,2.371,2.467,7.609,7.609,0,0,1,.852,3.635v.672a7.632,7.632,0,0,1-.837,3.62,6,6,0,0,1-2.362,2.457,6.874,6.874,0,0,1-3.439.882Zm3.008-12.163V760.8h1.454a3.266,3.266,0,0,0,2.7-1.153,5.21,5.21,0,0,0,.953-3.3v-.772a5.293,5.293,0,0,0-.922-3.374,3.257,3.257,0,0,0-2.7-1.148Z" transform="translate(3955.355 -748.418)" fill="#2d2d2d"/>
      <path id="Path_84" data-name="Path 84" d="M-3901.353,763.219h-3.008v-14.6h3.008Z" transform="translate(3916.871 -748.418)" fill="#2d2d2d"/>
      <path id="Path_85" data-name="Path 85" d="M-3874.48,760.757a5.217,5.217,0,0,1-2.3,1.509,9.615,9.615,0,0,1-3.289.537,6.515,6.515,0,0,1-3.324-.827,5.517,5.517,0,0,1-2.206-2.4,8.453,8.453,0,0,1-.8-3.7v-.993a8.976,8.976,0,0,1,.737-3.786,5.453,5.453,0,0,1,2.126-2.447,6.123,6.123,0,0,1,3.254-.847,6.1,6.1,0,0,1,4.061,1.239,5.291,5.291,0,0,1,1.735,3.6h-2.928a2.91,2.91,0,0,0-.887-1.835,2.837,2.837,0,0,0-1.891-.582,2.668,2.668,0,0,0-2.336,1.153,6.062,6.062,0,0,0-.812,3.429v.932a5.772,5.772,0,0,0,.872,3.469,2.987,2.987,0,0,0,2.557,1.173,3.337,3.337,0,0,0,2.417-.722v-2.517h-2.738v-2.216h5.746Z" transform="translate(3903.311 -747.801)" fill="#2d2d2d"/>
      <path id="Path_86" data-name="Path 86" d="M-3828.3,763.219h-3.008v-14.6h3.008Z" transform="translate(3861.743 -748.418)" fill="#2d2d2d"/>
      <path id="Path_87" data-name="Path 87" d="M-3804.844,751.056h-4.472v12.163h-3.008V751.056h-4.412v-2.437h11.892Z" transform="translate(3850.743 -748.418)" fill="#2d2d2d"/>
      <path id="Path_88" data-name="Path 88" d="M-3756.673,756.891h-5.776V760.8h6.778v2.417h-9.787v-14.6h9.767v2.437h-6.758v3.48h5.776Z" transform="translate(3812.044 -748.418)" fill="#2d2d2d"/>
      <path id="Path_89" data-name="Path 89" d="M-3720.664,753.653l2.737-5.034h3.459l-4.251,7.24,4.362,7.36h-3.5l-2.808-5.114-2.808,5.114h-3.5l4.362-7.36-4.251-7.24h3.459Z" transform="translate(3783 -748.418)" fill="#2d2d2d"/>
    </g>
  </g>
</svg>
