<svg xmlns="http://www.w3.org/2000/svg" width="94.7" height="29.911" viewBox="0 0 94.7 29.911">
  <g id="Group_373" data-name="Group 373" transform="translate(4529.438 -869.615)">
    <path id="Path_90" data-name="Path 90" d="M-4529.18,889.707l10.474-10.4h-5.614v-4.784h16.743s-20.167,20.192-21.426,21.451.428,3.55,2.367,3.55h24.548c3,0,2.832-2.367,2.832-2.832v-17.41l-10.411,10.449h5.615v4.96H-4521.1s19.991-19.916,21.2-21.124a2.372,2.372,0,0,0-1.788-3.953h-24.926c-1.989,0-2.568,1.259-2.568,2.82Z" fill="#23b852"/>
    <g id="Group_73" data-name="Group 73" transform="translate(-4493.705 875.79)">
      <g id="Group_72" data-name="Group 72" transform="translate(0 0)">
        <path id="Path_91" data-name="Path 91" d="M-4397.565,904.118a8.266,8.266,0,0,1-4.991,1.774c-2.856,0-5.892-2.365-5.892-6.748a6.078,6.078,0,0,1,6.042-6.143,7.524,7.524,0,0,1,4.318,1.5,1.359,1.359,0,0,0,1.911-.173,1.359,1.359,0,0,0-.169-1.915,10.2,10.2,0,0,0-6.06-2.13,8.749,8.749,0,0,0-8.762,8.862c0,6.149,4.437,9.467,8.611,9.467a10.91,10.91,0,0,0,6.8-2.461,1.356,1.356,0,0,0,.11-1.912A1.362,1.362,0,0,0-4397.565,904.118Z" transform="translate(4411.167 -890.213)" fill="#2d2d2d"/>
        <path id="Path_92" data-name="Path 92" d="M-4349.118,890.282a9.225,9.225,0,0,0-9.215,9.215,9.226,9.226,0,0,0,9.215,9.215,9.226,9.226,0,0,0,9.215-9.215A9.226,9.226,0,0,0-4349.118,890.282Zm0,15.711a6.5,6.5,0,0,1-6.5-6.5,6.5,6.5,0,0,1,6.5-6.5,6.5,6.5,0,0,1,6.5,6.5A6.5,6.5,0,0,1-4349.118,905.993Z" transform="translate(4374.296 -890.213)" fill="#2d2d2d"/>
        <path id="Path_93" data-name="Path 93" d="M-4286.641,890.282a1.36,1.36,0,0,0-1.359,1.36V907.05a1.36,1.36,0,0,0,1.359,1.36,1.36,1.36,0,0,0,1.36-1.36V891.642A1.36,1.36,0,0,0-4286.641,890.282Z" transform="translate(4325.213 -890.213)" fill="#2d2d2d"/>
        <path id="Path_94" data-name="Path 94" d="M-4257.741,890.052c-2.031,0-4.417,1.631-6.207,3.554v-2.125a1.36,1.36,0,0,0-1.36-1.36,1.359,1.359,0,0,0-1.359,1.36V906.89a1.36,1.36,0,0,0,1.359,1.36,1.36,1.36,0,0,0,1.36-1.36v-8.136a1.365,1.365,0,0,0,.031-.285c.1-1.158,3.82-5.7,6.176-5.7,2.536,0,3.663,1.838,3.663,2.537v11.33a1.36,1.36,0,0,0,1.359,1.36,1.36,1.36,0,0,0,1.36-1.36v-11.33C-4251.359,892.822-4253.98,890.052-4257.741,890.052Z" transform="translate(4310.325 -890.052)" fill="#2d2d2d"/>
      </g>
    </g>
  </g>
</svg>
