<svg xmlns="http://www.w3.org/2000/svg" xmlns:xlink="http://www.w3.org/1999/xlink" width="105.908" height="30.582" viewBox="0 0 105.908 30.582">
  <defs>
    <linearGradient id="linear-gradient" x1="0.361" y1="0.196" x2="0.867" y2="0.771" gradientUnits="objectBoundingBox">
      <stop offset="0" stop-color="#18a4dc"/>
      <stop offset="1" stop-color="#15659d"/>
    </linearGradient>
  </defs>
  <g id="Group_374" data-name="Group 374" transform="translate(-512.583 -94.131)">
    <path id="Path_95" data-name="Path 95" d="M531.311,113.261c-.529-.028-2.745-.023-2.712-2.235a2.272,2.272,0,0,1,2.367-2.127c.036,0,.071,0,.108,0,.115,0,.228,0,.341-.012h0a5.382,5.382,0,1,0-5.108-2.866h0a2.313,2.313,0,0,1-.3,3.185c-1.4,1.281-3.007-.371-3.467-.994a5.383,5.383,0,1,0-.074,5.773c.969-1.393,2.191-2.151,3.613-.973a2.308,2.308,0,0,1,.333,2.873,5.382,5.382,0,1,0,4.894-2.628Z" transform="translate(0 -2.253)" fill="url(#linear-gradient)"/>
    <path id="Path_96" data-name="Path 96" d="M579.949,127.048V111.8h3.957V113.3a5.806,5.806,0,0,1,4.307-1.732,11.9,11.9,0,0,1,1.355.113l-.466,3.663s-.882-.042-1.468-.042c-1.581,0-3.635,1.312-3.635,3.105v8.645Z" transform="translate(-37.894 -9.806)" fill="#2d2d2d"/>
    <path id="Path_97" data-name="Path 97" d="M632.711,111.6a6.979,6.979,0,0,0-4.629,1.524v-1.242h-3.839l-.113,22.659h4.14v-8.544a6.268,6.268,0,0,0,4.291,1.3,7.569,7.569,0,0,0,7.34-7.848A7.425,7.425,0,0,0,632.711,111.6Zm-.8,12.026a4.142,4.142,0,1,1,4.037-4.14A4.09,4.09,0,0,1,631.911,123.623Z" transform="translate(-62.746 -9.825)" fill="#2d2d2d"/>
    <path id="Path_98" data-name="Path 98" d="M674.266,111.6a6.98,6.98,0,0,0-4.63,1.524v-1.242H665.8l-.113,22.659h4.14v-8.544a6.268,6.268,0,0,0,4.291,1.3,7.569,7.569,0,0,0,7.34-7.848A7.425,7.425,0,0,0,674.266,111.6Zm-.8,12.026a4.142,4.142,0,1,1,4.037-4.14A4.089,4.089,0,0,1,673.466,123.623Z" transform="translate(-86.122 -9.825)" fill="#2d2d2d"/>
    <path id="Path_99" data-name="Path 99" d="M736.2,119.21c0-.724-.329-7.678-7.02-7.678s-7.34,6.578-7.34,8.158.96,7.594,7.791,7.594a8.281,8.281,0,0,0,6.258-2.71c-.593-.593-2.23-2.343-2.23-2.343a6.624,6.624,0,0,1-3.811,1.76,3.845,3.845,0,0,1-4.112-3.614H736.2Zm-10.276-1.769s.772-2.616,3.256-2.616,2.983,2.616,2.983,2.616Z" transform="translate(-117.713 -9.788)" fill="#2d2d2d"/>
    <rect id="Rectangle_30" data-name="Rectangle 30" width="4.253" height="22.17" transform="translate(597.573 94.997)" fill="#2d2d2d"/>
    <rect id="Rectangle_31" data-name="Rectangle 31" width="4.159" height="15.169" transform="translate(553.685 102.017)" fill="#2d2d2d"/>
    <circle id="Ellipse_183" data-name="Ellipse 183" cx="2.569" cy="2.569" r="2.569" transform="translate(553.234 94.131)" fill="#2d2d2d"/>
  </g>
</svg>
