<svg xmlns="http://www.w3.org/2000/svg" xmlns:xlink="http://www.w3.org/1999/xlink" width="109.681" height="37.636" viewBox="0 0 109.681 37.636">
  <defs>
    <clipPath id="clip-path">
      <path id="Path_101" data-name="Path 101" d="M143.841,132.068V113.25l12.7,8.224a1.412,1.412,0,0,1,0,2.369Z" transform="translate(-143.841 -113.25)" fill="#1274db" clip-rule="evenodd"/>
    </clipPath>
    <clipPath id="clip-path-2">
      <path id="Path_103" data-name="Path 103" d="M143.841,105.742l16.3-9.409-.773,15.11a1.411,1.411,0,0,1-2.052,1.185Z" transform="translate(-143.841 -96.333)" fill="#1497de" clip-rule="evenodd"/>
    </clipPath>
    <clipPath id="clip-path-3">
      <path id="Path_105" data-name="Path 105" d="M173.142,96.333l16.3,9.409-13.472,6.886a1.412,1.412,0,0,1-2.052-1.185Z" transform="translate(-173.142 -96.333)" fill="#1683d6" clip-rule="evenodd"/>
    </clipPath>
    <clipPath id="clip-path-4">
      <path id="Path_107" data-name="Path 107" d="M191.795,113.25v18.818l-12.7-8.224a1.411,1.411,0,0,1,0-2.369Z" transform="translate(-178.452 -113.25)" fill="#1274db" clip-rule="evenodd"/>
    </clipPath>
    <clipPath id="clip-path-5">
      <path id="Path_109" data-name="Path 109" d="M189.438,141.466l-16.3,9.409.773-15.11a1.412,1.412,0,0,1,2.052-1.185Z" transform="translate(-173.142 -134.426)" fill="#1497de" clip-rule="evenodd"/>
    </clipPath>
    <clipPath id="clip-path-6">
      <path id="Path_111" data-name="Path 111" d="M160.138,150.874l-16.3-9.409,13.472-6.886a1.411,1.411,0,0,1,2.052,1.185Z" transform="translate(-143.841 -134.425)" fill="#1683d6" clip-rule="evenodd"/>
    </clipPath>
    <clipPath id="clip-path-7">
      <path id="Path_113" data-name="Path 113" d="M269.423,132h-3.085V113.4h3.61l6.632,12.191,6.58-12.191H286.8V132h-3.111l-.024-13.245-6.094,11.354h-2l-6.145-11.359Zm-8.113-13.7a7.382,7.382,0,0,0-2.373-1.6,7.162,7.162,0,0,0-6.239.3,6.633,6.633,0,0,0-2.49,2.368,6.342,6.342,0,0,0,0,6.548A6.6,6.6,0,0,0,252.7,128.3a7.009,7.009,0,0,0,3.463.876,7.254,7.254,0,0,0,2.754-.55,8.034,8.034,0,0,0,2.408-1.506l.254-.231,2.036,2.116-.26.244a10.829,10.829,0,0,1-3.4,2.154,10.576,10.576,0,0,1-8.988-.478,9.557,9.557,0,0,1-3.632-3.436A9.042,9.042,0,0,1,246,122.679a8.868,8.868,0,0,1,1.349-4.775,9.548,9.548,0,0,1,3.675-3.41,10.665,10.665,0,0,1,5.111-1.243,10.82,10.82,0,0,1,3.908.726,9.76,9.76,0,0,1,3.285,2.056l.242.232-1.992,2.306Zm-26.558,10.775a6.913,6.913,0,0,0,3.372-.826,6.365,6.365,0,0,0,2.367-8.787,6.32,6.32,0,0,0-2.42-2.29,7.034,7.034,0,0,0-3.426-.839H230v12.742ZM234.7,113.4a10.758,10.758,0,0,1,5.1,1.2,9.136,9.136,0,0,1,3.6,3.336,9.276,9.276,0,0,1-.014,9.523,9.206,9.206,0,0,1-3.624,3.335,10.887,10.887,0,0,1-5.135,1.2h-7.89V113.4Zm-12.61,0V132h-3.271V113.4Z" transform="translate(-218.817 -113.25)" fill="#2d2d2d"/>
    </clipPath>
  </defs>
  <g id="Group_375" data-name="Group 375" transform="translate(-143.841 -96.333)">
    <g id="Group_91" data-name="Group 91" transform="translate(143.841 96.333)">
      <g id="Group_78" data-name="Group 78" transform="translate(0 9.409)">
        <path id="Path_100" data-name="Path 100" d="M143.841,132.068V113.25l12.7,8.224a1.412,1.412,0,0,1,0,2.369Z" transform="translate(-143.841 -113.25)" fill="#1274db" fill-rule="evenodd"/>
        <g id="Group_77" data-name="Group 77" clip-path="url(#clip-path)">
          <g id="Group_76" data-name="Group 76" transform="translate(-51.918 -105.38)">
            <rect id="Rectangle_32" data-name="Rectangle 32" width="291.677" height="368.36" fill="#1274db"/>
          </g>
        </g>
      </g>
      <g id="Group_80" data-name="Group 80">
        <path id="Path_102" data-name="Path 102" d="M143.841,105.742l16.3-9.409-.773,15.11a1.411,1.411,0,0,1-2.052,1.185Z" transform="translate(-143.841 -96.333)" fill="#1497de" fill-rule="evenodd"/>
      </g>
      <g id="Group_82" data-name="Group 82" transform="translate(16.297)">
        <path id="Path_104" data-name="Path 104" d="M173.142,96.333l16.3,9.409-13.472,6.886a1.412,1.412,0,0,1-2.052-1.185Z" transform="translate(-173.142 -96.333)" fill="#1683d6" fill-rule="evenodd"/>
      </g>
      <g id="Group_84" data-name="Group 84" transform="translate(19.25 9.409)">
        <path id="Path_106" data-name="Path 106" d="M191.795,113.25v18.818l-12.7-8.224a1.411,1.411,0,0,1,0-2.369Z" transform="translate(-178.452 -113.25)" fill="#1274db" fill-rule="evenodd"/>
      </g>
      <g id="Group_87" data-name="Group 87" transform="translate(16.297 21.187)">
        <path id="Path_108" data-name="Path 108" d="M189.438,141.466l-16.3,9.409.773-15.11a1.412,1.412,0,0,1,2.052-1.185Z" transform="translate(-173.142 -134.426)" fill="#1497de" fill-rule="evenodd"/>
        <g id="Group_86" data-name="Group 86" clip-path="url(#clip-path-5)">
          <g id="Group_85" data-name="Group 85" transform="translate(-68.215 -117.158)">
            <rect id="Rectangle_33" data-name="Rectangle 33" width="291.677" height="368.36" transform="translate(0)" fill="#1497de"/>
          </g>
        </g>
      </g>
      <g id="Group_90" data-name="Group 90" transform="translate(0 21.186)">
        <path id="Path_110" data-name="Path 110" d="M160.138,150.874l-16.3-9.409,13.472-6.886a1.411,1.411,0,0,1,2.052,1.185Z" transform="translate(-143.841 -134.425)" fill="#1683d6" fill-rule="evenodd"/>
        <g id="Group_89" data-name="Group 89" clip-path="url(#clip-path-6)">
          <g id="Group_88" data-name="Group 88" transform="translate(-51.918 -117.157)">
            <rect id="Rectangle_34" data-name="Rectangle 34" width="291.677" height="368.36" fill="#1683d6"/>
          </g>
        </g>
      </g>
    </g>
    <g id="Group_94" data-name="Group 94" transform="translate(185.542 105.742)">
      <path id="Path_112" data-name="Path 112" d="M269.423,132h-3.085V113.4h3.61l6.632,12.191,6.58-12.191H286.8V132h-3.111l-.024-13.245-6.094,11.354h-2l-6.145-11.359Zm-8.113-13.7a7.382,7.382,0,0,0-2.373-1.6,7.162,7.162,0,0,0-6.239.3,6.633,6.633,0,0,0-2.49,2.368,6.342,6.342,0,0,0,0,6.548A6.6,6.6,0,0,0,252.7,128.3a7.009,7.009,0,0,0,3.463.876,7.254,7.254,0,0,0,2.754-.55,8.034,8.034,0,0,0,2.408-1.506l.254-.231,2.036,2.116-.26.244a10.829,10.829,0,0,1-3.4,2.154,10.576,10.576,0,0,1-8.988-.478,9.557,9.557,0,0,1-3.632-3.436A9.042,9.042,0,0,1,246,122.679a8.868,8.868,0,0,1,1.349-4.775,9.548,9.548,0,0,1,3.675-3.41,10.665,10.665,0,0,1,5.111-1.243,10.82,10.82,0,0,1,3.908.726,9.76,9.76,0,0,1,3.285,2.056l.242.232-1.992,2.306Zm-26.558,10.775a6.913,6.913,0,0,0,3.372-.826,6.365,6.365,0,0,0,2.367-8.787,6.32,6.32,0,0,0-2.42-2.29,7.034,7.034,0,0,0-3.426-.839H230v12.742ZM234.7,113.4a10.758,10.758,0,0,1,5.1,1.2,9.136,9.136,0,0,1,3.6,3.336,9.276,9.276,0,0,1-.014,9.523,9.206,9.206,0,0,1-3.624,3.335,10.887,10.887,0,0,1-5.135,1.2h-7.89V113.4Zm-12.61,0V132h-3.271V113.4Z" transform="translate(-218.817 -113.25)" fill="#2d2d2d"/>
      <g id="Group_93" data-name="Group 93" transform="translate(0 0)" clip-path="url(#clip-path-7)">
        <g id="Group_92" data-name="Group 92" transform="translate(-93.619 -105.38)">
          <rect id="Rectangle_35" data-name="Rectangle 35" width="291.677" height="368.36" transform="translate(0)" fill="#2d2d2d"/>
        </g>
      </g>
    </g>
  </g>
</svg>
