<svg xmlns="http://www.w3.org/2000/svg" width="91.591" height="40.874" viewBox="0 0 91.591 40.874">
  <g id="Group_366" data-name="Group 366" transform="translate(-358.535 -68.403)">
    <path id="Path_114" data-name="Path 114" d="M386.141,100.573c0-.012.006-.023,0-.035L381.738,80.9a.331.331,0,0,0-.017-.039.379.379,0,0,0-.033-.071c-.005-.009-.006-.02-.012-.028L372.65,68.552c-.005-.007-.013-.009-.019-.016a.371.371,0,0,0-.085-.071.316.316,0,0,0-.037-.025.371.371,0,0,0-.154-.037h-.005a.365.365,0,0,0-.151.036.423.423,0,0,0-.039.027.369.369,0,0,0-.083.07c-.005.006-.013.009-.019.016l-8.842,12.054a.234.234,0,0,0-.012.025.36.36,0,0,0-.031.068.436.436,0,0,0-.019.041l-4.619,19.886c0,.013,0,.024,0,.037a.348.348,0,0,0,.012.136.34.34,0,0,0,.018.068c0,.008,0,.017.007.026a.353.353,0,0,0,.1.1c.009.008.012.02.023.027l13.309,8.2a.363.363,0,0,0,.175.049c.006,0,.01.005.015.005h0a.366.366,0,0,0,.191-.054l13.584-8.29c.009-.006.011-.017.019-.023a.363.363,0,0,0,.108-.11c0-.007,0-.016.006-.023a.637.637,0,0,0,.03-.2ZM363.563,82.23l1.99,6.431-5.758,9.794Zm11.085,18.06-4.723.016L366.35,88.753l5.991-10.188,6.068,10.28Zm4.258-10.6,6.239,10.569-9.723.033Zm-4.5,11.339-2.194,6.677-2.061-6.662Zm-5.25-.716-9.62.032,6.31-10.732Zm3.551-22.568.013-7.86,8.252,11.162-2.258,6.874Zm-.735,0L366.056,87.8l-2.138-6.911,8.068-11Zm-2.589,23.3,2.179,7.042-11.38-7.011Zm5.8-.02,9.292-.032-11.61,7.087Zm4.03-12.265,2.1-6.4,3.6,16.069Z" fill="#5179aa"/>
    <path id="Path_115" data-name="Path 115" d="M430.655,112.2h12.024V110h-9.821v-7.251h8.536v-2.2h-8.536V93.965h9.821v-2.2H430.655Z" transform="translate(-30.276 -9.806)" fill="#5179aa"/>
    <path id="Path_116" data-name="Path 116" d="M466.229,91.183a7.688,7.688,0,0,0-7.68,7.679v5.782a7.679,7.679,0,1,0,15.358,0V98.862A7.687,7.687,0,0,0,466.229,91.183Zm5.476,13.461a5.477,5.477,0,1,1-10.953,0V98.862a5.477,5.477,0,0,1,10.953,0Z" transform="translate(-41.986 -9.563)" fill="#5179aa"/>
    <path id="Path_117" data-name="Path 117" d="M506.5,97.393V95.741c0-1.182-1.225-4.558-6.67-4.558-6.1,0-7.006,3.392-7.006,5.415,0,3.1,2.53,5.2,7.519,6.219,3.966.812,3.959,2.632,3.954,3.962v.129c0,.032-.055,3.213-4.8,3.213-4.194,0-4.466-2.336-4.466-2.356v-1.652h-2.2v1.652c0,1.183,1.225,4.559,6.669,4.559,5.141,0,7.007-3.239,7.007-5.416v-.121c.006-1.482.019-4.954-5.715-6.128-3.821-.783-5.758-2.15-5.758-4.061,0-.878,0-3.212,4.8-3.212,4.195,0,4.466,2.335,4.467,2.355v1.652Z" transform="translate(-56.374 -9.563)" fill="#5179aa"/>
  </g>
</svg>
