<svg xmlns="http://www.w3.org/2000/svg" xmlns:xlink="http://www.w3.org/1999/xlink" width="82.233" height="60.538" viewBox="0 0 82.233 60.538">
  <defs>
    <linearGradient id="linear-gradient" x1="0.598" y1="0.053" x2="0.486" y2="0.906" gradientUnits="objectBoundingBox">
      <stop offset="0" stop-color="#3f85b8"/>
      <stop offset="1" stop-color="#2d77bc"/>
    </linearGradient>
    <linearGradient id="linear-gradient-2" x1="-0.026" y1="0.637" x2="0.974" y2="0.235" gradientUnits="objectBoundingBox">
      <stop offset="0" stop-color="#5ea3d2"/>
      <stop offset="1" stop-color="#2d77bc"/>
    </linearGradient>
  </defs>
  <g id="Group_367" data-name="Group 367" transform="translate(-638.84 -14.596)">
    <g id="Group_98" data-name="Group 98" transform="translate(638.84 14.596)">
      <path id="Path_118" data-name="Path 118" d="M667.89,20.676s-3.025,4.719-2.48,6.957,2.843,8.106,5.808,16.636,1.149,19.54-2.117,25.106c-1.815,3.327-5.868,6.715-9.921,6.594-1.633,1.089.287,1.83.287,1.83s8.242,1.194,15.26-10.965c4.235-7.622,2.178-20.024.6-25.59s-4.719-15.608-1.149-19.6C669.766,19.406,667.89,20.676,667.89,20.676Z" transform="translate(-648.996 -17.548)" fill="url(#linear-gradient)"/>
      <path id="Path_119" data-name="Path 119" d="M692.72,87.979c-.485-.213-1.043-.451-1.622-.682-10.708-4.2-22.958-4.447-34.21-2.632s-18.047,9.014-18.047,15.749a9.668,9.668,0,0,0,5.914,9.247l.015.013s.873.363,1.089.42a12.693,12.693,0,0,0,8.071-.431l.025,0,.246-.109a12.821,12.821,0,0,0,2.218-1.138,21.939,21.939,0,0,0,4.543-3.81,14.021,14.021,0,0,1-7.741,4.086,21.527,21.527,0,0,1-5.372-.413,5.017,5.017,0,0,1-4.1-3.426c-.014-.037-.027-.067-.041-.1a9,9,0,0,1,1.75-7.808c2.582-2.823,9.478-8.106,21.415-9.074S689.4,89.323,692.4,90.411c.727.264,1.454.537,2.147.789l.072-1.676Z" transform="translate(-638.84 -50.2)" fill="url(#linear-gradient-2)"/>
      <g id="Group_97" data-name="Group 97" transform="translate(15.395)">
        <path id="Path_120" data-name="Path 120" d="M705.85,40.531c-5.808-6.775-13.37-15.063-20.3-20.78S673.644,13.978,671.7,15.3c-1.744,1.19-1,5.949-.031,9.377a5.7,5.7,0,0,1,1.614-3.993c1.794-2,5.2-1.956,7.037-1.391l.616.225h0c2.753,1.012,6.585,4.588,11.665,10.161.539.591,1.073,1.2,1.6,1.818l0-.014A120.634,120.634,0,0,1,705.731,47.01c.991,1.677,3.06,5.74.869,7.136l1.384.461c.334.109.691.228,1.058.352l.068.022h0c1.575.531,3.3,1.132,3.992,1.337v0c1.141.337,1.979.458,2.215.12C716.225,54.838,711.657,47.306,705.85,40.531Z" transform="translate(-670.651 -14.596)" fill="#2271b2"/>
      </g>
    </g>
    <path id="Path_121" data-name="Path 121" d="M763.482,125.752a6.451,6.451,0,1,1,6.45-6.45A6.458,6.458,0,0,1,763.482,125.752Zm0-10.594a4.144,4.144,0,1,0,4.144,4.144A4.148,4.148,0,0,0,763.482,115.158Z" transform="translate(-60.991 -50.703)" fill="#f2a025"/>
    <path id="Path_122" data-name="Path 122" d="M793.294,125.752h-6.279v-2.307h6.279a1.5,1.5,0,1,0,0-2.99h-3.332a3.8,3.8,0,0,1,0-7.6h6.28v2.307h-6.28a1.495,1.495,0,0,0,0,2.99h3.332a3.8,3.8,0,0,1,0,7.6Z" transform="translate(-76.022 -50.703)" fill="#2271b2"/>
    <path id="Path_123" data-name="Path 123" d="M718.807,125.752h-5.2a6.451,6.451,0,0,1,0-12.9h5.212v2.307h-5.212a4.144,4.144,0,0,0,0,8.287h5.2Z" transform="translate(-35.256 -50.703)" fill="#2271b2"/>
    <path id="Path_124" data-name="Path 124" d="M737.449,125.837h-2.307V119.3a6.458,6.458,0,0,1,6.45-6.451h3.684v2.307h-3.684a4.148,4.148,0,0,0-4.144,4.144Z" transform="translate(-49.695 -50.703)" fill="#2271b2"/>
  </g>
</svg>
