<svg xmlns="http://www.w3.org/2000/svg" xmlns:xlink="http://www.w3.org/1999/xlink" width="87.668" height="34.582" viewBox="0 0 87.668 34.582">
  <defs>
    <clipPath id="clip-path">
      <path id="Path_125" data-name="Path 125" d="M556.609,118.329a12.749,12.749,0,0,1,0-25.5h10.3l-2.858-3.9h-7.447a16.647,16.647,0,0,0,0,33.294h10.124l2.6-3.9Z" transform="translate(-539.962 -88.933)" fill="none"/>
    </clipPath>
    <linearGradient id="linear-gradient" y1="0.5" x2="1" y2="0.5" gradientUnits="objectBoundingBox">
      <stop offset="0" stop-color="#3562a8"/>
      <stop offset="1" stop-color="#3bbb9d"/>
    </linearGradient>
    <clipPath id="clip-path-2">
      <path id="Path_126" data-name="Path 126" d="M664.162,122.065,644.2,90.157l-15.575,28.8H613.807l-2.6,3.9h19.74l13.5-24.958,7.816,12.493H639l-2.152,3.9H654.7l6.16,9.844Z" transform="translate(-611.206 -90.157)" fill="none"/>
    </clipPath>
    <clipPath id="clip-path-3">
      <path id="Path_127" data-name="Path 127" d="M613.19,116.776h4.826l-7.431-10.184,11.8-17.679H617.7l-9.56,14.324L597.694,88.923h-4.826l12.964,17.769-10.388,15.566h4.686l8.15-12.211Z" transform="translate(-592.868 -88.913)" fill="none"/>
    </clipPath>
  </defs>
  <g id="Group_368" data-name="Group 368" transform="translate(-539.962 -88.913)">
    <g id="Group_101" data-name="Group 101" transform="translate(539.962 88.923)">
      <g id="Group_100" data-name="Group 100" transform="translate(0 0)" clip-path="url(#clip-path)">
        <rect id="Rectangle_36" data-name="Rectangle 36" width="95.01" height="45.394" transform="translate(-4.263 -6.415)" fill="url(#linear-gradient)"/>
      </g>
    </g>
    <g id="Group_103" data-name="Group 103" transform="translate(574.674 89.519)">
      <g id="Group_102" data-name="Group 102" clip-path="url(#clip-path-2)">
        <rect id="Rectangle_37" data-name="Rectangle 37" width="95.01" height="45.394" transform="translate(-38.976 -7.011)" fill="url(#linear-gradient)"/>
      </g>
    </g>
    <g id="Group_105" data-name="Group 105" transform="translate(565.739 88.913)">
      <g id="Group_104" data-name="Group 104" clip-path="url(#clip-path-3)">
        <rect id="Rectangle_38" data-name="Rectangle 38" width="95.01" height="45.394" transform="translate(-30.041 -6.405)" fill="url(#linear-gradient)"/>
      </g>
    </g>
  </g>
</svg>
