<svg id="Group_307" data-name="Group 307" xmlns="http://www.w3.org/2000/svg" xmlns:xlink="http://www.w3.org/1999/xlink" width="293.757" height="178.578" viewBox="0 0 293.757 178.578">
  <defs>
    <linearGradient id="linear-gradient" x1="0.413" y1="-0.131" x2="0.634" y2="1.587" gradientUnits="objectBoundingBox">
      <stop offset="0" stop-color="#fff"/>
      <stop offset="1" stop-color="#cfcfcf"/>
    </linearGradient>
    <linearGradient id="linear-gradient-2" x1="172.932" y1="0.934" x2="172.932" y2="1.752" xlink:href="#linear-gradient"/>
    <clipPath id="clip-path">
      <path id="Path_213" data-name="Path 213" d="M-465.994-27.952l12.887,3.075,15.235.071,15.771-3.971,28.252,52.6L-397.685,39.7s-89.195,6.421-91.572,4.4S-502.8,31.264-504.37,27.044-465.994-27.952-465.994-27.952Z" transform="translate(504.416 28.776)" fill="none"/>
    </clipPath>
  </defs>
  <g id="Group_153" data-name="Group 153" transform="translate(121.775 26.117)">
    <g id="Group_145" data-name="Group 145" transform="translate(0 66.144)">
      <g id="Group_130" data-name="Group 130" transform="translate(49.855 3.695)">
        <g id="Group_126" data-name="Group 126">
          <g id="Group_125" data-name="Group 125">
            <g id="Group_124" data-name="Group 124">
              <path id="Path_140" data-name="Path 140" d="M-486.121,25.913l-24.286-57.991,3.886-1.544,22.1,58.859a1.078,1.078,0,0,1-.424,1.41A1.078,1.078,0,0,1-486.121,25.913Z" transform="translate(510.407 33.621)" fill="#602f1a"/>
            </g>
          </g>
        </g>
        <g id="Group_129" data-name="Group 129">
          <g id="Group_128" data-name="Group 128">
            <g id="Group_127" data-name="Group 127">
              <path id="Path_141" data-name="Path 141" d="M-505.846-31.823l-2.474.98L-485.491,26.6a1.326,1.326,0,0,1-.631-.687l-24.286-57.991,3.886-1.544Z" transform="translate(510.407 33.621)" fill="#040505" opacity="0.37"/>
            </g>
          </g>
        </g>
      </g>
      <g id="Group_137" data-name="Group 137" transform="translate(34.536)">
        <g id="Group_133" data-name="Group 133">
          <g id="Group_132" data-name="Group 132">
            <g id="Group_131" data-name="Group 131">
              <path id="Path_142" data-name="Path 142" d="M-517.17,27.322l-1.177-62.858h4.183l-1.177,62.858a1.076,1.076,0,0,1-.915,1.156A1.076,1.076,0,0,1-517.17,27.322Z" transform="translate(518.347 35.536)" fill="#602f1a"/>
            </g>
          </g>
        </g>
        <g id="Group_136" data-name="Group 136">
          <g id="Group_135" data-name="Group 135">
            <g id="Group_134" data-name="Group 134">
              <path id="Path_143" data-name="Path 143" d="M-514.195-33.882h-3.116l1.165,62.345a.685.685,0,0,1-.11.015,1.076,1.076,0,0,1-.915-1.156l-1.177-62.858h4.183Z" transform="translate(518.347 35.536)" fill="#040505" opacity="0.37"/>
            </g>
          </g>
        </g>
      </g>
      <g id="Group_144" data-name="Group 144">
        <g id="Group_140" data-name="Group 140">
          <g id="Group_139" data-name="Group 139">
            <g id="Group_138" data-name="Group 138">
              <path id="Path_144" data-name="Path 144" d="M-534.453,24l24.286-57.991-3.886-1.542-22.1,58.857a1.076,1.076,0,0,0,.424,1.412A1.075,1.075,0,0,0-534.453,24Z" transform="translate(536.247 35.536)" fill="#602f1a"/>
            </g>
          </g>
        </g>
        <g id="Group_143" data-name="Group 143" opacity="0.37">
          <g id="Group_142" data-name="Group 142">
            <g id="Group_141" data-name="Group 141">
              <path id="Path_145" data-name="Path 145" d="M-536.153,23.321l22.1-58.857,3.886,1.542-.446,1.067-2.406-.955-21.972,58.521a.832.832,0,0,1-.737.095A1.076,1.076,0,0,1-536.153,23.321Z" transform="translate(536.247 35.536)" fill="#040505"/>
            </g>
          </g>
        </g>
      </g>
    </g>
    <g id="Group_149" data-name="Group 149" transform="translate(6.663)">
      <g id="Group_148" data-name="Group 148">
        <g id="Group_147" data-name="Group 147">
          <g id="Group_146" data-name="Group 146">
            <path id="Path_146" data-name="Path 146" d="M-530.56,1.458c4.243,3.452,10.527,6.628,26.489,6.942,21,.413,31.988-1.97,37.954-12.8,9.963-18.084-2.5-76.509-22.171-63.567-16.439,10.82-19.732,45.357-21.9,50.132S-540.85-6.915-530.56,1.458Z" transform="translate(532.794 69.818)" fill="#e4f4f4"/>
          </g>
        </g>
      </g>
    </g>
    <g id="Group_152" data-name="Group 152" transform="translate(6.675 3.058)">
      <g id="Group_151" data-name="Group 151">
        <g id="Group_150" data-name="Group 150">
          <path id="Path_147" data-name="Path 147" d="M-507.718,2.455c21,.413,31.99-1.97,37.955-12.8,6.8-12.344,3.151-43.481-6.107-57.89,11.847,10.982,17.378,48.509,9.745,62.363-5.966,10.828-16.958,13.211-37.954,12.8-15.962-.314-22.246-3.49-26.489-6.942a5.177,5.177,0,0,1-2.221-3.4C-528.531-.4-522,2.173-507.718,2.455Z" transform="translate(532.787 68.233)" fill="#c5d9da"/>
        </g>
      </g>
    </g>
  </g>
  <path id="Path_148" data-name="Path 148" d="M-528.865-58.758s-3.45-2.433-3.573-3.456-2.53-5.165-3.3-5.991-4.814-2.227-5.676-2.348-5.815.3-5.2.972,3.82.428,4.436.8l.617.369s-.617.835-.37,1.343-1.057,1.283-.565,2.147-.2.8.243,1.7c.727,1.488,2.591,2.315,3.085,1.908.368.88,1.785,2.674,3.11,2.551s4.546,2.9,4.546,2.9" transform="translate(648.341 95.232)" fill="#ffd9ae"/>
  <path id="Path_149" data-name="Path 149" d="M-503.948-73.427c.118,2.317-.046,6.354.617,6.952s2.8.506,2.8.506-7.656,9.68-8.341,9.147-9.738-7.911-7.7-8.291,4.027-.3,3.969-1.353-.116-2.107-.174-3.16" transform="translate(676.032 92.58)" fill="#ffd9ae"/>
  <path id="Path_150" data-name="Path 150" d="M-492.5-25.193s-14.938,1.7-18.376,1.767-3.269-1.725-3.269-1.725c-.176-3.786-.816-12.705-1.528-15.729-.664-2.821-.959-3.865-1.538-6.547-1.285-5.96-1.227-7.1-2.589-14.455l8.924-7.172s.922,2.744,4.663,2.792c5,.064,6.554-3.438,6.554-3.438l12.169,8.08,1.142,19.653L-487.8-25.78" transform="translate(673.312 96.045)" fill="#ffa400"/>
  <path id="Path_151" data-name="Path 151" d="M-502.593-68.235a26.043,26.043,0,0,1-1.053,3.434,3.892,3.892,0,0,1-4.121,2.838l-4.573.11c-1.171.027-2.628.066-3.573-.754s-.957-2.186-1.165-3.313q-.4-2.165-.648-4.353a64.442,64.442,0,0,1-.4-8.605,6.151,6.151,0,0,1,.1-1.177.826.826,0,0,1,.2-.432.947.947,0,0,1,.548-.212,46.833,46.833,0,0,1,8.648-.554c2.041.058,4.2.3,5.821,1.545s2.4,3.3,3.095,5.236c.112.311.195.725-.075.916" transform="translate(674.847 85.289)" fill="#ffd9ae"/>
  <g id="Group_154" data-name="Group 154" transform="translate(118.333 137.701)">
    <path id="Path_152" data-name="Path 152" d="M-532.8-9.627A37.12,37.12,0,0,0-531.784-5.1c.449,1.154,4.231.091,4.482-.654s-1.19-6.228-1.19-6.228" transform="translate(542.897 11.985)" fill="#ffd9ae"/>
    <path id="Path_153" data-name="Path 153" d="M-521.12-7.615c.328,1.244.741,3.629.741,3.629l-3.782,1.648-.619-.583a7.017,7.017,0,0,1-2.1,1.673,15.642,15.642,0,0,1-3.66,1.013c-3.3.357-7.2.046-7.392-.411-.818-1.91,3.56-2.423,4.428-2.653,2.5-.656,5.35-3.085,5.617-4.467.193-1-.056-1.179.5-1.148a1.331,1.331,0,0,1,.945.444,2.389,2.389,0,0,0,2.686.625,2.849,2.849,0,0,0,1.341-1.117A1.65,1.65,0,0,1-521.12-7.615Z" transform="translate(538.031 14.795)" fill="#0e1a26"/>
  </g>
  <g id="Group_155" data-name="Group 155" transform="translate(112.269 78.06)">
    <path id="Path_154" data-name="Path 154" d="M-508.3-25.1a64.039,64.039,0,0,1-19.3.459c.835,2.392,2.883,5.46,3.662,8.831,2.576,11.133,3.469,26.088,4.123,35.339,0,0-1.237,2.373-5.2.565-5.921-14.619-16.255-44.251-16.161-50.68.121-8.183,20.548-10.158,35.517-12.175" transform="translate(541.173 43.023)" fill="#004181"/>
    <path id="Path_155" data-name="Path 155" d="M-483.286-41.356c4.708,3.438-26.091,16.385-26.091,16.385a51.3,51.3,0,0,1-10.1.965,7.436,7.436,0,0,1-.75-1.91c-.181-.9-.085-1.825-.241-2.724a6.328,6.328,0,0,0-3.076-4.146,13.863,13.863,0,0,0-5.034-1.63c-4.164-.671-11.436-.2-11.436-.2,9.257-6.824,28.2-7.718,37.02-8.277C-501.3-40.114-483.961-41.848-483.286-41.356Z" transform="translate(542.254 42.896)" fill="#003864"/>
  </g>
  <g id="Group_156" data-name="Group 156" transform="translate(125.462 146.263)">
    <path id="Path_156" data-name="Path 156" d="M-527.734-5.971a36.767,36.767,0,0,0,.212,4.631c.241,1.214,4.152.824,4.526.133s-.093-6.34-.093-6.34" transform="translate(540.469 7.547)" fill="#ffd9ae"/>
    <path id="Path_157" data-name="Path 157" d="M-515.731-2.5c.108,1.281.1,3.7.1,3.7l-4.009.967-.509-.681a7.009,7.009,0,0,1-2.356,1.283,15.648,15.648,0,0,1-3.78.365c-3.313-.222-7.9-1.192-8.015-1.677-.475-2.026,3.926-1.771,4.822-1.846,2.572-.214,6.61-2.12,7.112-3.434.363-.953.149-1.169.695-1.042a1.332,1.332,0,0,1,.855.6,2.388,2.388,0,0,0,2.537,1.08,2.849,2.849,0,0,0,1.513-.866A1.648,1.648,0,0,1-515.731-2.5Z" transform="translate(534.336 10.008)" fill="#0e1a26"/>
  </g>
  <path id="Path_158" data-name="Path 158" d="M-482.82-42.451a190.991,190.991,0,0,1-20.867.666c-2.664,0-22.821,3.784-24.749,7.2-3.17,5.617,2.068,38.453,1.584,61.961,0,0,2.416,2.016,6.689.122,1.063-11.549,7.885-38.791,3.18-51.51,11.111,1.476,20.078,2.94,30.178-.407a8.064,8.064,0,0,0,5.2-5.51C-480.541-33-481.1-39.707-482.82-42.451Z" transform="translate(664.329 121.37)" fill="#004181"/>
  <g id="Group_157" data-name="Group 157" transform="translate(113.1 26.993)">
    <path id="Path_159" data-name="Path 159" d="M-491.4-69.364s-2.134.118-2.551.15a19.713,19.713,0,0,0-5.275,1c-2.419.9-4.127,3.147-6.1,4.908-1.9,1.694-11.727,11.061-13.56,11.407s-17.928-10.685-17.928-10.685l-3.93,3.93s17.465,16.138,22.672,16.165c2.528.014,16.47-7.326,20.93-10.18Z" transform="translate(540.743 69.364)" fill="#ffa400"/>
    <path id="Path_160" data-name="Path 160" d="M-518.03-50.38c-3.589.2-20.043-12.362-21.949-13.83l-.764.764s17.465,16.138,22.672,16.165c2.107.01,12.134-5.082,18-8.432l1.519-.882-.909-5.426S-514.217-50.6-518.03-50.38Z" transform="translate(540.743 74.154)" fill="#c23421" opacity="0.25"/>
  </g>
  <path id="Path_161" data-name="Path 161" d="M-493.75-57.789c-1.989,8.995-2.342,16.035-2.9,22.468-6.986,2.711-11.883,6.5-18.719,9.541,0,0-3.344-.646-3.911,1.389-.328,1.175,6,.729,6,.729,6.334.029,23.358-3.22,24.49-3.531s4.422-21.548,4.553-33.074c.019-1.636-.039-3.413-1.063-4.69a6.17,6.17,0,0,0-2.061-1.524c-4.459-2.279-7.76-2.9-12.755-3.218" transform="translate(673.775 96.045)" fill="#c23421" opacity="0.25"/>
  <path id="Path_162" data-name="Path 162" d="M-510.317-46.119c-.751-.947-2.118-1.084-3.326-1.053a24.25,24.25,0,0,0-2.67.212c-.4.054-.868.149-.911.587s1.958,0,3.006.3a52.875,52.875,0,0,1-6.182.168,1.76,1.76,0,0,0-.71.073.589.589,0,0,0-.4.542.732.732,0,0,0,.284.469,4.173,4.173,0,0,0,2.126.857,16.369,16.369,0,0,0,9.4-.83" transform="translate(671.716 116.979)" fill="#f6a7a0"/>
  <path id="Path_163" data-name="Path 163" d="M-496.417-57.958c-.166,9.618-.847,14.019-.66,23.635-4.829,1.03-12.981,5.126-19.817,8.169a11.515,11.515,0,0,0,.843,3.446c.521.191,23.911-4.87,25.7-6.521,1.613-1.486,3.747-19.51,3.878-31.037.019-1.636-.039-3.413-1.063-4.69a6.17,6.17,0,0,0-2.061-1.524c-4.459-2.279-7.76-2.9-12.755-3.218" transform="translate(676.008 96.045)" fill="#ffa400"/>
  <g id="Group_158" data-name="Group 158" transform="translate(110.819 47.954)">
    <path id="Path_164" data-name="Path 164" d="M-534.22-32.96h39.976l-7.168-23.367a3.073,3.073,0,0,0-2.937-2.173h-35.009a1.994,1.994,0,0,0-1.906,2.578Z" transform="translate(542.457 58.5)" fill="#868ea4"/>
    <path id="Path_165" data-name="Path 165" d="M-534.19-32.96h39.374l-7.168-23.367a3.073,3.073,0,0,0-2.936-2.173h-35.011a1.993,1.993,0,0,0-1.9,2.578l6.867,22.387A.814.814,0,0,0-534.19-32.96Z" transform="translate(541.925 58.5)" fill="url(#linear-gradient)"/>
  </g>
  <g id="Group_159" data-name="Group 159" transform="translate(128.585 56.558)" opacity="0.2">
    <path id="Path_166" data-name="Path 166" d="M-523.79-52.492a4.923,4.923,0,0,1,.239,7.17,5.469,5.469,0,0,1-7.492-.123,4.926,4.926,0,0,1-.239-7.172A5.471,5.471,0,0,1-523.79-52.492Z" transform="translate(532.717 54.04)" fill="#181a1c"/>
  </g>
  <path id="Path_167" data-name="Path 167" d="M-508.65-77.523c-.075-.359-.874-.43-1.675-.33a12.881,12.881,0,0,0-3.38.712c-.438.343-.413.59-.646.615s-.247-.216-.758-.438a6.8,6.8,0,0,0-2.547.033c-.8.1-1.563.28-1.547.646a2.087,2.087,0,0,0,.32,1.107c.164.1.164.085.8,1.534a1.532,1.532,0,0,0,1.931,1.05c1.32-.287,1.4-1.79,1.505-2.419s.2-.72.4-.747.338.041.592.623.438,1.927,1.791,2c1.769.1,2.535-.506,2.78-1.64.332-1.54.257-1.544.39-1.684a8.57,8.57,0,0,1,1.323.112l-.029-.459A9.97,9.97,0,0,1-508.65-77.523Zm-6.427,3.1a1.538,1.538,0,0,1-1.3,1.615c-.81.1-1.183-.33-1.622-1.37a2.682,2.682,0,0,1-.263-1.873c.139-.249.575-.241,1.584-.3s1.343-.085,1.507.359A5.489,5.489,0,0,1-515.077-74.426Zm5.769-.847c-.166,1.115-.575,1.652-1.686,1.785-1.576.187-1.879-.434-2.113-1.185a5.526,5.526,0,0,1-.3-1.549c.048-.471.38-.533,1.372-.722s2.319-.417,2.514-.21A2.68,2.68,0,0,1-509.308-75.273Z" transform="translate(673.861 88.428)" fill="#282828"/>
  <path id="Path_168" data-name="Path 168" d="M-497.433-74.905a17.285,17.285,0,0,0-.44-2.371,7.566,7.566,0,0,0-3.693-4.841,11.834,11.834,0,0,0-8.358-.832c-1.528.428-2.1,1.235-2.884,1.212a8.772,8.772,0,0,1-2.14-.706c-5.977-2.147-4.974,3.7-4.337,5.312.282.71,1.636,1.227,1.818,1.524a18.12,18.12,0,0,1,.276,2.381,1.262,1.262,0,0,0,.743.88s.035-1.883.064-2.14a2.375,2.375,0,0,1,.884-1.765,5.475,5.475,0,0,1,2.149-.6,16.293,16.293,0,0,1,4.4.727c1.117.957,1.4,3.143,1.717,4.428.147.6.3,1,.542,1,.185-1.769.8-1.816,1.858-1.21a3.077,3.077,0,0,1,.9,2.393,2.528,2.528,0,0,1-1.785,2.612c-.422.091.853,2.5,1.441,3.106a3.293,3.293,0,0,0,.623.548,2.884,2.884,0,0,0,.72.266l.855.232a2.232,2.232,0,0,0,1.175.1c.631-.179.963-.847,1.246-1.437.469-.971,1.005-1.908,1.387-2.915A17.313,17.313,0,0,0-497.433-74.905Z" transform="translate(673.331 83.354)" fill="#2c2c2c"/>
  <g id="Group_189" data-name="Group 189" transform="translate(8.621 26.117)">
    <g id="Group_181" data-name="Group 181" transform="translate(0.911 66.144)">
      <g id="Group_166" data-name="Group 166" transform="translate(0 3.695)">
        <g id="Group_162" data-name="Group 162">
          <g id="Group_161" data-name="Group 161">
            <g id="Group_160" data-name="Group 160">
              <path id="Path_169" data-name="Path 169" d="M-592.627,25.913l24.286-57.991-3.886-1.544-22.1,58.859a1.076,1.076,0,0,0,.424,1.41A1.078,1.078,0,0,0-592.627,25.913Z" transform="translate(594.421 33.621)" fill="#602f1a"/>
            </g>
          </g>
        </g>
        <g id="Group_165" data-name="Group 165" transform="translate(1.164)">
          <g id="Group_164" data-name="Group 164">
            <g id="Group_163" data-name="Group 163">
              <path id="Path_170" data-name="Path 170" d="M-573.463-31.823l2.472.98L-593.818,26.6a1.333,1.333,0,0,0,.631-.687L-568.9-32.077l-3.886-1.544Z" transform="translate(593.818 33.621)" fill="#040505" opacity="0.37"/>
            </g>
          </g>
        </g>
      </g>
      <g id="Group_173" data-name="Group 173" transform="translate(37.217)">
        <g id="Group_169" data-name="Group 169">
          <g id="Group_168" data-name="Group 168">
            <g id="Group_167" data-name="Group 167">
              <path id="Path_171" data-name="Path 171" d="M-572.126,27.322l1.175-62.858h-4.181l1.175,62.858a1.079,1.079,0,0,0,.917,1.156A1.076,1.076,0,0,0-572.126,27.322Z" transform="translate(575.132 35.536)" fill="#602f1a"/>
            </g>
          </g>
        </g>
        <g id="Group_172" data-name="Group 172">
          <g id="Group_171" data-name="Group 171">
            <g id="Group_170" data-name="Group 170">
              <path id="Path_172" data-name="Path 172" d="M-575.1-33.882h3.116l-1.165,62.345a.686.686,0,0,0,.11.015,1.076,1.076,0,0,0,.915-1.156l1.175-62.858h-4.181Z" transform="translate(575.132 35.536)" fill="#040505" opacity="0.37"/>
            </g>
          </g>
        </g>
      </g>
      <g id="Group_180" data-name="Group 180" transform="translate(52.534 3.695)">
        <g id="Group_176" data-name="Group 176">
          <g id="Group_175" data-name="Group 175">
            <g id="Group_174" data-name="Group 174">
              <path id="Path_173" data-name="Path 173" d="M-542.906,25.913l-24.287-57.991,3.888-1.544,22.1,58.859a1.074,1.074,0,0,1-.424,1.41A1.075,1.075,0,0,1-542.906,25.913Z" transform="translate(567.193 33.621)" fill="#602f1a"/>
            </g>
          </g>
        </g>
        <g id="Group_179" data-name="Group 179" transform="translate(0.002)" opacity="0.37">
          <g id="Group_178" data-name="Group 178">
            <g id="Group_177" data-name="Group 177">
              <path id="Path_174" data-name="Path 174" d="M-541.207,25.238l-22.1-58.859-3.886,1.544.446,1.065,2.406-.953,21.972,58.519a.832.832,0,0,0,.737.095A1.074,1.074,0,0,0-541.207,25.238Z" transform="translate(567.192 33.621)" fill="#040505"/>
            </g>
          </g>
        </g>
      </g>
    </g>
    <g id="Group_185" data-name="Group 185">
      <g id="Group_184" data-name="Group 184">
        <g id="Group_183" data-name="Group 183">
          <g id="Group_182" data-name="Group 182">
            <path id="Path_175" data-name="Path 175" d="M-526.944,1.458c-4.241,3.452-10.525,6.628-26.487,6.942-21,.413-31.988-1.97-37.954-12.8-9.963-18.084,2.5-76.509,22.169-63.567,16.441,10.82,19.734,45.357,21.907,50.132S-516.653-6.915-526.944,1.458Z" transform="translate(594.894 69.818)" fill="#e4f4f4"/>
          </g>
        </g>
      </g>
    </g>
    <g id="Group_188" data-name="Group 188" transform="translate(0 3.058)">
      <g id="Group_187" data-name="Group 187">
        <g id="Group_186" data-name="Group 186">
          <path id="Path_176" data-name="Path 176" d="M-549.791,2.455c-21,.413-31.99-1.97-37.956-12.8-6.8-12.344-3.151-43.481,6.107-57.89-11.847,10.982-17.378,48.509-9.746,62.363,5.966,10.828,16.958,13.211,37.954,12.8,15.962-.314,22.246-3.49,26.487-6.942a5.18,5.18,0,0,0,2.223-3.4C-528.978-.4-535.511,2.173-549.791,2.455Z" transform="translate(594.893 68.233)" fill="#c5d9da"/>
        </g>
      </g>
    </g>
  </g>
  <g id="Group_192" data-name="Group 192" transform="translate(12.785 1.838)">
    <path id="Path_177" data-name="Path 177" d="M-550.773-8.663c.272,1.53-2.624,5.578,1.262,8.983s12.715,6.988,6.865,7.123a34.069,34.069,0,0,1-14.444-2.69c-2.975-1.472-.6-3.786-4.291-4.947-4.864-1.538-4.808-1.848-2.456-7.143C-560.6-14.621-551.647-13.614-550.773-8.663Z" transform="translate(618.148 147.287)" fill="#0a141e"/>
    <path id="Path_178" data-name="Path 178" d="M-549.187-6.751c.679,1.322,3.93,4.376,8.438,6.39S-526.7,2.6-532,4.367s-11.486.7-14.621.195a63.076,63.076,0,0,0-9.859-.594c-4.874-.033-4.91-.332-4.254-5.827C-559.833-9.421-551.379-11.022-549.187-6.751Z" transform="translate(622.196 150.551)" fill="#0e1a26"/>
    <path id="Path_179" data-name="Path 179" d="M-560.833-7.3l1.889,4.631s4.663,1.134,6.894-.05,1.335-2.2,1.335-2.2l-1.954-6.859Z" transform="translate(622.385 148.041)" fill="#ffd9ae"/>
    <path id="Path_180" data-name="Path 180" d="M-560.69-40.458s20,4.355,27.261,6.13,12.906,4.839,9.518,16.936-9.033,34.2-9.033,34.2h-12.9l6.774-39.75-37.745-4.447-6.954-15.431Z" transform="translate(601.064 119.187)" fill="#003864"/>
    <path id="Path_181" data-name="Path 181" d="M-587.081-41.352c.86,6.238-.967,13.409,8.711,16.223s24.789,3.027,24.789,3.027l15.15,45.393a23.308,23.308,0,0,0,9.389-.959c2.122-.656,2.883-3.355,2.883-3.355l-13.707-46.406a10.747,10.747,0,0,0-7.646-7.368l-23.242-7.064Z" transform="translate(597.99 120.081)" fill="#004181"/>
    <g id="Group_191" data-name="Group 191">
      <path id="Path_182" data-name="Path 182" d="M-582.6-37.8a13.2,13.2,0,0,1,.592,7.621c-1.121,5.051.156,5.391.156,5.391s6.846,4.345,12.539,6.122c4.081,1.27,7.559,1.053,7.463-3.452l0-.062c-.006-.274-.013-.534-.019-.791-.193-10.126,1.918-10.641,2.439-21.98.538-11.632-2.572-18.121-5.651-20.934s-7.3-2.913-15.215-1.042c-5.948,1.4-7.909,2.981-7.86,7.384a34.461,34.461,0,0,0,.641,5.42A97.826,97.826,0,0,0-582.6-37.8Z" transform="translate(596.987 95.614)" fill="#a0bed5"/>
      <path id="Path_183" data-name="Path 183" d="M-582.6-41.54a13.2,13.2,0,0,1,.592,7.621c-1.121,5.051.156,5.391.156,5.391s6.846,4.345,12.539,6.122l5.321-.506,2.13-1.673.008-1.335c-.006-.274-.013-.534-.019-.791a39.272,39.272,0,0,1-8.034-.208,33.322,33.322,0,0,1-7.88-1.974,3.073,3.073,0,0,1-1.937-3.413,44.023,44.023,0,0,0,.737-7.064c-.015-2.228-1.048-6-1.891-8.715a17.541,17.541,0,0,1-.71-6.444,57.421,57.421,0,0,0-.006-7.345l-4.218-2.284-2.35.876a34.446,34.446,0,0,0,.641,5.42A97.82,97.82,0,0,0-582.6-41.54Z" transform="translate(596.987 99.357)" fill="#4b5e7d" opacity="0.38"/>
      <g id="Group_190" data-name="Group 190" transform="translate(14.323)">
        <path id="Path_184" data-name="Path 184" d="M-573.659-76.913a3.222,3.222,0,0,1-.27,2.647l-3.264-4.42,2.277-.021Z" transform="translate(592.856 85.835)" fill="#2c2c2c"/>
        <path id="Path_185" data-name="Path 185" d="M-584.551-69.79c.145,5.7,5.063,9,5.063,9l-.33,5.19,3.318,2.149,2.275,1.474,1.308-2.73.179-3.346a1.724,1.724,0,0,1,1.368-1.59,6.282,6.282,0,0,0,3.236-1.955,2.309,2.309,0,0,0,.206-.257l.008,0c2.155-2.937,2.971-14.185-4.409-17.378C-579.948-82.539-584.7-75.5-584.551-69.79Z" transform="translate(586.015 84.559)" fill="#ffd9ae"/>
        <path id="Path_186" data-name="Path 186" d="M-580.158-65.342l-.222,3.112,2.275,1.474,1.308-2.73.18-3.346a1.724,1.724,0,0,1,1.368-1.59,6.282,6.282,0,0,0,3.236-1.955,2.308,2.308,0,0,0,.206-.257A12.263,12.263,0,0,1-576.45-69.2,4.183,4.183,0,0,0-580.158-65.342Z" transform="translate(589.895 93.34)" fill="#fdcea4"/>
        <path id="Path_187" data-name="Path 187" d="M-575.889-69.428c-.288.118-.563-.328-.563-.328A30.456,30.456,0,0,0-578.6-73.9c-.982-1-3.3-.9-3.488,2.178-.143,2.387,2.676,7.475,3.542,8.97a.573.573,0,0,1-.145.722.721.721,0,0,1-.314.118h-.04a.552.552,0,0,1-.367-.131c-1.823-1.6-9.85-9.3-3.475-16.537,0,0,5.061.328,5.835,2.767a51.091,51.091,0,0,1,1.326,5.757S-575.586-69.559-575.889-69.428Z" transform="translate(585.312 85.952)" fill="#2c2c2c"/>
        <path id="Path_188" data-name="Path 188" d="M-567.264-73.479s-4.43-3.454-11.156.754l-5.509-1.407s-.233-.075-.11-.9.729-8.924,10.38-7.1C-568.111-81.088-564.712-77.243-567.264-73.479Z" transform="translate(586.461 82.402)" fill="#2c2c2c"/>
      </g>
      <path id="Path_189" data-name="Path 189" d="M-581.308-68.645a5.337,5.337,0,0,0-1.6,1.646,20.924,20.924,0,0,1,2.049,1.073c.872.533,5.059,3.488,5.059,3.488l1.231-2.528S-578.941-67.981-581.308-68.645Z" transform="translate(601.868 95.187)" fill="#0076b4"/>
      <path id="Path_190" data-name="Path 190" d="M-578.586-65.086a3.492,3.492,0,0,1,1.914,1.6s.75-1.437-.208-3.992a6.643,6.643,0,0,0-1.42-1.032Z" transform="translate(605.885 95.308)" fill="#0076b4"/>
      <path id="Path_191" data-name="Path 191" d="M-584.621-43.125a8.651,8.651,0,0,0,1.009,1.106c.23.125.27-.145.183-.334S-584.586-43.384-584.621-43.125Z" transform="translate(600.276 118.86)" fill="#e0ac85"/>
      <path id="Path_192" data-name="Path 192" d="M-579.009-61.913h-.04a.552.552,0,0,1-.367-.131c-1.823-1.6-9.85-9.3-3.475-16.537a7.463,7.463,0,0,0-.183,2.308S-587.142-69.7-579.009-61.913Z" transform="translate(599.635 85.952)" fill="#2c2c2c"/>
      <path id="Path_193" data-name="Path 193" d="M-589.943-56.262s-4.26,19.613-2.255,21.11,24.754,1.721,26.869,2.063,10.791,1.748,15.225-2.159c.573-.5-2.7-.284-3.467-1.991s.407-1.509,0-2.228c-1.571-2.755-10.542.6-10.542.6S-578.8-41.409-583.061-40.2c2.557-3.095,3.139-14.631,3.139-14.631Z" transform="translate(592.735 106.696)" fill="#ffd9ae"/>
      <path id="Path_194" data-name="Path 194" d="M-591.892-45.695s2.856-17.984,8.287-20.406,9.271,5.344,7.274,13.323-2.518,10.9-2.518,10.9S-587-41.06-591.892-45.695Z" transform="translate(593.518 97.134)" fill="#0084c9"/>
    </g>
  </g>
  <g id="Group_196" data-name="Group 196" transform="translate(0 72.827)">
    <g id="Group_195" data-name="Group 195" transform="translate(7.811 3.387)">
      <g id="Group_193" data-name="Group 193">
        <path id="Path_195" data-name="Path 195" d="M-591.442,44.911h-3.871l3.065-88.763h7.743Z" transform="translate(595.313 43.853)" fill="#e0e1e1"/>
        <path id="Path_196" data-name="Path 196" d="M-593.922-32.84h7.262l.861-11.013h-7.743Z" transform="translate(596.607 43.853)" fill="#040505" opacity="0.2"/>
      </g>
      <g id="Group_194" data-name="Group 194" transform="translate(222.956)">
        <path id="Path_197" data-name="Path 197" d="M-472.821,44.911h3.871l-3.065-88.763h-7.743Z" transform="translate(479.757 43.853)" fill="#e0e1e1"/>
        <path id="Path_198" data-name="Path 198" d="M-471.634-32.84H-478.9l-.861-11.013h7.743Z" transform="translate(479.757 43.853)" fill="#040505" opacity="0.2"/>
      </g>
    </g>
    <rect id="Rectangle_56" data-name="Rectangle 56" width="249.385" height="7.303" rx="1.893" fill="#b4daef"/>
    <path id="Path_199" data-name="Path 199" d="M-599.289-43.08a3.324,3.324,0,0,0,3.191,2.425h242.722a3.321,3.321,0,0,0,3.189-2.425Z" transform="translate(599.429 47.958)" fill="#91c9e4"/>
  </g>
  <g id="Group_198" data-name="Group 198" transform="translate(27.775 47.529)">
    <path id="Rectangle_57" data-name="Rectangle 57" d="M0,0H55.955a0,0,0,0,1,0,0V.738a.794.794,0,0,1-.794.794H0a0,0,0,0,1,0,0V0A0,0,0,0,1,0,0Z" transform="translate(55.955 25.298) rotate(180)" fill="#868ea4"/>
    <g id="Group_197" data-name="Group 197" transform="translate(19.034)">
      <path id="Path_200" data-name="Path 200" d="M-575.1-33.421h37.823l3.641-23.153a1.78,1.78,0,0,0-1.79-2.146h-33.566a2.6,2.6,0,0,0-2.466,2.146Z" transform="translate(575.101 58.72)" fill="url(#linear-gradient-2)"/>
      <path id="Path_201" data-name="Path 201" d="M-568.994-58.72h1.028a2.6,2.6,0,0,0-2.466,2.146l-3.641,23.153H-575.1l3.641-23.153A2.6,2.6,0,0,1-568.994-58.72Z" transform="translate(575.101 58.72)" fill="#181a1c" opacity="0.2"/>
      <path id="Path_202" data-name="Path 202" d="M-566.31-49.5a4.016,4.016,0,0,0,4.038,4.839,5.856,5.856,0,0,0,5.559-4.839,4.016,4.016,0,0,0-4.036-4.839A5.857,5.857,0,0,0-566.31-49.5Z" transform="translate(583.215 62.792)" fill="#181a1c" opacity="0.2"/>
    </g>
  </g>
  <g id="Group_231" data-name="Group 231" transform="translate(164.085 14.462)">
    <g id="Group_199" data-name="Group 199" transform="translate(47.709 93.6)">
      <path id="Path_203" data-name="Path 203" d="M-481.885-5.4l.729,4.376h3.337l1.436-.246-1.051-6.8Z" transform="translate(496.752 45.264)" fill="#ffd9ae"/>
      <path id="Path_204" data-name="Path 204" d="M-469.817,11.268c-.318.147-.656.276-1.007.4a28.19,28.19,0,0,1-4.324.955c-3.992-6.545-14.341-38.428-14.341-38.428-.953-4.027,5.1,1.129,7.613.976a5.324,5.324,0,0,1,2.321.338c2.406,1.019,5.937,7.828,5.937,7.828a41.867,41.867,0,0,1,2.2,7.216C-470.3-4.592-469.817,11.268-469.817,11.268Z" transform="translate(489.59 27.347)" fill="#6c97af"/>
      <path id="Path_205" data-name="Path 205" d="M-473.533,10.061c-.318.147-.656.276-1.007.4-.251-1.941-.625-5.036-1.179-9.965-1.235-11.054-8.241-23.707-9.873-26.531a5.323,5.323,0,0,1,2.321.338c2.406,1.019,5.937,7.828,5.937,7.828a41.864,41.864,0,0,1,2.2,7.216C-474.012-5.8-473.533,10.061-473.533,10.061Z" transform="translate(493.306 28.554)" fill="#5e889a"/>
      <path id="Path_206" data-name="Path 206" d="M-477.388-3.9a8.123,8.123,0,0,0,2.551-.392,6.093,6.093,0,0,0,2.147-1.36s3.542,2.163,3.537,6.045a.494.494,0,0,1-.324.455s-8.493,3.774-11.414,4.806a43.435,43.435,0,0,1-4.687,1.212.411.411,0,0,1-.5-.224,1.437,1.437,0,0,1,.637-1.75c1.318-1.011,2.757-1.835,3.757-2.67s2.02-3.143,2.829-3.8A5.374,5.374,0,0,0-477.388-3.9Z" transform="translate(492.766 47.508)" fill="#0e1a26"/>
    </g>
    <g id="Group_220" data-name="Group 220" transform="translate(19.105 90.842)">
      <g id="Group_219" data-name="Group 219" clip-path="url(#clip-path)">
        <g id="Group_218" data-name="Group 218" transform="translate(19.15 -4.879)">
          <g id="Group_202" data-name="Group 202" transform="translate(39.254 4.249)">
            <g id="Group_201" data-name="Group 201">
              <g id="Group_200" data-name="Group 200">
                <path id="Path_207" data-name="Path 207" d="M-470.975,37.2l1.241-66.3h-4.411l1.241,66.3a1.134,1.134,0,0,0,.965,1.217A1.134,1.134,0,0,0-470.975,37.2Z" transform="translate(474.145 29.103)" fill="#602f1a"/>
              </g>
            </g>
          </g>
          <g id="Group_205" data-name="Group 205">
            <g id="Group_204" data-name="Group 204">
              <g id="Group_203" data-name="Group 203">
                <path id="Path_208" data-name="Path 208" d="M-492.6,31.488l25.617-61.164-4.1-1.628-23.309,62.081a1.133,1.133,0,0,0,.448,1.488A1.134,1.134,0,0,0-492.6,31.488Z" transform="translate(494.49 31.305)" fill="#602f1a"/>
              </g>
            </g>
          </g>
          <g id="Group_208" data-name="Group 208" transform="translate(55.411)">
            <g id="Group_207" data-name="Group 207">
              <g id="Group_206" data-name="Group 206">
                <path id="Path_209" data-name="Path 209" d="M-440.156,31.488l-25.615-61.164,4.1-1.628,23.309,62.081a1.133,1.133,0,0,1-.448,1.488A1.136,1.136,0,0,1-440.156,31.488Z" transform="translate(465.771 31.305)" fill="#602f1a"/>
              </g>
            </g>
          </g>
          <g id="Group_211" data-name="Group 211" transform="translate(1.227)" opacity="0.37">
            <g id="Group_210" data-name="Group 210">
              <g id="Group_209" data-name="Group 209">
                <path id="Path_210" data-name="Path 210" d="M-472.385-29.408l2.609,1.036-24.077,60.586a1.392,1.392,0,0,0,.664-.725l25.617-61.164-4.1-1.628Z" transform="translate(493.854 31.305)" fill="#040505"/>
              </g>
            </g>
          </g>
          <g id="Group_214" data-name="Group 214" transform="translate(39.254 4.249)" opacity="0.37">
            <g id="Group_213" data-name="Group 213">
              <g id="Group_212" data-name="Group 212">
                <path id="Path_211" data-name="Path 211" d="M-474.112-27.359h3.286L-472.056,38.4a.76.76,0,0,0,.116.015,1.134,1.134,0,0,0,.965-1.217l1.241-66.3h-4.411Z" transform="translate(474.145 29.103)" fill="#040505"/>
              </g>
            </g>
          </g>
          <g id="Group_217" data-name="Group 217" transform="translate(55.411)" opacity="0.37">
            <g id="Group_216" data-name="Group 216">
              <g id="Group_215" data-name="Group 215">
                <path id="Path_212" data-name="Path 212" d="M-438.362,30.776-461.671-31.3l-4.1,1.628.471,1.125,2.537-1.007,23.176,61.724a.875.875,0,0,0,.778.1A1.133,1.133,0,0,0-438.362,30.776Z" transform="translate(465.771 31.305)" fill="#040505"/>
              </g>
            </g>
          </g>
        </g>
      </g>
    </g>
    <g id="Group_224" data-name="Group 224">
      <path id="Path_214" data-name="Path 214" d="M-465.67-33.149H-506.2l-8.024-25.225a1.97,1.97,0,0,1,1.877-2.566h36.4a1.968,1.968,0,0,1,1.877,1.372Z" transform="translate(514.318 89.724)" fill="#fff"/>
      <path id="Path_215" data-name="Path 215" d="M-466.876-33.4h-38.806l-7.949-24.758a1.937,1.937,0,0,1,1.86-2.52h34.712a1.947,1.947,0,0,1,1.858,1.347Z" transform="translate(514.869 89.971)" fill="#d8e8f7"/>
      <path id="Path_216" data-name="Path 216" d="M-493.316-57.788H-511a.477.477,0,0,1-.477-.478h0a.476.476,0,0,1,.477-.477h17.679a.476.476,0,0,1,.477.477h0A.477.477,0,0,1-493.316-57.788Z" transform="translate(516.962 91.766)" fill="#b4daef"/>
      <path id="Path_217" data-name="Path 217" d="M-490.917-56.647h-19.715a.475.475,0,0,1-.477-.477h0a.476.476,0,0,1,.477-.477h19.715a.476.476,0,0,1,.477.477h0A.475.475,0,0,1-490.917-56.647Z" transform="translate(517.301 92.828)" fill="#b4daef"/>
      <path id="Path_218" data-name="Path 218" d="M-493.09-55.5h-17.17a.476.476,0,0,1-.477-.477h0a.477.477,0,0,1,.477-.479h17.17a.478.478,0,0,1,.479.479h0A.478.478,0,0,1-493.09-55.5Z" transform="translate(517.647 93.89)" fill="#b4daef"/>
      <path id="Path_219" data-name="Path 219" d="M-496.287-54.36H-509.9a.478.478,0,0,1-.477-.479h0a.478.478,0,0,1,.477-.477h13.61a.476.476,0,0,1,.477.477h0A.477.477,0,0,1-496.287-54.36Z" transform="translate(517.983 94.952)" fill="#b4daef"/>
      <path id="Path_220" data-name="Path 220" d="M-489.809-53.219h-19.715A.475.475,0,0,1-510-53.7h0a.475.475,0,0,1,.477-.477h19.715a.475.475,0,0,1,.477.477h0A.475.475,0,0,1-489.809-53.219Z" transform="translate(518.331 96.014)" fill="#b4daef"/>
      <path id="Path_221" data-name="Path 221" d="M-491.988-52.075h-17.17a.476.476,0,0,1-.477-.477h0a.477.477,0,0,1,.477-.478h17.17a.478.478,0,0,1,.479.478h0A.478.478,0,0,1-491.988-52.075Z" transform="translate(518.671 97.076)" fill="#b4daef"/>
      <path id="Path_222" data-name="Path 222" d="M-488.714-49.791h-19.715a.476.476,0,0,1-.477-.477h0a.475.475,0,0,1,.477-.477h19.715a.475.475,0,0,1,.477.477h0A.476.476,0,0,1-488.714-49.791Z" transform="translate(519.348 99.2)" fill="#b4daef"/>
      <path id="Path_223" data-name="Path 223" d="M-488.342-48.647h-19.715a.478.478,0,0,1-.477-.477h0a.478.478,0,0,1,.477-.478h19.715a.477.477,0,0,1,.477.478h0A.476.476,0,0,1-488.342-48.647Z" transform="translate(519.694 100.262)" fill="#b4daef"/>
      <path id="Path_224" data-name="Path 224" d="M-486.355-39.7h-6.367a1.363,1.363,0,0,1-1.3-.951l-5.308-16.8a1.36,1.36,0,0,1,1.3-1.769h6.369a1.361,1.361,0,0,1,1.3.949l5.31,16.8A1.362,1.362,0,0,1-486.355-39.7Z" transform="translate(528.189 91.317)" fill="#b4daef"/>
      <path id="Path_225" data-name="Path 225" d="M-465.485-44.327h-44.074a1.305,1.305,0,0,1-1.3-1.3h0a1.305,1.305,0,0,1,1.3-1.3h44.074a1.3,1.3,0,0,1,1.3,1.3h0A1.3,1.3,0,0,1-465.485-44.327Z" transform="translate(517.528 102.74)" fill="#fff"/>
      <g id="Group_221" data-name="Group 221" transform="translate(62.195 16.621)">
        <path id="Path_226" data-name="Path 226" d="M-479.508-60.308a1.109,1.109,0,0,1-.963-.556l-1.466-2.578a1.094,1.094,0,0,1-.1-.855,1.1,1.1,0,0,1,.544-.666l4.081-2.155a1.105,1.105,0,0,1,1.484.448l1.393,2.556a1.1,1.1,0,0,1,.089.839,1.1,1.1,0,0,1-.531.658l-4.007,2.176A1.106,1.106,0,0,1-479.508-60.308Zm2.609-6.429a.591.591,0,0,0-.276.069l-4.081,2.155a.592.592,0,0,0-.293.359.588.588,0,0,0,.054.459h0l1.466,2.58a.6.6,0,0,0,.8.228l4.007-2.176a.586.586,0,0,0,.286-.353.6.6,0,0,0-.048-.453l-1.393-2.556A.6.6,0,0,0-476.9-66.736Z" transform="translate(482.082 67.244)" fill="#282828"/>
      </g>
      <path id="Path_227" data-name="Path 227" d="M-484.413-47.3a7.88,7.88,0,0,1-.513.6,17.944,17.944,0,0,0-2.732-1.771,13.6,13.6,0,0,0-2.585.363c-.722.044-.783-.388-.783-.388s-2.757,1.15-3.2,1.258-.743-.041-.467-.743a2.934,2.934,0,0,1,.507-.693l.006-.006a19.108,19.108,0,0,1,3.577-3.1c.889-.421,2.1-1.036,3.072-.675a33.656,33.656,0,0,1,4.137,2.732A3.922,3.922,0,0,1-484.413-47.3Z" transform="translate(532.456 97.514)" fill="#ffd9ae"/>
      <path id="Path_228" data-name="Path 228" d="M-483.757-50.878l-.656,2.279a7.88,7.88,0,0,1-.513.6,17.944,17.944,0,0,0-2.732-1.771,13.6,13.6,0,0,0-2.585.363c-.722.044-.783-.388-.783-.388s-2.757,1.15-3.2,1.258-.743-.041-.467-.743a2.934,2.934,0,0,1,.507-.693c-.233.324-.492.656-.34,1.069.187.5,3.147-.909,5.287-2.2.033-.021.2-.106.264-.006.039.068-.085.2-.118.239-.357.382-2.149.517-1.787,1.088.511.8,2.352-.671,3.359-.34a10.364,10.364,0,0,1,2.269,1.25S-484.677-50.583-483.757-50.878Z" transform="translate(532.456 98.818)" fill="#ffc58c"/>
      <path id="Path_229" data-name="Path 229" d="M-489.852-44.259s10.482,9.169,18.326,10.1,21.073-13.948,21.073-13.948-.834-7.928-5.725-7-11.447,12.719-14.287,13.271-17.612-5.709-17.612-5.709a3.84,3.84,0,0,0-.913,1.125A9.8,9.8,0,0,0-489.852-44.259Z" transform="translate(537.056 95.079)" fill="#0076b4"/>
      <path id="Path_230" data-name="Path 230" d="M-461.7-71.305c-2.869-3.284-7.108-3.637-10.382-3.276a10.848,10.848,0,0,0-9.273,7.515,9.647,9.647,0,0,0,.195,6.19c2.67,7.378,5.468,12.084,8.077,13.483,1,.534,2.9.178,4.932-.536a.573.573,0,0,1,.7.268l.859,1.6,7.546-1.632A25.728,25.728,0,0,1-460.534-52C-459.436-53.385-456.449-65.3-461.7-71.305Z" transform="translate(544.569 76.94)" fill="#ffd9ae"/>
      <path id="Path_231" data-name="Path 231" d="M-475.69-59.7a2.158,2.158,0,0,1,2.192,1.287,15.272,15.272,0,0,0,2.331,4.214.766.766,0,0,0,.83.008.649.649,0,0,0,.38-.644,17.6,17.6,0,0,0-.872-2.938,1.98,1.98,0,0,1,1.486-2.742,3.343,3.343,0,0,1,1.227.075c2.232.677.695,4.175.65,6-.033,1.289,1.509,4.274,2.194,4.542a7.006,7.006,0,0,0,7.44-2.14c1.8-2.227,2.2-9.666,1.21-14.119s-4.548-6.963-5.725-7.249a4.158,4.158,0,0,0-1.4-.11,1.3,1.3,0,0,1-.984-.32c-1.185-1.032-4.729-3.39-10.336-.969a12.994,12.994,0,0,0-8.046,12.4c.083,1.9,1.576,1.762,2.612,1.43a1.728,1.728,0,0,1,1.644.355A4.189,4.189,0,0,0-475.69-59.7Z" transform="translate(543.312 75.859)" fill="#2c2c2c"/>
      <path id="Path_232" data-name="Path 232" d="M-473.8-57.2s-.648-.724-.4-1.167a10.577,10.577,0,0,1,7.484-3.031c.6.021,1.335.021,2.055,1.59a11.323,11.323,0,0,1,.891,2.609Z" transform="translate(551.545 89.292)" fill="#0076b4"/>
      <path id="Path_233" data-name="Path 233" d="M-453.027,5.134c-.235.056-.49.112-.754.164a65.478,65.478,0,0,1-8.619.681c-10.521-.189-15.839-9.991-17.548-12.916a10.96,10.96,0,0,1-.839-1.715c.6-.32,7.747-4.173,7.366-17.334-.079-2.726-.042-8.831-1.4-11.2-.747-1.3-2.96-3.944-4.349-6.726-1.14-2.29-1.731-4.677-.484-6.5a23.447,23.447,0,0,1,7.972-6.959s8.954-3.587,16.581-2.773c4.839.509,9.147,2.788,10.3,8.879C-441.838-35.581-453.027,5.134-453.027,5.134Z" transform="translate(545.482 90.352)" fill="#0084c9"/>
      <path id="Path_234" data-name="Path 234" d="M-470.5-36.909a26.019,26.019,0,0,1-9.452,22.493,10.96,10.96,0,0,1-.839-1.715c.6-.32,7.318-6.153,7.366-17.334.01-2.728-.042-8.831-1.4-11.2-.747-1.3-2.96-3.944-4.349-6.726l.59-.23,3.591-.594,1.821,1.484A69.425,69.425,0,0,1-470.5-36.909Z" transform="translate(545.482 97.831)" fill="#0076b4"/>
      <path id="Path_235" data-name="Path 235" d="M-465.4,5.076c-.235.056-.49.112-.754.164.671-3.537,4.924-25.742,6.307-33.8,2.732-15.9-.112-23.954-1.715-26.838-1.295-2.333-3.789-3.567-5.912-4.808,4.839.509,9.147,2.788,10.3,8.879C-454.211-35.639-465.4,5.076-465.4,5.076Z" transform="translate(557.855 90.41)" fill="#0076b4"/>
      <path id="Path_236" data-name="Path 236" d="M-490.989.28a6.986,6.986,0,0,1-2.5.48c-1.545,0-1.995-.577-1.995-.577V-3.34l5.09-.654Z" transform="translate(531.82 142.651)" fill="#ffd9ae"/>
      <path id="Path_237" data-name="Path 237" d="M-447.875-21.431c-.031,2.29-.639,5.945-4.071,6.975-5.121,1.536-8.9.664-14.841-.361-4.974-.855-18.071-3.674-20.477-4.588a.417.417,0,0,0-.56.473c1.137,5.551,2.043,7.949,2.78,16.278.617,7-2.07,26.805-2.07,26.805a14.01,14.01,0,0,1-1.694.394,6.983,6.983,0,0,1-.976.085,22.249,22.249,0,0,1-2.844-.239s-5.31-29.171-6.03-40.99.413-12.8,5.784-15.3,29.389-1.576,29.389-1.576l.006.006a18.316,18.316,0,0,0,5.4,7.239A22.769,22.769,0,0,0-447.875-21.431Z" transform="translate(528.694 115.092)" fill="#a0bed5"/>
      <g id="Group_222" data-name="Group 222" transform="translate(37.939 91.837)">
        <path id="Path_238" data-name="Path 238" d="M-455.085-27.357a5.46,5.46,0,0,1-3.683,4.075c-5.121,1.534-8.9.662-14.841-.363-4.972-.853-18.071-3.674-20.477-4.588a.418.418,0,0,0-.56.473c1.136,5.551,2.043,7.949,2.78,16.278.482,5.451.276,23.213.162,30.813.4-.1.691-.185.691-.185s2.688-19.807,2.07-26.805c-.737-8.329-1.644-10.728-2.78-16.278a.417.417,0,0,1,.56-.473c2.406.915,15.5,3.733,20.477,4.588,5.939,1.025,9.72,1.9,14.841.361,3.432-1.03,4.04-4.685,4.071-6.975A25.637,25.637,0,0,1-455.085-27.357Z" transform="translate(494.654 28.26)" fill="#4b5e7d" opacity="0.38"/>
      </g>
      <path id="Path_239" data-name="Path 239" d="M-489.836-2.084a8.1,8.1,0,0,0,2.528.525,6.074,6.074,0,0,0,2.487-.525s2.564,3.265,1.2,6.9a.5.5,0,0,1-.463.314h-17.189a.384.384,0,0,1-.388-.374,1.438,1.438,0,0,1,1.208-1.418c1.586-.484,3.222-.754,4.451-1.189s2.991-2.238,3.978-2.572A5.363,5.363,0,0,0-489.836-2.084Z" transform="translate(526.083 144.426)" fill="#0e1a26"/>
      <path id="Path_240" data-name="Path 240" d="M-493.36-44.429s-1.528-.4-2.321-.561a8.569,8.569,0,0,0-.849-.125,4.42,4.42,0,0,0-1.009.033l-8.219,1.136a.436.436,0,0,1-.488-.374.944.944,0,0,1,.318-.849l.8-.693,2.4-2.068a5.22,5.22,0,0,1,3.7-1.283,14.353,14.353,0,0,1,1.694.343c1.611.3,1.978.48,3.05.7a7.147,7.147,0,0,0,.9.143.85.85,0,0,0,.357-.014A4.974,4.974,0,0,1-493.36-44.429Z" transform="translate(521.811 100.622)" fill="#ffd9ae"/>
      <path id="Path_241" data-name="Path 241" d="M-486.905-44.606a.037.037,0,0,1-.048.014c-.21-.087-1.5-.615-2.194-.862-.259-.091-.5-.158-.712-.212a5.6,5.6,0,0,0-1.121-.133h-8.248a.466.466,0,0,1-.475-.455.94.94,0,0,1,.432-.781l.889-.575c-.841.641-.978,1.121-.556,1.173a10.59,10.59,0,0,0,3.16-.612c.046-.014.064.058.025.083a.453.453,0,0,0,.28.857c.341-.017,1.787-.108,2.12-.127,1.293-.073,3.178-.2,3.54-.129A6.2,6.2,0,0,1-488-45.74c.355.185.691-.218.82-.6a15.553,15.553,0,0,1,.727-1.81.815.815,0,0,0,.357.035A5,5,0,0,1-486.905-44.606Z" transform="translate(527.901 101.615)" fill="#f1f1f2"/>
      <path id="Path_242" data-name="Path 242" d="M-454.172-56.214c-1.086-.664-4.376-2.491-8.615,4.121s-7.631,11.573-9.116,12.464-5.13.253-6.444.253-20.554-1.5-20.554-1.5a13.606,13.606,0,0,0-1.082,3.7s17.631,4.623,28.559,4.665S-452.187-49-451.806-50.993-451.573-54.628-454.172-56.214Z" transform="translate(527.64 93.428)" fill="#0084c9"/>
      <g id="Group_223" data-name="Group 223" transform="translate(62.666 15.726)">
        <path id="Path_243" data-name="Path 243" d="M-481.585-61.619a.253.253,0,0,1-.226-.139.255.255,0,0,1,.11-.342l9.481-4.858c1.073-.55,3.268-1.675,4.9.716a.256.256,0,0,1-.068.355.255.255,0,0,1-.353-.068c-1.271-1.866-2.786-1.3-4.229-.56l-9.5,4.868A.256.256,0,0,1-481.585-61.619Z" transform="translate(481.838 67.708)" fill="#282828"/>
      </g>
      <path id="Path_244" data-name="Path 244" d="M-476.772-66.21l1.146,3.656a1.161,1.161,0,0,0,1.748-.127c.859-.988,1.605-4.42.031-4.991A2.067,2.067,0,0,0-476.772-66.21Z" transform="translate(549.213 83.292)" fill="#ffd9ae"/>
    </g>
    <g id="Group_227" data-name="Group 227" transform="translate(52.408 36.275)">
      <g id="Group_226" data-name="Group 226">
        <g id="Group_225" data-name="Group 225">
          <path id="Path_245" data-name="Path 245" d="M-424.032-23.3c0-18.466-.434-31.478-12.132-33.437-15.916-2.663-28.364,11.117-25.816,37.519,1.459,15.127-4.744,20.319-10.027,23.275-3.417,1.91-10.029,1.5-10.029,1.5s-3.062-.363-5.119-.558c1.273.587,28.523,14.015,47.965,4.094C-421.954.305-424.032-12.431-424.032-23.3Z" transform="translate(487.155 57.058)" fill="#e4f4f4"/>
        </g>
      </g>
    </g>
    <g id="Group_230" data-name="Group 230" transform="translate(52.408 36.382)">
      <g id="Group_229" data-name="Group 229">
        <g id="Group_228" data-name="Group 228">
          <path id="Path_246" data-name="Path 246" d="M-424.032-23.347c0-18.466-.434-31.478-12.132-33.437-.561-.095-1.119-.166-1.673-.218-12.752,1.262-21.106,14.691-18.881,37.745,1.461,15.129-4.744,20.321-10.027,23.275-3.415,1.91-10.027,1.5-10.027,1.5l-.44-.135a32.911,32.911,0,0,1-4.824.127s-3.062-.363-5.119-.558c1.273.587,28.523,14.015,47.965,4.094C-421.954.253-424.032-12.483-424.032-23.347Z" transform="translate(487.155 57.002)" fill="#c5d9da"/>
        </g>
      </g>
    </g>
  </g>
</svg>
