<svg xmlns="http://www.w3.org/2000/svg" width="207.605" height="158.257" viewBox="0 0 207.605 158.257">
  <g id="Group_278" data-name="Group 278" transform="translate(660.908 8.465)">
    <g id="Group_247" data-name="Group 247" transform="translate(-553.425 33.958)">
      <g id="Group_246" data-name="Group 246">
        <g id="Group_243" data-name="Group 243" transform="translate(0.068)">
          <path id="Path_290" data-name="Path 290" d="M-556.39,28.48-576.745,40.31-597.234,28.48l20.356-11.829Z" transform="translate(597.234 -16.651)" fill="#5abdee"/>
        </g>
        <g id="Group_244" data-name="Group 244" transform="translate(20.489 11.829)">
          <path id="Path_291" data-name="Path 291" d="M-564.721,23.654l-.068,24.01-20.356,11.829.068-24.01Z" transform="translate(585.145 -23.654)" fill="#0072a4"/>
        </g>
        <g id="Group_245" data-name="Group 245" transform="translate(0 11.829)">
          <path id="Path_292" data-name="Path 292" d="M-576.718,35.483l-.068,24.01-20.489-11.829.068-24.01Z" transform="translate(597.275 -23.654)" fill="#0084c9"/>
        </g>
      </g>
    </g>
    <g id="Group_252" data-name="Group 252" transform="translate(-607.312 -8.465)">
      <g id="Group_251" data-name="Group 251">
        <g id="Group_248" data-name="Group 248" transform="translate(0.068)">
          <path id="Path_293" data-name="Path 293" d="M-588.293,3.364l-20.356,11.829L-629.137,3.365l20.356-11.829Z" transform="translate(629.137 8.465)" fill="#5abdee"/>
        </g>
        <g id="Group_249" data-name="Group 249" transform="translate(20.489 11.829)">
          <path id="Path_294" data-name="Path 294" d="M-596.624-1.462l-.068,24.01-20.356,11.829.068-24.01Z" transform="translate(617.047 1.462)" fill="#0072a4"/>
        </g>
        <g id="Group_250" data-name="Group 250" transform="translate(0 11.829)">
          <path id="Path_295" data-name="Path 295" d="M-608.62,10.368l-.068,24.01-20.489-11.829.068-24.01Z" transform="translate(629.177 1.461)" fill="#0084c9"/>
        </g>
      </g>
    </g>
    <g id="Group_253" data-name="Group 253" transform="translate(-651.135 21.793)">
      <line id="Line_1" data-name="Line 1" y1="30.742" x2="54.91" stroke-width="1" stroke="#58c2d6" stroke-linecap="round" stroke-linejoin="round" fill="none"/>
    </g>
    <g id="Group_254" data-name="Group 254" transform="translate(-576.327 63.921)">
      <line id="Line_2" data-name="Line 2" y1="18.766" x2="33.594" stroke-width="1" stroke="#58c2d6" stroke-linecap="round" stroke-linejoin="round" fill="none"/>
    </g>
    <g id="Group_259" data-name="Group 259" transform="translate(-660.908 23.311)">
      <g id="Group_258" data-name="Group 258">
        <g id="Group_255" data-name="Group 255" transform="translate(0.068)">
          <path id="Path_296" data-name="Path 296" d="M-620.023,22.177l-20.356,11.829-20.489-11.829,20.356-11.829Z" transform="translate(660.868 -10.348)" fill="#5abdee"/>
        </g>
        <g id="Group_256" data-name="Group 256" transform="translate(20.489 11.829)">
          <path id="Path_297" data-name="Path 297" d="M-628.354,17.351l-.068,24.01-20.356,11.829.068-24.01Z" transform="translate(648.778 -17.351)" fill="#0072a4"/>
        </g>
        <g id="Group_257" data-name="Group 257" transform="translate(0 11.829)">
          <path id="Path_298" data-name="Path 298" d="M-640.351,29.18l-.068,24.01-20.489-11.829.068-24.01Z" transform="translate(660.908 -17.351)" fill="#0084c9"/>
        </g>
      </g>
    </g>
    <g id="Group_260" data-name="Group 260" transform="translate(-628.793 54.45)">
      <line id="Line_3" data-name="Line 3" x1="35.575" y1="22.325" stroke-width="1" stroke="#58c2d6" stroke-linecap="round" stroke-linejoin="round" fill="none"/>
    </g>
    <g id="Group_261" data-name="Group 261" transform="translate(-522.689 62.799)">
      <line id="Line_4" data-name="Line 4" x1="58.608" y1="35.434" stroke-width="1" stroke="#58c2d6" stroke-linecap="round" stroke-linejoin="round" fill="none"/>
    </g>
    <g id="Group_266" data-name="Group 266" transform="translate(-607.021 64.919)">
      <g id="Group_265" data-name="Group 265">
        <g id="Group_262" data-name="Group 262" transform="translate(0.068)">
          <path id="Path_299" data-name="Path 299" d="M-588.12,46.81l-20.356,11.829L-628.965,46.81l20.356-11.829Z" transform="translate(628.965 -34.98)" fill="#ffc56a"/>
        </g>
        <g id="Group_263" data-name="Group 263" transform="translate(20.489 11.829)">
          <path id="Path_300" data-name="Path 300" d="M-596.451,41.984l-.068,24.01-20.356,11.829.068-24.01Z" transform="translate(616.875 -41.984)" fill="#ffa400"/>
        </g>
        <g id="Group_264" data-name="Group 264" transform="translate(0 11.829)">
          <path id="Path_301" data-name="Path 301" d="M-608.448,53.813l-.068,24.01-20.489-11.829.068-24.01Z" transform="translate(629.005 -41.984)" fill="#ad631c"/>
        </g>
      </g>
    </g>
    <g id="Group_271" data-name="Group 271" transform="translate(-494.216 69.355)">
      <g id="Group_270" data-name="Group 270">
        <g id="Group_267" data-name="Group 267" transform="translate(0.068)">
          <path id="Path_302" data-name="Path 302" d="M-521.337,49.436l-20.356,11.829-20.489-11.829,20.356-11.829Z" transform="translate(562.181 -37.607)" fill="#5abdee"/>
        </g>
        <g id="Group_268" data-name="Group 268" transform="translate(20.489 11.829)">
          <path id="Path_303" data-name="Path 303" d="M-529.668,44.61l-.068,24.01L-550.091,80.45l.068-24.01Z" transform="translate(550.091 -44.61)" fill="#0072a4"/>
        </g>
        <g id="Group_269" data-name="Group 269" transform="translate(0 11.829)">
          <path id="Path_304" data-name="Path 304" d="M-541.664,56.44l-.068,24.01L-562.221,68.62l.068-24.01Z" transform="translate(562.221 -44.61)" fill="#0084c9"/>
        </g>
      </g>
    </g>
    <g id="Group_272" data-name="Group 272" transform="translate(-539.826 98.582)">
      <line id="Line_5" data-name="Line 5" y1="30.742" x2="54.91" stroke-width="1" stroke="#58c2d6" stroke-linecap="round" stroke-linejoin="round" fill="none"/>
    </g>
    <g id="Group_277" data-name="Group 277" transform="translate(-551.108 102.123)">
      <g id="Group_276" data-name="Group 276" transform="translate(0 0)">
        <g id="Group_273" data-name="Group 273" transform="translate(0.068)">
          <path id="Path_305" data-name="Path 305" d="M-555.019,68.836l-20.356,11.829-20.489-11.829,20.356-11.829Z" transform="translate(595.863 -57.007)" fill="#5abdee"/>
        </g>
        <g id="Group_274" data-name="Group 274" transform="translate(20.489 11.829)">
          <path id="Path_306" data-name="Path 306" d="M-563.35,64.01l-.068,24.01L-583.773,99.85l.068-24.01Z" transform="translate(583.773 -64.01)" fill="#0072a4"/>
        </g>
        <g id="Group_275" data-name="Group 275" transform="translate(0 11.829)">
          <path id="Path_307" data-name="Path 307" d="M-575.346,75.839l-.068,24.01L-595.9,88.02l.068-24.01Z" transform="translate(595.903 -64.01)" fill="#0084c9"/>
        </g>
      </g>
    </g>
  </g>
</svg>
