<svg xmlns="http://www.w3.org/2000/svg" xmlns:xlink="http://www.w3.org/1999/xlink" width="126.708" height="223.638" viewBox="0 0 126.708 223.638">
  <defs>
    <linearGradient id="linear-gradient" x1="0.5" y1="1" x2="0.5" gradientUnits="objectBoundingBox">
      <stop offset="0.091" stop-color="#5abeed" stop-opacity="0"/>
      <stop offset="1" stop-color="#5abeed"/>
    </linearGradient>
    <linearGradient id="linear-gradient-4" y1="0.5" x2="1" y2="0.5" gradientUnits="objectBoundingBox">
      <stop offset="0" stop-color="#e5e6e6"/>
      <stop offset="0.957" stop-color="#85aada"/>
    </linearGradient>
  </defs>
  <g id="Group_242" data-name="Group 242" transform="translate(521.104 74.136)">
    <g id="Group_236" data-name="Group 236" transform="translate(-511.272 102.232)">
      <path id="Path_247" data-name="Path 247" d="M-487.024,52.926h-29.632s6.631-18.481,6.631-28.553V5.656h16.37V24.771C-493.655,34.05-487.024,52.926-487.024,52.926Z" transform="translate(516.656 -5.656)" fill="url(#linear-gradient)"/>
      <path id="Path_248" data-name="Path 248" d="M-469.524,52.926h-29.632s6.631-18.481,6.631-28.553V5.656h16.37V24.771C-476.155,34.05-469.524,52.926-469.524,52.926Z" transform="translate(537.837 -5.656)" fill="url(#linear-gradient)"/>
      <path id="Path_249" data-name="Path 249" d="M-451.856,52.926H-481.49s6.631-18.481,6.631-28.553V5.656h16.372V24.771C-458.487,34.05-451.856,52.926-451.856,52.926Z" transform="translate(559.219 -5.656)" fill="url(#linear-gradient)"/>
    </g>
    <g id="Group_241" data-name="Group 241" transform="translate(-521.104 -74.136)">
      <g id="Group_237" data-name="Group 237" transform="translate(90.191 30.562)">
        <path id="Path_250" data-name="Path 250" d="M-474.566-60.061l-.928,7.88a.282.282,0,0,0,.281.314h1.857a.282.282,0,0,0,.281-.314l-.928-7.88A.283.283,0,0,0-474.566-60.061Z" transform="translate(486.115 60.31)" fill="#004181"/>
        <path id="Path_251" data-name="Path 251" d="M-456.864-36.662h-23.372c.011-1.412.02-2.248.042-2.416.219-2.206,1.755-5.718,4.838-12.314a11.168,11.168,0,0,1,3.607-4.7,6.24,6.24,0,0,1,4.485-.8c2.717.482,4.474,3.22,5.528,5.508,3.083,6.6,4.62,10.108,4.841,12.314C-456.875-38.91-456.875-38.074-456.864-36.662Z" transform="translate(480.377 64.308)" fill="#ffa400"/>
        <path id="Path_252" data-name="Path 252" d="M-456.8-16.3c0,28.14-.073,65.256-.095,76.409a3.306,3.306,0,0,1-3.313,3.3h-16.681a3.307,3.307,0,0,1-3.315-3.3c-.031-16.129-.155-86.548-.04-105.6,0-.889,0-1.662.009-2.31h23.383c0,.648.011,1.421.011,2.31.011,2.352.02,5.477.031,9.188C-456.8-30.734-456.792-23.835-456.8-16.3Z" transform="translate(480.305 75.448)" fill="#ffa400"/>
        <path id="Path_253" data-name="Path 253" d="M-456.871-45.492h-23.4c0-.889,0-1.662.009-2.31h23.383C-456.882-47.154-456.871-46.381-456.871-45.492Z" transform="translate(480.331 75.448)" fill="#004181"/>
        <path id="Path_254" data-name="Path 254" d="M-473.3-38.424v11.648a4.168,4.168,0,0,0,4.175,4.175h3.859V-29.1c0-2.962,0-5.784-.009-8.4.009-1.795,0-3.5,0-5.09h-3.85a4.005,4.005,0,0,0-1.09.148A4.165,4.165,0,0,0-473.3-38.424Z" transform="translate(488.769 81.745)" fill="#3eb2e0"/>
        <rect id="Rectangle_62" data-name="Rectangle 62" width="23.495" height="4.945" transform="translate(23.504 76) rotate(180)" fill="#004181"/>
        <rect id="Rectangle_63" data-name="Rectangle 63" width="16.558" height="3.59" transform="translate(20.036 142.451) rotate(180)" fill="#0084c9"/>
        <rect id="Rectangle_64" data-name="Rectangle 64" width="22.926" height="7.62" rx="1.724" transform="translate(23.28 149.898) rotate(-180)" fill="#003e7c"/>
        <path id="Path_255" data-name="Path 255" d="M-473.3-38.5v1.284l8.035,8.035c0-2.962,0-5.784-.009-8.4l-4.94-4.942A4.165,4.165,0,0,0-473.3-38.5Z" transform="translate(488.769 81.826)" fill="#5abdee"/>
        <path id="Path_256" data-name="Path 256" d="M-473.3-37.616v4.81a4.168,4.168,0,0,0,4.175,4.175h3.859v-.948Z" transform="translate(488.769 87.776)" fill="#5abdee"/>
        <path id="Path_257" data-name="Path 257" d="M-464.99-22.822l0,0h-3.862A3.68,3.68,0,0,1-472.53-26.5V-38.149a3.669,3.669,0,0,1,2.721-3.545,3.459,3.459,0,0,1,.955-.133H-465l.011,0v-.988l-.011-.007h-3.853a4.451,4.451,0,0,0-1.218.168,4.666,4.666,0,0,0-3.457,4.509V-26.5a4.681,4.681,0,0,0,4.675,4.675h3.864Z" transform="translate(488.495 81.471)" fill="#004181"/>
        <path id="Path_258" data-name="Path 258" d="M-480.3-29.507l.009,0h23.485v-1h-23.485l-.009,0Z" transform="translate(480.3 96.387)" fill="#004181"/>
      </g>
      <g id="Group_238" data-name="Group 238" transform="translate(12.897 30.562)">
        <path id="Path_259" data-name="Path 259" d="M-509.534-60.061l-.928,7.88a.28.28,0,0,0,.279.314h1.857a.281.281,0,0,0,.281-.314l-.928-7.88A.281.281,0,0,0-509.534-60.061Z" transform="translate(521.085 60.31)" fill="#004181"/>
        <path id="Path_260" data-name="Path 260" d="M-491.833-36.662H-515.2c.011-1.412.022-2.248.042-2.416.219-2.206,1.755-5.718,4.841-12.314a11.144,11.144,0,0,1,3.6-4.7,6.24,6.24,0,0,1,4.485-.8c2.716.482,4.474,3.22,5.528,5.508,3.086,6.6,4.622,10.108,4.841,12.314C-491.844-38.91-491.844-38.074-491.833-36.662Z" transform="translate(515.346 64.308)" fill="#ffa400"/>
        <path id="Path_261" data-name="Path 261" d="M-491.772-16.3c0,28.14-.073,65.256-.1,76.409a3.305,3.305,0,0,1-3.313,3.3h-16.681a3.305,3.305,0,0,1-3.313-3.3c-.031-16.129-.157-86.548-.042-105.6,0-.889,0-1.662.011-2.31h23.381c0,.648.011,1.421.011,2.31.011,2.352.022,5.477.031,9.188C-491.772-30.734-491.761-23.835-491.772-16.3Z" transform="translate(515.274 75.448)" fill="#ffa400"/>
        <path id="Path_262" data-name="Path 262" d="M-491.84-45.492h-23.4c0-.889,0-1.662.011-2.31h23.381C-491.851-47.154-491.84-46.381-491.84-45.492Z" transform="translate(515.301 75.448)" fill="#004181"/>
        <path id="Path_263" data-name="Path 263" d="M-508.272-38.424v11.648A4.168,4.168,0,0,0-504.1-22.6h3.861V-29.1c0-2.962,0-5.784-.009-8.4.009-1.795,0-3.5,0-5.09H-504.1a4,4,0,0,0-1.09.148A4.164,4.164,0,0,0-508.272-38.424Z" transform="translate(523.738 81.745)" fill="#3eb2e0"/>
        <rect id="Rectangle_65" data-name="Rectangle 65" width="23.495" height="4.945" transform="translate(23.505 76) rotate(180)" fill="#004181"/>
        <rect id="Rectangle_66" data-name="Rectangle 66" width="16.558" height="3.59" transform="translate(20.036 142.451) rotate(180)" fill="#0084c9"/>
        <rect id="Rectangle_67" data-name="Rectangle 67" width="22.926" height="7.62" rx="1.724" transform="translate(23.281 149.898) rotate(-180)" fill="#003e7c"/>
        <path id="Path_264" data-name="Path 264" d="M-508.272-38.5v1.284l8.037,8.035c0-2.962,0-5.784-.009-8.4l-4.942-4.942A4.164,4.164,0,0,0-508.272-38.5Z" transform="translate(523.738 81.826)" fill="#5abdee"/>
        <path id="Path_265" data-name="Path 265" d="M-508.272-37.616v4.81a4.168,4.168,0,0,0,4.175,4.175h3.861v-.948Z" transform="translate(523.738 87.776)" fill="#5abdee"/>
        <path id="Path_266" data-name="Path 266" d="M-499.96-22.822l0,0h-3.859A3.68,3.68,0,0,1-507.5-26.5V-38.149a3.668,3.668,0,0,1,2.723-3.545,3.446,3.446,0,0,1,.955-.133h3.85l.011,0v-.988l-.011-.007h-3.85a4.468,4.468,0,0,0-1.22.168,4.666,4.666,0,0,0-3.457,4.509V-26.5a4.681,4.681,0,0,0,4.677,4.675h3.861Z" transform="translate(523.464 81.471)" fill="#004181"/>
        <path id="Path_267" data-name="Path 267" d="M-515.269-29.507l.009,0h23.487v-1H-515.26l-.009,0Z" transform="translate(515.269 96.387)" fill="#004181"/>
      </g>
      <path id="Path_268" data-name="Path 268" d="M-490.126-64.1c-.113-.027-.228-.053-.342-.071a4.731,4.731,0,0,0-1.169-.115,10.593,10.593,0,0,0-1.512.212L-492-73.813a.362.362,0,0,1,.72,0Z" transform="translate(554.938 74.136)" fill="#004181"/>
      <path id="Path_269" data-name="Path 269" d="M-458.576,75.829H-502.1s-.88-38.243,0-39.123c.29-.29.2-1.249.228-1.6.08-1.2.124-2.392.159-3.587.08-2.8.062-5.6.027-8.4-.018-1.512-.035-3.024-.044-4.536-.044-8.8-.15-17.592-.239-26.394q-.063-6.9-.1-13.784c-.009-2.12.009-4.248-.027-6.366a37.883,37.883,0,0,1,1.169-8.362q.789-3.81,1.828-7.57c.475-1.686.986-3.393,1.556-5.079a54.108,54.108,0,0,1,4.783-10.647q.859-1.452,1.846-2.8a19.057,19.057,0,0,1,7.385-6.49,9.632,9.632,0,0,1,1.68-.553,10.6,10.6,0,0,1,1.512-.212,4.731,4.731,0,0,1,1.169.115c.115.018.23.044.343.071a13.284,13.284,0,0,1,5.663,3.236,26.917,26.917,0,0,1,5.011,6.207A49.28,49.28,0,0,1-464.96-53.7q.988,2.334,1.8,4.73c.791,2.285,1.479,4.606,2.084,6.945a62.583,62.583,0,0,1,2.489,15.693c.027,9.213-.124,18.436-.212,27.649-.088,8.141-.183,16.275-.166,24.415,0,2.6.009,5.2.086,7.807.027.632-.21,2.655.3,3.165C-457.7,37.585-458.576,75.829-458.576,75.829Z" transform="translate(543.637 79.528)" fill="#0084c9"/>
      <path id="Path_270" data-name="Path 270" d="M-491.106-52.494c-.066-.015-.133-.031-.2-.042a2.716,2.716,0,0,0-.681-.066,6.3,6.3,0,0,0-.877.122l.667-5.663a.211.211,0,0,1,.42,0Z" transform="translate(555.285 93.266)" fill="#003e7c"/>
      <rect id="Rectangle_68" data-name="Rectangle 68" width="16.192" height="3.934" transform="translate(55.351 167.797)" fill="#ffa400"/>
      <path id="Path_271" data-name="Path 271" d="M-475.989,10.151h-18.879a3.3,3.3,0,0,1-3.3-3.3h0a3.3,3.3,0,0,1,3.3-3.3h18.879a3.3,3.3,0,0,1,3.3,3.3h0A3.3,3.3,0,0,1-475.989,10.151Z" transform="translate(548.868 168.173)" fill="url(#linear-gradient-4)"/>
      <path id="Path_272" data-name="Path 272" d="M-475.989,10.151h-18.879a3.3,3.3,0,0,1-3.3-3.3h0a3.3,3.3,0,0,1,3.3-3.3h18.879a3.3,3.3,0,0,1,3.3,3.3h0A3.3,3.3,0,0,1-475.989,10.151Z" transform="translate(548.868 168.173)" fill="#003e7c"/>
      <path id="Path_273" data-name="Path 273" d="M-473.478-60.048l-.044-.027c-12.862-7.9-23.175-.608-24.431.351l-.018.018a.819.819,0,0,0-.115.088q.859-1.452,1.846-2.8a19.056,19.056,0,0,1,7.385-6.49,9.625,9.625,0,0,1,1.68-.553,10.6,10.6,0,0,1,1.512-.212,4.731,4.731,0,0,1,1.169.115c.115.018.23.044.343.071a13.284,13.284,0,0,1,5.663,3.236A26.915,26.915,0,0,1-473.478-60.048Z" transform="translate(548.964 79.528)" fill="#004181"/>
      <path id="Path_274" data-name="Path 274" d="M-487.17-20.8c1.461,3.5,1.169,1.176,10.234,9.986-.077-2.8-.062-5.6-.027-8.4-7.323-10.884-8.786-15.5-8.786-15.5S-488.638-24.308-487.17-20.8Z" transform="translate(561.672 121.858)" fill="#040505" opacity="0.2"/>
      <path id="Path_275" data-name="Path 275" d="M-480.3-24.16c0,5.3.009,10.63.018,15.8.738,1.969,1.609,2.173,5.311,6.744,4.976,6.154,12.307,8.061,14.126,9.381a3.288,3.288,0,0,0,3.974-.237c0-3.28.009-6.744.009-10.331C-468.778-9.7-479.874-23.623-480.3-24.16Z" transform="translate(570.496 134.625)" fill="#040505" opacity="0.2"/>
      <path id="Path_276" data-name="Path 276" d="M-491.9-20.8c-1.459,3.5-1.169,1.176-10.234,9.986.08-2.8.062-5.6.027-8.4,7.325-10.884,8.786-15.5,8.786-15.5S-490.435-24.308-491.9-20.8Z" transform="translate(544.061 121.858)" fill="#040505" opacity="0.2"/>
      <path id="Path_277" data-name="Path 277" d="M-491.814-24.16c0,5.3-.009,10.63-.018,15.8-.738,1.969-1.609,2.173-5.309,6.744-4.978,6.154-12.309,8.061-14.128,9.381a3.289,3.289,0,0,1-3.974-.237c0-3.28-.009-6.744-.009-10.331C-503.329-9.7-492.236-23.623-491.814-24.16Z" transform="translate(528.187 134.625)" fill="#040505" opacity="0.2"/>
      <path id="Path_278" data-name="Path 278" d="M-470.4-31.693l-.254,67.037h-44.795a5.38,5.38,0,0,1-1.766-.29A5.641,5.641,0,0,1-521.1,29.69V20.433a5.652,5.652,0,0,1,3.121-5.046c.254-.133.511-.254.765-.4C-485.577-1.221-470.4-31.693-470.4-31.693Z" transform="translate(521.104 125.507)" fill="#004181"/>
      <path id="Path_279" data-name="Path 279" d="M-517.218-10.572V9.491A5.641,5.641,0,0,1-521.1,4.127V-5.13a5.652,5.652,0,0,1,3.121-5.046C-517.729-10.309-517.472-10.431-517.218-10.572Z" transform="translate(521.104 151.071)" fill="#004181"/>
      <path id="Path_280" data-name="Path 280" d="M-486.774-31.693s15.541,30.967,47.7,47.082a5.647,5.647,0,0,1,3.123,5.044v9.261a5.652,5.652,0,0,1-5.652,5.65h-45.175Z" transform="translate(562.655 125.507)" fill="#004181"/>
      <path id="Path_281" data-name="Path 281" d="M-465.537-10.565V9.5a5.639,5.639,0,0,0,3.886-5.364V-5.123a5.652,5.652,0,0,0-3.121-5.046C-465.029-10.3-465.283-10.424-465.537-10.565Z" transform="translate(588.359 151.079)" fill="#004181"/>
      <g id="Group_240" data-name="Group 240" transform="translate(50.425 39.788)">
        <path id="Path_282" data-name="Path 282" d="M-472.563,66.124a5.876,5.876,0,0,1-5.882,5.838h-13.943a5.328,5.328,0,0,1-.537-.027c-.174-.018-.36-.044-.535-.08a5.744,5.744,0,0,1-3.156-1.7,5.816,5.816,0,0,1-1.547-3.017,4.8,4.8,0,0,1-.106-1.019c-.027-3.351-.027-8.256-.009-13.945.044-21.381.29-53.813.272-56.373q-.027-3.982-.069-7.973l-.027-2.312q-.014-2.626-.044-5.25c-.027-2.708-.053-5.406-.062-8.114-.009-1.249,0-2.5-.018-3.747a21.1,21.1,0,0,1,.632-4.686c.31-1.441.634-2.882,1.03-4.308q.288-1.054.615-2.109l.009-.009a30.386,30.386,0,0,1,4.3-9.18A11.178,11.178,0,0,1-487.3-55.7a5.266,5.266,0,0,1,1.477-.4,3.811,3.811,0,0,1,1.1.027,7.532,7.532,0,0,1,3.535,1.943,20.567,20.567,0,0,1,4.827,7.394c.563,1.32,1.046,2.672,1.477,4.045.44,1.4.818,2.812,1.16,4.237a40.152,40.152,0,0,1,1.118,9.275c0,4.9-.08,9.812-.133,14.71v.122c-.009.729-.018,1.461-.026,2.19-.035,4.06-.08,8.123-.071,12.186,0,1.2.239,31.491.281,52.16C-472.537,57.8-472.537,62.713-472.563,66.124Z" transform="translate(498.291 56.135)" fill="#fff"/>
        <path id="Path_283" data-name="Path 283" d="M-472.815-34.977h-25.364l-.027-2.312h25.372C-472.824-36.639-472.815-35.866-472.815-34.977Z" transform="translate(498.394 78.946)" fill="#ffa400"/>
        <rect id="Rectangle_69" data-name="Rectangle 69" width="25.458" height="4.945" transform="translate(0.142 75.346)" fill="#ffa400"/>
        <rect id="Rectangle_70" data-name="Rectangle 70" width="25.547" height="4.945" transform="translate(0.155 83.552)" fill="#ffa400"/>
        <path id="Path_284" data-name="Path 284" d="M-476.171-42.7v.009a20.465,20.465,0,0,0-21.056-.009,30.378,30.378,0,0,1,4.3-9.18,11.178,11.178,0,0,1,4.343-3.824,5.267,5.267,0,0,1,1.477-.4,3.812,3.812,0,0,1,1.1.027,7.532,7.532,0,0,1,3.534,1.943,20.566,20.566,0,0,1,4.827,7.394C-477.084-45.425-476.6-44.073-476.171-42.7Z" transform="translate(499.578 56.135)" fill="#004181"/>
        <path id="Path_285" data-name="Path 285" d="M-472.563,7.02a5.876,5.876,0,0,1-5.882,5.838h-13.943a5.329,5.329,0,0,1-.537-.027c-.174-.018-.36-.044-.535-.077a6.433,6.433,0,0,1-3.156-1.7,5.809,5.809,0,0,1-1.547-3.015,4.836,4.836,0,0,1-.106-1.021c-.027-3.349-.027-8.256-.009-13.943h25.724C-472.537-1.307-472.537,3.609-472.563,7.02Z" transform="translate(498.291 115.699)" fill="#0084c9"/>
        <g id="Group_239" data-name="Group 239" transform="translate(4.796 22.871)">
          <path id="Path_286" data-name="Path 286" d="M-480.738-41.229v3.464c-.239-.166-.493-.307-.747-.449-.511-.281-1.039-.535-1.565-.765a13.21,13.21,0,0,0-1.706-.57,9.278,9.278,0,0,0-1.326-.272,15.3,15.3,0,0,0-2.014-.088h-.413a14.672,14.672,0,0,0-2.471.157c-.254.044-.5.1-.747.159a13.813,13.813,0,0,0-2.725,1.019c-.133.062-.263.133-.4.2-.228.115-.449.236-.668.369-.035.018-.378.186-.378.237v-3.517a.883.883,0,0,1,.482-.791l3.773-1.854,3.322-1.636.035.018,2.681,1.32,4.326,2.126.018.009A.965.965,0,0,1-480.738-41.229Z" transform="translate(496.396 46.061)" fill="#3eb2e0"/>
          <path id="Path_287" data-name="Path 287" d="M-488.854-45.545l-3.446,5.952a13.81,13.81,0,0,0-2.725,1.019c-.133.062-.263.133-.4.2l3.209-5.557,3.322-1.636Z" transform="translate(496.968 46.061)" fill="#5abdee"/>
          <path id="Path_288" data-name="Path 288" d="M-485.527-42.823l-1.793,3.112a13.212,13.212,0,0,0-1.706-.57,9.277,9.277,0,0,0-1.326-.272,15.3,15.3,0,0,0-2.014-.088l2.5-4.317,4.326,2.126Z" transform="translate(500.666 46.793)" fill="#5abdee"/>
          <path id="Path_289" data-name="Path 289" d="M-480.463-36.993a.5.5,0,0,1-.287-.091,7.732,7.732,0,0,0-.7-.42c-.5-.274-1.01-.519-1.523-.743a12.541,12.541,0,0,0-1.633-.548,9.6,9.6,0,0,0-1.26-.259,14.972,14.972,0,0,0-1.954-.084h-.413a14.306,14.306,0,0,0-2.387.15c-.241.042-.475.093-.71.15a13.328,13.328,0,0,0-2.626.984c-.135.064-.259.128-.38.195-.23.115-.44.232-.648.356-.051.029-.179.088-.259.137a.523.523,0,0,1-.878-.327v-3.514a1.376,1.376,0,0,1,.76-1.24l7.1-3.49a.5.5,0,0,1,.438,0l7.044,3.466.015.007.009,0a1.458,1.458,0,0,1,.791,1.306v3.464a.5.5,0,0,1-.27.444A.5.5,0,0,1-480.463-36.993Zm-7.772-3.143h.413a15.747,15.747,0,0,1,2.078.093,10.488,10.488,0,0,1,1.39.283,13.529,13.529,0,0,1,1.768.595c.579.25,1.121.515,1.616.789l.007,0v-2.582a.466.466,0,0,0-.248-.418l-.007,0,0,0-6.823-3.355-6.874,3.382a.377.377,0,0,0-.2.345v2.633c.1-.057.212-.115.323-.17.128-.069.267-.144.407-.208a14.232,14.232,0,0,1,2.816-1.052c.259-.064.517-.119.785-.166A14.932,14.932,0,0,1-488.234-40.136Z" transform="translate(496.121 45.788)" fill="#004181"/>
        </g>
      </g>
    </g>
  </g>
</svg>
