<svg xmlns="http://www.w3.org/2000/svg" width="697.736" height="483.707" viewBox="0 0 697.736 483.707">
  <g id="Profession" transform="translate(-119.332 -118.083)">
    <path id="Path_583" data-name="Path 583" d="M240.232,258.394l30.556-17.641a12.02,12.02,0,0,1,10.878,0L366,289.446c3,1.735,3,4.546,0,6.281l-30.554,17.641a12.023,12.023,0,0,1-10.88,0l-84.337-48.692C237.23,262.94,237.23,260.129,240.232,258.394Z" transform="translate(84.125 86.055)" fill="#173d7a" opacity="0.5"/>
    <path id="Path_584" data-name="Path 584" d="M272.16,239.567l30.554-17.641a12.023,12.023,0,0,1,10.88,0l84.336,48.692c3,1.735,3,4.546,0,6.281L367.375,294.54a12.02,12.02,0,0,1-10.878,0L272.16,245.848C269.155,244.113,269.155,241.3,272.16,239.567Z" transform="translate(106.762 72.706)" fill="#173d7a" opacity="0.5"/>
    <path id="Path_585" data-name="Path 585" d="M193.671,411.408l98.726-56.3c3.611-2.083,3.158-5.725-1.012-8.132l-56.8-32.8c-4.168-2.408-10.475-2.668-14.086-.585l-98.726,56.3c-3.609,2.083-3.158,5.725,1.012,8.132l56.8,32.8C183.754,413.23,190.06,413.492,193.671,411.408Z" transform="translate(0 137.631)" fill="#173d7a" opacity="0.5"/>
    <g id="Group_392" data-name="Group 392" transform="translate(321.477 153.059)">
      <g id="Group_386" data-name="Group 386" transform="translate(52.45)">
        <g id="Group_382" data-name="Group 382" transform="translate(0 127)">
          <path id="Path_586" data-name="Path 586" d="M272.287,223.111c-5.313,3.068-5.313,8.06,0,11.128l90.332,52.154a5.854,5.854,0,0,0,5.291,0c1.461-.844,1.461-2.211,0-3.056l-90.332-52.153c-2.4-1.384-2.4-3.635,0-5.019l8.754-5.054c-.972-1.463-1.856-2.986-2.719-4.539Z" transform="translate(-268.302 -210.226)" fill="#d4ecff"/>
          <path id="Path_587" data-name="Path 587" d="M393.873,267.314l-90.332-52.153c-5.313-3.069-13.961-3.069-19.274,0l-7.005,4.045c.863,1.553,1.747,3.076,2.719,4.539l9.577-5.529a9.616,9.616,0,0,1,8.692,0l90.333,52.153a5.843,5.843,0,0,0,5.291,0C395.334,269.525,395.334,268.156,393.873,267.314Z" transform="translate(-261.95 -212.859)" fill="#5793ce"/>
        </g>
        <path id="Path_588" data-name="Path 588" d="M399.461,320.632l.009-127.021L304.808,140.84l-13.238-.873-12.8,8.292-7.856,6.837,92.231,146.258L393.256,319.1Z" transform="translate(-266.452 -137.542)" fill="#5793ce"/>
        <path id="Path_589" data-name="Path 589" d="M326.007,312.772,354.3,296.437V173.677l-29.168,13.558Z" transform="translate(-228.007 -113.64)" fill="#79b1e0"/>
        <path id="Path_590" data-name="Path 590" d="M268.3,149.395V276.209l99.376,56.842,1.326-.531v-127Z" transform="translate(-268.301 -130.857)" fill="#d4ecff"/>
        <g id="Group_383" data-name="Group 383" transform="translate(7.849 7.455)">
          <path id="Path_591" data-name="Path 591" d="M320.939,155.042l-19.75-11.348a9.7,9.7,0,0,0-8.173.244l-18.331,10.582c-1.42.82-1.991,1.945-1.73,3.013l49.907,29.821,40.085,24.607,28.392-16.47Z" transform="translate(-272.895 -142.91)" fill="#fff"/>
        </g>
        <path id="Path_592" data-name="Path 592" d="M325.134,181.069V312.188a5.328,5.328,0,0,0,2.482-.622,1.871,1.871,0,0,0,1.09-1.5l.005,0v-127Z" transform="translate(-228.007 -108.399)" fill="#5793ce"/>
        <path id="Path_593" data-name="Path 593" d="M346.408,172.939v-1.584h-.5l-.154,1.076Z" transform="translate(-213.39 -115.287)" fill="#fff"/>
        <path id="Path_594" data-name="Path 594" d="M327.428,183.871v-1.623l-.488.689Z" transform="translate(-226.726 -107.563)" fill="#fff"/>
        <g id="Group_384" data-name="Group 384">
          <path id="Path_595" data-name="Path 595" d="M362.62,214.714l-90.332-52.153c-5.313-3.069-5.313-8.061,0-11.129l18.331-10.582c5.313-3.069,13.961-3.069,19.274,0L400.225,193c1.461.843,1.461,2.212,0,3.054a5.843,5.843,0,0,1-5.291,0L304.6,143.9a9.615,9.615,0,0,0-8.692,0l-18.331,10.582c-2.4,1.384-2.4,3.635,0,5.019l90.332,52.153c1.461.844,1.461,2.211,0,3.056A5.854,5.854,0,0,1,362.62,214.714Z" transform="translate(-268.302 -138.548)" fill="#d4ecff"/>
        </g>
        <path id="Path_596" data-name="Path 596" d="M329.19,249.061l-46.941-27.1V174.9L329.19,202Z" transform="translate(-258.414 -112.772)" fill="#fff"/>
        <g id="Group_385" data-name="Group 385" transform="translate(0.005 4.318)">
          <path id="Path_597" data-name="Path 597" d="M397.12,194.265a5.843,5.843,0,0,1-5.291,0L301.5,142.113a9.615,9.615,0,0,0-8.692,0L274.473,152.7c-1.569.908-2.1,2.184-1.618,3.346a3.646,3.646,0,0,1,1.618-1.673L292.8,143.786a9.616,9.616,0,0,1,8.692,0l90.333,52.153a5.843,5.843,0,0,0,5.291,0c1.108-.639,1.371-1.579.8-2.364A2.531,2.531,0,0,1,397.12,194.265Z" transform="translate(-265.202 -141.074)" fill="#fff"/>
          <path id="Path_598" data-name="Path 598" d="M367.909,206.714a5.854,5.854,0,0,1-5.291,0l-90.332-52.153c-2.288-1.323-3.586-3-3.9-4.729-.419,2.285.878,4.654,3.9,6.4l90.332,52.155a5.854,5.854,0,0,0,5.291,0c1.107-.639,1.371-1.579.8-2.365A2.537,2.537,0,0,1,367.909,206.714Z" transform="translate(-268.305 -134.865)" fill="#fff"/>
        </g>
      </g>
      <g id="Group_391" data-name="Group 391" transform="translate(0 32.533)">
        <g id="Group_387" data-name="Group 387" transform="translate(0 127)">
          <path id="Path_599" data-name="Path 599" d="M241.6,242.147c-5.315,3.068-5.315,8.06,0,11.127l90.331,52.155a5.855,5.855,0,0,0,5.291,0c1.461-.844,1.461-2.211,0-3.056L246.89,250.22c-2.4-1.384-2.4-3.635,0-5.019l8.752-5.054c-.972-1.463-1.854-2.986-2.717-4.539Z" transform="translate(-237.613 -229.262)" fill="#f5b010"/>
          <path id="Path_600" data-name="Path 600" d="M363.182,286.35,272.852,234.2c-5.315-3.069-13.961-3.069-19.276,0l-7,4.045c.863,1.554,1.745,3.076,2.717,4.539l9.577-5.529a9.619,9.619,0,0,1,8.694,0L357.891,289.4a5.844,5.844,0,0,0,5.291,0C364.644,288.561,364.644,287.193,363.182,286.35Z" transform="translate(-231.26 -231.895)" fill="#d3008d"/>
        </g>
        <path id="Path_601" data-name="Path 601" d="M368.772,339.668l.009-127.021-94.663-52.771L260.88,159l-12.8,8.292-7.856,6.837,92.231,146.259,30.113,17.748Z" transform="translate(-235.762 -156.578)" fill="#d89701"/>
        <path id="Path_602" data-name="Path 602" d="M295.317,331.808l28.295-16.335V192.713l-29.168,13.558Z" transform="translate(-197.317 -132.676)" fill="#ffeabb"/>
        <path id="Path_603" data-name="Path 603" d="M237.614,168.431V295.245l99.376,56.842,1.326-.531v-127Z" transform="translate(-237.611 -149.893)" fill="#f5b010"/>
        <g id="Group_388" data-name="Group 388" transform="translate(7.85 7.455)">
          <path id="Path_604" data-name="Path 604" d="M290.25,174.078,270.5,162.73a9.7,9.7,0,0,0-8.174.244L244,173.559c-1.418.819-1.991,1.943-1.728,3.011l49.905,29.821L332.26,231l28.39-16.47Z" transform="translate(-242.206 -161.946)" fill="#fff"/>
        </g>
        <path id="Path_605" data-name="Path 605" d="M294.445,200.1V331.223a5.322,5.322,0,0,0,2.48-.622,1.87,1.87,0,0,0,1.092-1.5l0,0v-127Z" transform="translate(-197.317 -127.435)" fill="#d89701"/>
        <path id="Path_606" data-name="Path 606" d="M315.719,191.975v-1.584h-.5l-.154,1.076Z" transform="translate(-182.7 -134.323)" fill="#fff"/>
        <path id="Path_607" data-name="Path 607" d="M296.738,202.907v-1.623l-.488.689Z" transform="translate(-196.036 -126.599)" fill="#fff"/>
        <g id="Group_389" data-name="Group 389">
          <path id="Path_608" data-name="Path 608" d="M331.93,233.75,241.6,181.6c-5.315-3.069-5.315-8.061,0-11.129l18.329-10.582c5.315-3.069,13.961-3.069,19.276,0l90.331,52.153c1.461.843,1.461,2.211,0,3.054a5.844,5.844,0,0,1-5.291,0L273.913,162.94a9.619,9.619,0,0,0-8.694,0L246.89,173.522c-2.4,1.384-2.4,3.635,0,5.019l90.331,52.153c1.461.844,1.461,2.211,0,3.056A5.854,5.854,0,0,1,331.93,233.75Z" transform="translate(-237.613 -157.584)" fill="#f5b010"/>
        </g>
        <path id="Path_609" data-name="Path 609" d="M298.5,268.1,251.559,241V193.939l46.941,27.1Z" transform="translate(-227.724 -131.808)" fill="#fff"/>
        <g id="Group_390" data-name="Group 390" transform="translate(0.006 4.318)">
          <path id="Path_610" data-name="Path 610" d="M366.429,213.3a5.843,5.843,0,0,1-5.291,0l-90.331-52.153a9.619,9.619,0,0,0-8.694,0l-18.329,10.582c-1.571.907-2.1,2.184-1.618,3.346a3.637,3.637,0,0,1,1.618-1.673l18.329-10.582a9.619,9.619,0,0,1,8.694,0l90.331,52.153a5.843,5.843,0,0,0,5.291,0c1.107-.639,1.372-1.579.8-2.364A2.541,2.541,0,0,1,366.429,213.3Z" transform="translate(-234.513 -160.111)" fill="#fff"/>
          <path id="Path_611" data-name="Path 611" d="M337.218,225.75a5.854,5.854,0,0,1-5.291,0L241.6,173.6c-2.29-1.323-3.586-3-3.9-4.729-.42,2.285.877,4.654,3.9,6.4l90.331,52.154a5.854,5.854,0,0,0,5.291,0c1.107-.639,1.372-1.579.8-2.364A2.584,2.584,0,0,1,337.218,225.75Z" transform="translate(-237.616 -153.901)" fill="#fff"/>
        </g>
      </g>
    </g>
    <g id="Group_396" data-name="Group 396" transform="translate(389.228 172.863)">
      <path id="Path_612" data-name="Path 612" d="M481.571,485.158l-195.894-113.1c-5.542-3.2-4.847-8.79,1.552-12.483l133.39-76.988c6.4-3.693,16.078-4.095,21.621-.9l195.9,113.1c5.541,3.2,4.845,8.788-1.554,12.483l-133.39,76.987C496.794,487.956,487.114,488.357,481.571,485.158Z" transform="translate(-273.937 -58.391)" fill="#173d7a" opacity="0.5"/>
      <path id="Path_613" data-name="Path 613" d="M625.285,269.529,420.683,151.4a8.263,8.263,0,0,0-6.934-.849l.014-.021-.373.14-.091.034-7.393,2.828,6.636,3.251c-.029.121-.068.236-.1.361l-33.326,151.7c-1.668,7.592,1.673,16.456,7.46,19.8L586.262,443.927l-.713,8.461,8.082-3.133c2.714-1.27,4.888-4.141,5.787-8.231l33.326-151.7C634.413,281.733,631.073,272.87,625.285,269.529Z" transform="translate(-205.334 -150.136)" fill="#173d7a"/>
      <path id="Path_614" data-name="Path 614" d="M620.392,269.529,415.791,151.4a8.263,8.263,0,0,0-6.934-.849l.014-.021-.373.14-.091.034-7.393,2.828,6.636,3.251c-.029.121-.068.236-.1.361l-21.963,99.978L485.7,335.118l141.156-57.437A15.879,15.879,0,0,0,620.392,269.529Z" transform="translate(-200.442 -150.136)" fill="#396caa"/>
      <path id="Path_615" data-name="Path 615" d="M524.85,242.861l15.574-6.631c.287-6.031-2.21-12.264-6.31-15.595l-24.653,10.37Z" transform="translate(-112.614 -100.151)" fill="#274f89"/>
      <path id="Path_616" data-name="Path 616" d="M583.728,450.4l-204.6-118.126c-5.787-3.341-9.128-12.2-7.46-19.8l33.326-151.7c1.668-7.591,7.713-11.037,13.5-7.7l204.6,118.128c5.789,3.341,9.128,12.2,7.46,19.8l-33.326,151.7C595.561,450.3,589.516,453.743,583.728,450.4Z" transform="translate(-210.62 -148.953)" fill="#d4ecff"/>
      <path id="Path_617" data-name="Path 617" d="M607.981,270.782l-204.6-118.126a8.088,8.088,0,0,0-8.056-.35,8.408,8.408,0,0,1,6.091,1.07L606.016,271.5c5.789,3.343,9.128,12.206,7.46,19.8L580.149,443c-.86,3.914-2.892,6.7-5.443,8.046,3.454-.755,6.337-3.888,7.409-8.764l33.326-151.7C617.109,282.987,613.768,274.123,607.981,270.782Z" transform="translate(-193.542 -149.244)" fill="#fff"/>
      <path id="Path_618" data-name="Path 618" d="M575.8,434.5,383.379,323.458c-5.3-3.057-8.354-11.168-6.828-18.114l30.5-138.818c1.526-6.947,7.058-10.1,12.355-7.043L611.826,270.526c5.3,3.057,8.354,11.169,6.828,18.114l-30.5,138.818C586.629,434.4,581.1,437.558,575.8,434.5Z" transform="translate(-207.13 -144.337)" fill="#fff"/>
      <path id="Path_619" data-name="Path 619" d="M575.8,434.5,383.379,323.458c-5.3-3.057-8.354-11.168-6.828-18.114l30.5-138.818c1.526-6.947,7.058-10.1,12.355-7.043L611.826,270.526c5.3,3.057,8.354,11.169,6.828,18.114l-30.5,138.818C586.629,434.4,581.1,437.558,575.8,434.5Z" transform="translate(-207.13 -144.337)" fill="#173d7a"/>
      <path id="Path_620" data-name="Path 620" d="M577.481,433.725,385.056,322.685c-5.3-3.057-8.354-11.169-6.828-18.114l30.5-138.819c.773-3.516,2.574-6.048,4.849-7.306-3.051.784-5.572,3.644-6.527,7.99l-30.5,138.816c-1.526,6.947,1.53,15.058,6.828,18.116L575.8,434.409a7.4,7.4,0,0,0,7.5.265A7.662,7.662,0,0,1,577.481,433.725Z" transform="translate(-207.13 -144.245)" fill="#5793ce"/>
      <path id="Path_621" data-name="Path 621" d="M653.185,375.244l-27.966-3.693L444.68,267.317c-5.787-3.341-15.9-2.922-22.58.936L294.173,342.085l-16.912-2.234v9.6l.017,0c-.111,2.218,1.152,4.351,3.883,5.927L485.762,473.5c5.788,3.341,15.9,2.922,22.581-.937L647.662,392.16c3.76-2.17,5.633-4.968,5.523-7.595h0Z" transform="translate(-277.252 -68.651)" fill="#173d7a"/>
      <path id="Path_622" data-name="Path 622" d="M517.536,294.067,504.71,286.66H363.693l-69.52,40.111-16.912-2.234v9.6l.017,0c-.111,2.218,1.152,4.351,3.883,5.927l204.6,118.128c3.059,1.765,7.325,2.471,11.654,2.184Z" transform="translate(-277.252 -53.337)" fill="#396caa"/>
      <path id="Path_623" data-name="Path 623" d="M284.766,309.814l-7.506-.991v9.6l.017,0c-.111,2.218,1.152,4.351,3.883,5.927l3.606,2.083Z" transform="translate(-277.252 -37.623)" fill="#5793ce"/>
      <path id="Path_624" data-name="Path 624" d="M400.466,396.961c5.484,2.08,13.329,1.627,19.185-1.191v-21.4H400.466Z" transform="translate(-189.896 8.849)" fill="#274f89"/>
      <path id="Path_625" data-name="Path 625" d="M485.765,470.519l-204.6-118.127c-5.788-3.343-5.062-9.179,1.622-13.038L422.1,258.946c6.682-3.859,16.793-4.278,22.58-.937l204.6,118.126c5.789,3.343,5.062,9.179-1.62,13.038L508.346,469.583C501.662,473.442,491.553,473.86,485.765,470.519Z" transform="translate(-277.256 -75.25)" fill="#d4ecff"/>
      <path id="Path_626" data-name="Path 626" d="M647.66,348.664,508.341,429.072c-6.684,3.859-16.793,4.278-22.581.937l-204.6-118.126a7.624,7.624,0,0,1-3.6-3.936c-.9,2.738.25,5.506,3.6,7.441l204.6,118.126c5.788,3.341,15.9,2.922,22.581-.937L647.66,352.169c4.491-2.594,6.279-6.079,5.219-9.1C652.219,345.061,650.475,347.038,647.66,348.664Z" transform="translate(-277.251 -38.244)" fill="#fff"/>
      <g id="Group_393" data-name="Group 393" transform="translate(81.169 187.779)">
        <path id="Path_627" data-name="Path 627" d="M334.509,295.116l-9.258-5.344c-.743-.429-.649-1.179.209-1.675l10.926-6.308a3.225,3.225,0,0,1,2.9-.121l9.258,5.346c.743.429.649,1.177-.209,1.673L337.407,295A3.22,3.22,0,0,1,334.509,295.116Z" transform="translate(-324.749 -244.86)" fill="#5793ce"/>
        <path id="Path_628" data-name="Path 628" d="M342.874,299.947l-9.258-5.346c-.743-.429-.649-1.178.208-1.673l10.926-6.31a3.224,3.224,0,0,1,2.9-.12l9.258,5.344c.743.429.649,1.179-.208,1.675l-10.926,6.308A3.225,3.225,0,0,1,342.874,299.947Z" transform="translate(-318.818 -241.436)" fill="#5793ce"/>
        <path id="Path_629" data-name="Path 629" d="M351.239,304.775l-9.258-5.344c-.743-.429-.649-1.179.208-1.675l10.928-6.308a3.215,3.215,0,0,1,2.9-.12l9.258,5.344c.743.429.649,1.179-.209,1.675l-10.926,6.308A3.224,3.224,0,0,1,351.239,304.775Z" transform="translate(-312.887 -238.011)" fill="#5793ce"/>
        <path id="Path_630" data-name="Path 630" d="M362.808,300.367l-9.258-5.346c-.742-.429-.649-1.177.208-1.673l9.172-5.3a3.225,3.225,0,0,1,2.9-.12l9.258,5.344c.743.429.649,1.179-.209,1.675l-9.172,5.295A3.224,3.224,0,0,1,362.808,300.367Z" transform="translate(-304.684 -240.419)" fill="#5793ce"/>
        <path id="Path_631" data-name="Path 631" d="M371.173,305.2l-9.256-5.344c-.743-.429-.651-1.179.207-1.675l9.174-5.295a3.221,3.221,0,0,1,2.9-.121l9.258,5.346c.743.429.651,1.177-.209,1.673l-9.172,5.3A3.224,3.224,0,0,1,371.173,305.2Z" transform="translate(-298.753 -236.995)" fill="#5793ce"/>
        <path id="Path_632" data-name="Path 632" d="M379.538,310.026l-9.256-5.344c-.743-.429-.651-1.179.207-1.675l9.174-5.3a3.221,3.221,0,0,1,2.9-.12l9.258,5.344c.743.429.651,1.179-.208,1.675l-9.172,5.3A3.224,3.224,0,0,1,379.538,310.026Z" transform="translate(-292.822 -233.571)" fill="#5793ce"/>
        <path id="Path_633" data-name="Path 633" d="M387.9,314.855l-9.258-5.344c-.743-.429-.651-1.178.209-1.675l9.172-5.295a3.221,3.221,0,0,1,2.9-.121l9.258,5.346c.743.429.651,1.179-.208,1.673l-9.172,5.3A3.215,3.215,0,0,1,387.9,314.855Z" transform="translate(-286.891 -230.146)" fill="#5793ce"/>
        <path id="Path_634" data-name="Path 634" d="M396.269,319.685l-9.258-5.344c-.743-.429-.649-1.179.208-1.675l9.172-5.3a3.224,3.224,0,0,1,2.9-.12l9.256,5.344c.743.429.651,1.179-.207,1.675l-9.174,5.3A3.22,3.22,0,0,1,396.269,319.685Z" transform="translate(-280.96 -226.722)" fill="#5793ce"/>
        <path id="Path_635" data-name="Path 635" d="M404.634,324.515l-9.258-5.346c-.743-.429-.649-1.177.208-1.673l9.172-5.3a3.223,3.223,0,0,1,2.9-.12l9.256,5.344c.743.429.651,1.179-.207,1.675l-9.172,5.295A3.225,3.225,0,0,1,404.634,324.515Z" transform="translate(-275.029 -223.297)" fill="#5793ce"/>
        <path id="Path_636" data-name="Path 636" d="M413,329.344,403.741,324c-.743-.429-.649-1.179.209-1.675l9.172-5.295a3.224,3.224,0,0,1,2.9-.121l9.258,5.346c.742.429.649,1.178-.209,1.673l-9.172,5.3A3.224,3.224,0,0,1,413,329.344Z" transform="translate(-269.098 -219.873)" fill="#5793ce"/>
        <path id="Path_637" data-name="Path 637" d="M421.364,334.174l-9.258-5.344c-.743-.431-.649-1.179.208-1.675l9.172-5.3a3.224,3.224,0,0,1,2.9-.12l9.258,5.344c.743.429.649,1.179-.208,1.675l-9.172,5.3A3.229,3.229,0,0,1,421.364,334.174Z" transform="translate(-263.167 -216.449)" fill="#5793ce"/>
        <path id="Path_638" data-name="Path 638" d="M429.729,339l-9.258-5.346c-.743-.429-.65-1.179.208-1.673l9.172-5.3a3.224,3.224,0,0,1,2.9-.121l9.258,5.346c.743.429.649,1.178-.209,1.673l-9.172,5.3A3.224,3.224,0,0,1,429.729,339Z" transform="translate(-257.236 -213.025)" fill="#5793ce"/>
        <path id="Path_639" data-name="Path 639" d="M438.094,343.833l-9.258-5.344c-.743-.429-.649-1.179.208-1.675l9.172-5.3a3.224,3.224,0,0,1,2.9-.12l9.258,5.344c.743.429.649,1.179-.208,1.675l-9.172,5.3A3.224,3.224,0,0,1,438.094,343.833Z" transform="translate(-251.305 -209.6)" fill="#5793ce"/>
        <path id="Path_640" data-name="Path 640" d="M375.134,298.08l-9.258-5.344c-.743-.429-.649-1.179.209-1.675l9.172-5.3a3.229,3.229,0,0,1,2.9-.12l9.256,5.346c.743.429.651,1.178-.207,1.673l-9.174,5.3A3.22,3.22,0,0,1,375.134,298.08Z" transform="translate(-295.945 -242.04)" fill="#5793ce"/>
        <path id="Path_641" data-name="Path 641" d="M366.644,293.18l-9.258-5.346c-.743-.429-.649-1.177.208-1.675l9.172-5.295a3.224,3.224,0,0,1,2.9-.121l9.256,5.346c.743.429.651,1.179-.207,1.673l-9.174,5.3A3.221,3.221,0,0,1,366.644,293.18Z" transform="translate(-301.965 -245.516)" fill="#5793ce"/>
        <path id="Path_642" data-name="Path 642" d="M362.571,290.828l-19.937-11.512c-.743-.429-.651-1.178.207-1.673l9.172-5.3a3.219,3.219,0,0,1,2.9-.12l19.939,11.51c.743.429.649,1.179-.208,1.675l-9.172,5.3A3.224,3.224,0,0,1,362.571,290.828Z" transform="translate(-312.425 -251.555)" fill="#5793ce"/>
        <path id="Path_643" data-name="Path 643" d="M366.956,283.956l-16.181-9.342c-.742-.429-.649-1.179.209-1.675l9.172-5.295a3.224,3.224,0,0,1,2.9-.121l16.181,9.342c.743.429.649,1.179-.209,1.675l-9.172,5.3A3.224,3.224,0,0,1,366.956,283.956Z" transform="translate(-306.652 -254.889)" fill="#5793ce"/>
        <path id="Path_644" data-name="Path 644" d="M383.5,302.91l-9.258-5.346c-.743-.429-.649-1.177.209-1.673l9.172-5.3a3.224,3.224,0,0,1,2.9-.12l9.258,5.344c.742.429.649,1.179-.208,1.675l-9.172,5.295A3.225,3.225,0,0,1,383.5,302.91Z" transform="translate(-290.014 -238.616)" fill="#5793ce"/>
        <path id="Path_645" data-name="Path 645" d="M391.864,307.739l-9.258-5.344c-.743-.429-.65-1.179.208-1.675l9.172-5.295a3.224,3.224,0,0,1,2.9-.121l9.258,5.346c.743.429.65,1.177-.208,1.673l-9.172,5.3A3.224,3.224,0,0,1,391.864,307.739Z" transform="translate(-284.083 -235.192)" fill="#5793ce"/>
        <path id="Path_646" data-name="Path 646" d="M400.229,312.569l-9.258-5.344c-.743-.429-.65-1.179.209-1.675l9.172-5.3a3.224,3.224,0,0,1,2.9-.12l9.258,5.344c.743.429.649,1.179-.209,1.675l-9.172,5.3A3.224,3.224,0,0,1,400.229,312.569Z" transform="translate(-278.152 -231.767)" fill="#5793ce"/>
        <path id="Path_647" data-name="Path 647" d="M408.594,317.4l-9.258-5.346c-.743-.429-.649-1.178.209-1.673l9.172-5.3a3.219,3.219,0,0,1,2.9-.12l9.258,5.344c.743.429.65,1.179-.208,1.675l-9.172,5.295A3.224,3.224,0,0,1,408.594,317.4Z" transform="translate(-272.221 -228.343)" fill="#5793ce"/>
        <path id="Path_648" data-name="Path 648" d="M416.959,322.228l-9.256-5.344c-.743-.429-.651-1.179.207-1.675l9.172-5.295a3.225,3.225,0,0,1,2.9-.121l9.258,5.344c.743.431.649,1.179-.209,1.675l-9.172,5.3A3.224,3.224,0,0,1,416.959,322.228Z" transform="translate(-266.289 -224.919)" fill="#5793ce"/>
        <path id="Path_649" data-name="Path 649" d="M425.323,327.058l-9.256-5.346c-.743-.429-.651-1.177.207-1.673l9.172-5.3a3.224,3.224,0,0,1,2.9-.12l9.258,5.344c.743.429.649,1.179-.209,1.675l-9.172,5.3A3.229,3.229,0,0,1,425.323,327.058Z" transform="translate(-260.359 -221.494)" fill="#5793ce"/>
        <path id="Path_650" data-name="Path 650" d="M433.689,331.887l-9.256-5.344c-.743-.429-.651-1.179.207-1.675l9.174-5.295a3.221,3.221,0,0,1,2.9-.121l9.258,5.346c.743.429.651,1.178-.208,1.673l-9.172,5.3A3.224,3.224,0,0,1,433.689,331.887Z" transform="translate(-254.428 -218.07)" fill="#5793ce"/>
        <path id="Path_651" data-name="Path 651" d="M442.053,336.717l-9.256-5.344c-.743-.431-.651-1.179.208-1.675l9.172-5.3a3.221,3.221,0,0,1,2.9-.12l9.258,5.344c.743.429.651,1.179-.208,1.675l-9.172,5.3A3.224,3.224,0,0,1,442.053,336.717Z" transform="translate(-248.496 -214.646)" fill="#5793ce"/>
        <path id="Path_652" data-name="Path 652" d="M450.42,341.548l-9.258-5.346c-.743-.429-.649-1.179.208-1.673l9.172-5.3a3.219,3.219,0,0,1,2.9-.12l9.256,5.344c.744.429.651,1.179-.207,1.675l-9.174,5.295A3.221,3.221,0,0,1,450.42,341.548Z" transform="translate(-242.565 -211.221)" fill="#5793ce"/>
        <path id="Path_653" data-name="Path 653" d="M469.83,352.754l-20.2-11.662c-.743-.429-.649-1.179.208-1.675l9.172-5.295a3.224,3.224,0,0,1,2.9-.121l20.2,11.662c.743.429.649,1.179-.208,1.673l-9.172,5.3A3.225,3.225,0,0,1,469.83,352.754Z" transform="translate(-236.56 -207.754)" fill="#5793ce"/>
        <path id="Path_654" data-name="Path 654" d="M484.809,342.6l-17.049-9.842c-.743-.431-.649-1.179.209-1.675l9.172-5.3a3.224,3.224,0,0,1,2.9-.12l17.048,9.842c.743.429.651,1.179-.207,1.675l-9.172,5.3A3.224,3.224,0,0,1,484.809,342.6Z" transform="translate(-223.706 -213.667)" fill="#5793ce"/>
        <path id="Path_655" data-name="Path 655" d="M398.148,301.965l-9.258-5.346c-.743-.429-.649-1.178.209-1.673l9.172-5.3a3.224,3.224,0,0,1,2.9-.12l9.258,5.344c.743.429.649,1.179-.209,1.675l-9.172,5.295A3.219,3.219,0,0,1,398.148,301.965Z" transform="translate(-279.628 -239.286)" fill="#5793ce"/>
        <path id="Path_656" data-name="Path 656" d="M389.575,297.015l-9.258-5.344c-.743-.429-.65-1.179.208-1.675l9.172-5.3a3.224,3.224,0,0,1,2.9-.12l9.256,5.344c.743.431.651,1.179-.207,1.675l-9.174,5.3A3.22,3.22,0,0,1,389.575,297.015Z" transform="translate(-285.706 -242.796)" fill="#5793ce"/>
        <path id="Path_657" data-name="Path 657" d="M381,292.065l-9.256-5.344c-.743-.429-.651-1.179.208-1.675l9.172-5.295a3.221,3.221,0,0,1,2.9-.121l9.258,5.346c.743.429.651,1.177-.208,1.673l-9.172,5.3A3.224,3.224,0,0,1,381,292.065Z" transform="translate(-291.785 -246.305)" fill="#5793ce"/>
        <path id="Path_658" data-name="Path 658" d="M372.427,287.116l-9.256-5.346c-.743-.429-.651-1.178.207-1.673l9.172-5.3a3.219,3.219,0,0,1,2.9-.12l9.258,5.344c.743.429.649,1.179-.208,1.675L375.328,287A3.224,3.224,0,0,1,372.427,287.116Z" transform="translate(-297.863 -249.815)" fill="#5793ce"/>
        <path id="Path_659" data-name="Path 659" d="M406.513,306.794l-9.258-5.344c-.743-.429-.649-1.179.209-1.675l9.172-5.295a3.224,3.224,0,0,1,2.9-.121l9.258,5.346c.743.429.649,1.177-.209,1.673l-9.172,5.3A3.219,3.219,0,0,1,406.513,306.794Z" transform="translate(-273.697 -235.862)" fill="#5793ce"/>
        <path id="Path_660" data-name="Path 660" d="M414.878,311.624l-9.258-5.344c-.744-.429-.649-1.179.208-1.675l9.172-5.3a3.224,3.224,0,0,1,2.9-.12l9.258,5.344c.743.429.649,1.179-.209,1.675l-9.172,5.3A3.224,3.224,0,0,1,414.878,311.624Z" transform="translate(-267.765 -232.437)" fill="#5793ce"/>
        <path id="Path_661" data-name="Path 661" d="M423.243,316.454l-9.256-5.346c-.745-.429-.651-1.178.207-1.673l9.172-5.3a3.219,3.219,0,0,1,2.9-.12l9.258,5.344c.743.429.649,1.179-.208,1.675l-9.172,5.295A3.224,3.224,0,0,1,423.243,316.454Z" transform="translate(-261.834 -229.013)" fill="#5793ce"/>
        <path id="Path_662" data-name="Path 662" d="M431.608,321.283l-9.256-5.344c-.743-.429-.651-1.179.207-1.675l9.172-5.295a3.224,3.224,0,0,1,2.9-.121l9.258,5.346c.743.429.649,1.178-.209,1.673l-9.172,5.3A3.224,3.224,0,0,1,431.608,321.283Z" transform="translate(-255.903 -225.589)" fill="#5793ce"/>
        <path id="Path_663" data-name="Path 663" d="M439.973,326.113l-9.256-5.344c-.743-.431-.651-1.179.207-1.675l9.174-5.3a3.22,3.22,0,0,1,2.9-.12l9.258,5.344c.743.429.649,1.179-.208,1.675l-9.172,5.3A3.224,3.224,0,0,1,439.973,326.113Z" transform="translate(-249.972 -222.164)" fill="#5793ce"/>
        <path id="Path_664" data-name="Path 664" d="M448.337,330.942l-9.256-5.344c-.743-.429-.651-1.179.209-1.675l9.172-5.295a3.221,3.221,0,0,1,2.9-.121l9.258,5.346c.743.429.651,1.177-.208,1.673l-9.172,5.3A3.219,3.219,0,0,1,448.337,330.942Z" transform="translate(-244.041 -218.74)" fill="#5793ce"/>
        <path id="Path_665" data-name="Path 665" d="M456.7,335.772l-9.258-5.344c-.743-.429-.649-1.179.208-1.675l9.172-5.3a3.224,3.224,0,0,1,2.9-.12l9.256,5.344c.743.429.651,1.179-.207,1.675l-9.174,5.3A3.22,3.22,0,0,1,456.7,335.772Z" transform="translate(-238.11 -215.316)" fill="#5793ce"/>
        <path id="Path_666" data-name="Path 666" d="M465.069,340.6l-9.258-5.346c-.743-.429-.649-1.178.209-1.673l9.172-5.3a3.224,3.224,0,0,1,2.9-.12l9.258,5.344c.742.429.649,1.179-.208,1.675l-9.172,5.295A3.225,3.225,0,0,1,465.069,340.6Z" transform="translate(-232.178 -211.891)" fill="#5793ce"/>
        <path id="Path_667" data-name="Path 667" d="M473.434,345.431l-9.258-5.344c-.743-.429-.649-1.179.208-1.675l9.172-5.295a3.224,3.224,0,0,1,2.9-.121l9.258,5.346c.742.429.649,1.177-.209,1.673l-9.172,5.3A3.224,3.224,0,0,1,473.434,345.431Z" transform="translate(-226.247 -208.467)" fill="#5793ce"/>
        <path id="Path_668" data-name="Path 668" d="M393.743,290.019l-9.258-5.344c-.743-.429-.649-1.179.209-1.675l9.172-5.3a3.23,3.23,0,0,1,2.9-.12l9.258,5.344c.743.431.649,1.179-.209,1.675l-9.172,5.3A3.224,3.224,0,0,1,393.743,290.019Z" transform="translate(-282.751 -247.756)" fill="#5793ce"/>
        <path id="Path_669" data-name="Path 669" d="M385.42,285.214l-9.258-5.346c-.743-.429-.649-1.177.208-1.673l9.172-5.3a3.219,3.219,0,0,1,2.9-.12l9.256,5.344c.743.429.651,1.179-.207,1.675l-9.174,5.294A3.221,3.221,0,0,1,385.42,285.214Z" transform="translate(-288.652 -251.163)" fill="#5793ce"/>
        <path id="Path_670" data-name="Path 670" d="M377.1,280.408l-9.258-5.344c-.743-.429-.649-1.179.209-1.675l9.172-5.3a3.224,3.224,0,0,1,2.9-.12l9.258,5.344c.743.429.649,1.179-.209,1.675l-9.172,5.3A3.224,3.224,0,0,1,377.1,280.408Z" transform="translate(-294.554 -254.571)" fill="#5793ce"/>
        <path id="Path_671" data-name="Path 671" d="M368.773,275.6l-9.258-5.344c-.743-.429-.649-1.179.209-1.675l9.172-5.295a3.224,3.224,0,0,1,2.9-.121l9.256,5.346c.743.429.651,1.178-.207,1.673l-9.172,5.3A3.219,3.219,0,0,1,368.773,275.6Z" transform="translate(-300.455 -257.978)" fill="#5793ce"/>
        <path id="Path_672" data-name="Path 672" d="M377.332,269.19l-9.258-5.346c-.743-.429-.649-1.177.209-1.673l3.032-1.752a3.23,3.23,0,0,1,2.9-.12l9.258,5.344c.742.431.649,1.179-.209,1.675l-3.032,1.752A3.224,3.224,0,0,1,377.332,269.19Z" transform="translate(-294.387 -260.011)" fill="#5793ce"/>
        <path id="Path_673" data-name="Path 673" d="M388.194,275.461l-9.258-5.344c-.743-.429-.65-1.179.208-1.675l3.032-1.75a3.224,3.224,0,0,1,2.9-.121l9.258,5.346c.743.429.649,1.177-.209,1.673l-3.032,1.752A3.224,3.224,0,0,1,388.194,275.461Z" transform="translate(-286.685 -255.564)" fill="#5793ce"/>
        <path id="Path_674" data-name="Path 674" d="M396.483,280.248l-9.258-5.346c-.743-.429-.649-1.177.208-1.673l3.032-1.752a3.224,3.224,0,0,1,2.9-.12l9.258,5.344c.742.429.649,1.179-.208,1.675l-3.034,1.75A3.221,3.221,0,0,1,396.483,280.248Z" transform="translate(-280.808 -252.171)" fill="#5793ce"/>
        <path id="Path_675" data-name="Path 675" d="M404.77,285.032l-9.256-5.344c-.743-.429-.651-1.179.209-1.675l3.032-1.75a3.225,3.225,0,0,1,2.9-.121l9.256,5.346c.743.429.651,1.179-.207,1.675l-3.034,1.75A3.224,3.224,0,0,1,404.77,285.032Z" transform="translate(-274.931 -248.778)" fill="#5793ce"/>
        <path id="Path_676" data-name="Path 676" d="M413.059,289.819l-9.256-5.346c-.743-.429-.651-1.178.207-1.673l3.034-1.752a3.22,3.22,0,0,1,2.9-.12l9.258,5.344c.743.429.651,1.179-.208,1.675L415.96,289.7A3.23,3.23,0,0,1,413.059,289.819Z" transform="translate(-269.054 -245.385)" fill="#5793ce"/>
        <path id="Path_677" data-name="Path 677" d="M459.336,316.536l-9.258-5.346c-.743-.429-.651-1.178.208-1.673l3.032-1.752a3.224,3.224,0,0,1,2.9-.12l9.256,5.344c.743.431.651,1.179-.208,1.675l-3.032,1.75A3.22,3.22,0,0,1,459.336,316.536Z" transform="translate(-236.244 -226.442)" fill="#5793ce"/>
        <path id="Path_678" data-name="Path 678" d="M467.624,321.32l-9.258-5.344c-.742-.429-.649-1.179.209-1.675l3.034-1.75a3.215,3.215,0,0,1,2.9-.12l9.258,5.344c.743.429.649,1.179-.209,1.675l-3.032,1.75A3.224,3.224,0,0,1,467.624,321.32Z" transform="translate(-230.367 -223.049)" fill="#5793ce"/>
        <path id="Path_679" data-name="Path 679" d="M475.913,326.107l-9.258-5.344c-.743-.431-.649-1.179.209-1.675l3.032-1.752a3.224,3.224,0,0,1,2.9-.12l9.258,5.346c.743.429.649,1.178-.209,1.673l-3.032,1.752A3.229,3.229,0,0,1,475.913,326.107Z" transform="translate(-224.49 -219.656)" fill="#5793ce"/>
        <path id="Path_680" data-name="Path 680" d="M484.2,330.891l-9.258-5.344c-.743-.429-.65-1.179.208-1.675l3.032-1.75a3.224,3.224,0,0,1,2.9-.12l9.258,5.344c.743.429.65,1.179-.208,1.675l-3.032,1.75A3.219,3.219,0,0,1,484.2,330.891Z" transform="translate(-218.613 -216.262)" fill="#5793ce"/>
        <path id="Path_681" data-name="Path 681" d="M402.108,294.849,392.85,289.5c-.742-.429-.649-1.177.209-1.673l9.172-5.3a3.224,3.224,0,0,1,2.9-.12l9.258,5.344c.743.429.65,1.179-.208,1.675l-9.172,5.295A3.224,3.224,0,0,1,402.108,294.849Z" transform="translate(-276.82 -244.331)" fill="#5793ce"/>
        <path id="Path_682" data-name="Path 682" d="M410.473,299.678l-9.256-5.344c-.743-.429-.651-1.179.207-1.675l9.172-5.295a3.225,3.225,0,0,1,2.9-.121l9.258,5.346c.744.429.65,1.178-.208,1.673l-9.172,5.3A3.224,3.224,0,0,1,410.473,299.678Z" transform="translate(-270.888 -240.907)" fill="#5793ce"/>
        <path id="Path_683" data-name="Path 683" d="M418.837,304.508l-9.256-5.344c-.743-.429-.651-1.179.209-1.675l9.172-5.3a3.22,3.22,0,0,1,2.9-.12l9.258,5.344c.743.429.651,1.179-.209,1.675l-9.172,5.3A3.224,3.224,0,0,1,418.837,304.508Z" transform="translate(-264.957 -237.483)" fill="#5793ce"/>
        <path id="Path_684" data-name="Path 684" d="M427.2,309.339l-9.258-5.346c-.743-.429-.651-1.178.208-1.675l9.172-5.295a3.224,3.224,0,0,1,2.9-.121l9.256,5.346c.743.429.651,1.179-.208,1.673l-9.172,5.3A3.221,3.221,0,0,1,427.2,309.339Z" transform="translate(-259.026 -234.059)" fill="#5793ce"/>
        <path id="Path_685" data-name="Path 685" d="M435.569,314.167l-9.258-5.344c-.743-.429-.649-1.179.208-1.675l9.172-5.3a3.224,3.224,0,0,1,2.9-.12l9.256,5.344c.743.431.651,1.179-.207,1.675l-9.172,5.3A3.224,3.224,0,0,1,435.569,314.167Z" transform="translate(-253.095 -230.634)" fill="#5793ce"/>
        <path id="Path_686" data-name="Path 686" d="M443.934,319l-9.258-5.346c-.743-.429-.649-1.178.209-1.673l9.172-5.3a3.224,3.224,0,0,1,2.9-.12l9.256,5.344c.743.429.651,1.179-.207,1.675l-9.172,5.294A3.224,3.224,0,0,1,443.934,319Z" transform="translate(-247.164 -227.21)" fill="#5793ce"/>
        <path id="Path_687" data-name="Path 687" d="M452.3,323.826l-9.258-5.344c-.743-.429-.65-1.179.208-1.675l9.172-5.295a3.224,3.224,0,0,1,2.9-.121l9.258,5.346c.742.429.649,1.178-.209,1.673l-9.172,5.3A3.224,3.224,0,0,1,452.3,323.826Z" transform="translate(-241.233 -223.786)" fill="#5793ce"/>
        <path id="Path_688" data-name="Path 688" d="M460.664,328.656l-9.258-5.344c-.743-.431-.649-1.179.208-1.675l9.172-5.3a3.224,3.224,0,0,1,2.9-.12l9.258,5.344c.743.429.65,1.179-.208,1.675l-9.172,5.3A3.224,3.224,0,0,1,460.664,328.656Z" transform="translate(-235.302 -220.361)" fill="#5793ce"/>
        <path id="Path_689" data-name="Path 689" d="M469.029,333.487l-9.258-5.346c-.743-.429-.649-1.179.209-1.673l9.172-5.3a3.225,3.225,0,0,1,2.9-.121l9.258,5.346c.743.429.649,1.179-.208,1.673l-9.172,5.3A3.224,3.224,0,0,1,469.029,333.487Z" transform="translate(-229.371 -216.937)" fill="#5793ce"/>
        <path id="Path_690" data-name="Path 690" d="M361.754,299.758l-27.264-15.74c-.743-.431-.651-1.179.209-1.675l9.172-5.3a3.221,3.221,0,0,1,2.9-.12l27.264,15.74c.743.429.651,1.179-.209,1.675l-9.172,5.3A3.221,3.221,0,0,1,361.754,299.758Z" transform="translate(-318.199 -248.222)" fill="#5793ce"/>
        <path id="Path_691" data-name="Path 691" d="M464.521,359.091l-27.264-15.742c-.743-.429-.649-1.177.208-1.673l9.172-5.3a3.224,3.224,0,0,1,2.9-.12L476.8,352c.743.429.649,1.179-.208,1.675l-9.172,5.3A3.229,3.229,0,0,1,464.521,359.091Z" transform="translate(-245.334 -206.153)" fill="#5793ce"/>
        <path id="Path_692" data-name="Path 692" d="M423.6,346.553l-9.258-5.346c-.743-.429-.649-1.177.208-1.673l10.926-6.31a3.224,3.224,0,0,1,2.9-.12l9.258,5.344c.743.429.649,1.179-.208,1.675L426.5,346.431A3.221,3.221,0,0,1,423.6,346.553Z" transform="translate(-261.583 -208.391)" fill="#5793ce"/>
        <path id="Path_693" data-name="Path 693" d="M365.151,312.808l-14.805-8.549c-.743-.429-.649-1.178.209-1.673l10.927-6.31a3.224,3.224,0,0,1,2.9-.12l14.8,8.549c.743.429.651,1.177-.207,1.673l-10.928,6.31A3.224,3.224,0,0,1,365.151,312.808Z" transform="translate(-306.956 -234.587)" fill="#5793ce"/>
        <path id="Path_694" data-name="Path 694" d="M417.84,343.227l-14.805-8.547c-.743-.429-.651-1.179.208-1.675l10.926-6.308a3.224,3.224,0,0,1,2.9-.121l14.805,8.549c.743.429.651,1.179-.208,1.675l-10.926,6.308A3.224,3.224,0,0,1,417.84,343.227Z" transform="translate(-269.599 -213.019)" fill="#5793ce"/>
        <path id="Path_695" data-name="Path 695" d="M377.22,319.776l-14.805-8.549c-.743-.429-.649-1.178.208-1.673l10.928-6.31a3.229,3.229,0,0,1,2.9-.12l14.805,8.548c.742.429.649,1.178-.209,1.673l-10.928,6.31A3.224,3.224,0,0,1,377.22,319.776Z" transform="translate(-298.399 -229.646)" fill="#5793ce"/>
        <path id="Path_696" data-name="Path 696" d="M376.3,303.039,440.669,340.2a.881.881,0,0,1,0,1.67l-11.143,6.434a3.194,3.194,0,0,1-2.892,0l-64.369-37.165Z" transform="translate(-298.149 -229.502)" fill="#5793ce"/>
        <path id="Path_697" data-name="Path 697" d="M446.01,349.708l10.311,5.954c.61.352.533.966-.169,1.372l-4.471,2.581a2.645,2.645,0,0,1-2.377.1l-10.311-5.953c-.61-.352-.533-.966.171-1.372l4.469-2.581A2.64,2.64,0,0,1,446.01,349.708Z" transform="translate(-244.039 -196.581)" fill="#5793ce"/>
        <path id="Path_698" data-name="Path 698" d="M437.575,344.839l10.312,5.953c.61.352.533.966-.171,1.372l-4.469,2.581a2.64,2.64,0,0,1-2.377.1l-10.312-5.954c-.608-.352-.533-.966.171-1.372l4.469-2.581A2.645,2.645,0,0,1,437.575,344.839Z" transform="translate(-250.02 -200.034)" fill="#5793ce"/>
        <path id="Path_699" data-name="Path 699" d="M429.21,340.009l10.312,5.953c.61.352.533.967-.171,1.374l-4.469,2.581a2.645,2.645,0,0,1-2.377.1l-10.312-5.953c-.608-.352-.533-.967.171-1.372l4.469-2.581A2.64,2.64,0,0,1,429.21,340.009Z" transform="translate(-255.951 -203.458)" fill="#5793ce"/>
        <path id="Path_700" data-name="Path 700" d="M442.2,342.17l10.311,5.954c.61.352.533.966-.169,1.372l-4.471,2.581a2.64,2.64,0,0,1-2.377.1l-10.311-5.954c-.61-.352-.533-.966.169-1.372l4.471-2.581A2.645,2.645,0,0,1,442.2,342.17Z" transform="translate(-246.745 -201.925)" fill="#5793ce"/>
      </g>
      <g id="Group_394" data-name="Group 394" transform="translate(217.062 60.401)">
        <path id="Path_701" data-name="Path 701" d="M504.1,268.356,427.1,223.9l.991-5.006,77.007,44.459Z" transform="translate(-388.075 -161.789)" fill="#d4ecff"/>
        <path id="Path_702" data-name="Path 702" d="M478.319,267.73l-53.754-31.035.991-5.006,53.755,31.035Z" transform="translate(-389.871 -152.715)" fill="#d4ecff"/>
        <path id="Path_703" data-name="Path 703" d="M472.335,257.145l-46.5-26.849.991-5.006,46.5,26.849Z" transform="translate(-388.973 -157.252)" fill="#fff"/>
        <path id="Path_704" data-name="Path 704" d="M480.536,261.88l-23.252-13.425.991-5.006,23.252,13.425Z" transform="translate(-366.672 -144.376)" fill="#f5b010"/>
        <path id="Path_705" data-name="Path 705" d="M431.946,203.909l-23.252-13.424.991-5.006L432.936,198.9Z" transform="translate(-401.124 -185.479)" fill="#d4ecff"/>
        <path id="Path_706" data-name="Path 706" d="M430.469,210.717l-23.252-13.424.991-5.006,23.252,13.424Z" transform="translate(-402.171 -180.652)" fill="#fff"/>
        <path id="Path_707" data-name="Path 707" d="M497.246,305.14l-23.252-13.424.991-5.006,23.252,13.425Z" transform="translate(-354.824 -113.703)" fill="#d4ecff"/>
        <path id="Path_708" data-name="Path 708" d="M427.517,224.332l-23.252-13.424.991-5.006,23.252,13.424Z" transform="translate(-404.264 -170.999)" fill="#d4ecff"/>
      </g>
      <g id="Group_395" data-name="Group 395" transform="translate(284.574 112.345)">
        <path id="Path_709" data-name="Path 709" d="M449.746,220.866a2.9,2.9,0,0,1-4.18,1.289,3.642,3.642,0,0,1-1.5-4.567,2.9,2.9,0,0,1,4.18-1.287A3.636,3.636,0,0,1,449.746,220.866Z" transform="translate(-443.768 -215.872)" fill="#f5b010"/>
        <path id="Path_710" data-name="Path 710" d="M455.608,224.25a2.9,2.9,0,0,1-4.182,1.287,3.64,3.64,0,0,1-1.5-4.565,2.9,2.9,0,0,1,4.18-1.289A3.64,3.64,0,0,1,455.608,224.25Z" transform="translate(-439.613 -213.473)" fill="#fff"/>
        <path id="Path_711" data-name="Path 711" d="M461.468,227.633a2.9,2.9,0,0,1-4.18,1.289,3.64,3.64,0,0,1-1.5-4.566,2.9,2.9,0,0,1,4.182-1.287A3.639,3.639,0,0,1,461.468,227.633Z" transform="translate(-435.458 -211.074)" fill="#fff"/>
        <path id="Path_712" data-name="Path 712" d="M467.328,231.017a2.9,2.9,0,0,1-4.18,1.287,3.638,3.638,0,0,1-1.5-4.567,2.9,2.9,0,0,1,4.18-1.287A3.642,3.642,0,0,1,467.328,231.017Z" transform="translate(-431.303 -208.675)" fill="#f5b010"/>
      </g>
      <path id="Path_713" data-name="Path 713" d="M389.73,372.8,331.5,339.183c-1.7-.979-1.483-2.688.475-3.818l35.139-20.29a7.351,7.351,0,0,1,6.614-.273l58.232,33.62c1.7.979,1.483,2.688-.475,3.818l-35.139,20.288A7.351,7.351,0,0,1,389.73,372.8Z" transform="translate(-239.608 -33.852)" fill="#fff"/>
    </g>
    <g id="Group_401" data-name="Group 401" transform="translate(452.991 336.055)">
      <g id="Group_400" data-name="Group 400">
        <g id="Group_399" data-name="Group 399">
          <g id="Group_397" data-name="Group 397" transform="translate(19.211 16.254)">
            <rect id="Rectangle_126" data-name="Rectangle 126" width="11.117" height="23.989" transform="translate(25.617 15.162) rotate(129.2)" fill="#5793ce"/>
            <path id="Path_714" data-name="Path 714" d="M339.8,272.984a8.691,8.691,0,0,0,4.968-6.093c.4-2.475-1.174-3.758-3.517-2.868a8.688,8.688,0,0,0-4.968,6.091C335.883,272.589,337.457,273.874,339.8,272.984Z" transform="translate(-318.422 -249.034)" fill="#5793ce"/>
          </g>
          <g id="Group_398" data-name="Group 398">
            <rect id="Rectangle_127" data-name="Rectangle 127" width="18.014" height="24.505" transform="translate(31.665 16.231) rotate(129.199)" fill="#5793ce"/>
            <path id="Path_715" data-name="Path 715" d="M334.622,256.594l6.291,5.132a14.384,14.384,0,0,1-7.026,8.615l-6.293-5.131A14.39,14.39,0,0,1,334.622,256.594Z" transform="translate(-305.326 -237.846)" fill="#396caa"/>
            <path id="Path_716" data-name="Path 716" d="M331.481,269.666a14.078,14.078,0,0,0,8.051-9.871c.649-4.009-1.9-6.089-5.7-4.647a14.074,14.074,0,0,0-8.051,9.871C325.132,269.029,327.683,271.109,331.481,269.666Z" transform="translate(-306.684 -239.196)" fill="#5793ce"/>
            <path id="Path_717" data-name="Path 717" d="M320.366,260.6a14.079,14.079,0,0,0,8.05-9.871c.649-4.009-1.9-6.091-5.7-4.649a14.08,14.08,0,0,0-8.05,9.871C314.016,259.963,316.568,262.044,320.366,260.6Z" transform="translate(-314.565 -245.624)" fill="#5793ce"/>
            <path id="Path_718" data-name="Path 718" d="M319.618,256.058a7.961,7.961,0,0,0,4.555-5.583c.367-2.268-1.077-3.445-3.223-2.63a7.964,7.964,0,0,0-4.555,5.585C316.027,255.7,317.471,256.875,319.618,256.058Z" transform="translate(-313.308 -244.233)" fill="#d4ecff"/>
          </g>
        </g>
      </g>
      <path id="Path_719" data-name="Path 719" d="M338.9,266.931c.911.743,1.8.405,1.991-.757a4.072,4.072,0,0,0-1.311-3.447c-.911-.743-1.8-.405-1.989.757A4.076,4.076,0,0,0,338.9,266.931Z" transform="translate(-298.26 -233.778)" fill="#d4ecff"/>
    </g>
    <path id="Path_720" data-name="Path 720" d="M237.476,475.4a18.772,18.772,0,0,1-9.7-2.743l-13.154-7.791a1.486,1.486,0,0,1,1.514-2.557l13.161,7.8a15.837,15.837,0,0,0,23.969-14.691l-.28-3.967c-4.62-64.941-13.218-185.823,37.729-198.861a396.648,396.648,0,0,0,38.339-11.929c26.143-9.359,27.936-8.842,63.978,18.377a1.485,1.485,0,1,1-1.789,2.37c-35.8-27.037-36.274-26.869-61.188-17.95a400.147,400.147,0,0,1-38.6,12.009c-48.545,12.425-40.063,131.7-35.505,195.773l.282,3.967a18.516,18.516,0,0,1-8.928,17.369A18.726,18.726,0,0,1,237.476,475.4Z" transform="translate(67.047 83.023)" fill="#5793ce"/>
    <g id="Group_403" data-name="Group 403" transform="translate(343.451 314.232)">
      <ellipse id="Ellipse_198" data-name="Ellipse 198" cx="48.194" cy="27.825" rx="48.194" ry="27.825" transform="translate(12.813 212.632)" fill="#173d7a" opacity="0.5"/>
      <g id="Group_402" data-name="Group 402" transform="translate(28.224 25.571)">
        <path id="Path_721" data-name="Path 721" d="M307.744,370.148a7.436,7.436,0,0,1,4.2,7.438,12.476,12.476,0,0,1-.612,3.637c-.863,1.813-3.695,4.3-8.212,2.516s-14.554-11.215-14.93-17.386C287.488,354.889,300.6,367.1,307.744,370.148Z" transform="translate(-251.971 -167.186)" fill="#173d7a"/>
        <path id="Path_722" data-name="Path 722" d="M296.211,381.294s1.084,6.609.557,7.82-3.671,3.8-8.318,3.239-18.012-5.168-20.989-13.976c-4.614-13.657,25.8,1.024,25.8,1.024Z" transform="translate(-266.985 -159.369)" fill="#173d7a"/>
        <path id="Path_723" data-name="Path 723" d="M276.874,318.374l-1.036,103.184c.109,3.589,2.459,6.619,5.621,7.152.391.067.808.12,1.256.159a6.423,6.423,0,0,0,6.13-2.536,7.559,7.559,0,0,0,1.379-4.165l1.318-44.049,6.576-39.383,9.1,69.7a6.022,6.022,0,0,0,2.5,4.59,6.975,6.975,0,0,0,4.148,1.125,7.624,7.624,0,0,0,5.515-2.716,5.533,5.533,0,0,0,1.318-3.733l-3.608-41.94-1.342-53.494Z" transform="translate(-260.708 -202.116)" fill="#d4ecff"/>
        <path id="Path_724" data-name="Path 724" d="M287.663,261.8l1.632,9.4a4.31,4.31,0,0,1-3.522,4.1c-3.581.889-4.688-1.424-4.688-1.424l-1.62-10.589Z" transform="translate(-258.137 -237.903)" fill="#ffc2b0"/>
        <path id="Path_725" data-name="Path 725" d="M275.1,271.995c5.985,5.961,15.125,6.458,20.413,1.113s4.725-14.513-1.26-20.472-15.123-6.458-20.413-1.113S269.117,266.035,275.1,271.995Z" transform="translate(-264.694 -247.817)" fill="#ffc2b0"/>
        <path id="Path_726" data-name="Path 726" d="M291.253,269.162c.248-.1,15.2-9.726,20.722.347,9.01,16.424,8.48,69.294,5.635,76.142-2.632,6.339-9.207,11.011-13.814,13.643a27.58,27.58,0,0,1-13.409,3.814c-4.671.038-13.629-4.115-13.3-10.222,1.5-28.088-.988-51.763-3.281-74.736C273.8,278.152,276.668,275.067,291.253,269.162Z" transform="translate(-262.152 -235.692)" fill="#5793ce"/>
        <path id="Path_727" data-name="Path 727" d="M288.875,327.758l9.1,69.7a6.021,6.021,0,0,0,2.5,4.591,6.576,6.576,0,0,0,.776.439c-1.889-1.417-7.4-59.924-8.424-66.432S288.875,327.758,288.875,327.758Z" transform="translate(-251.465 -191.136)" fill="#396caa"/>
      </g>
      <path id="Path_728" data-name="Path 728" d="M259.412,280.99l-8.123-26.6,4.29-1.779,9.575,20.848Z" transform="translate(-249.89 -218.849)" fill="#ffc2b0"/>
      <path id="Path_729" data-name="Path 729" d="M308.492,268.437l-6.089-27.7-4.849.053,1.821,22.971Z" transform="translate(-217.087 -227.265)" fill="#ffc2b0"/>
      <path id="Path_730" data-name="Path 730" d="M286.433,279.029s-14.6,2.912-23.875-14.081a2.308,2.308,0,0,0-3.85-.4c-1.489,2.268-3.459,5.741-2.439,9.494,4.52,16.608,29.055,20.278,33.461,29.91S286.433,279.029,286.433,279.029Z" transform="translate(-246.559 -210.999)" fill="#5793ce"/>
      <path id="Path_731" data-name="Path 731" d="M289.561,274.133s11.558.889,13.221-9.116a76.468,76.468,0,0,0,1.162-10,2.017,2.017,0,0,1,2.266-1.96c2.769.344,7.053,1.169,7.634,3.023.868,2.77,2.5,16.355-8.914,37.2C297.452,306.935,289.561,274.133,289.561,274.133Z" transform="translate(-222.754 -218.543)" fill="#5793ce"/>
      <path id="Path_732" data-name="Path 732" d="M305.284,246.4l-.111-3.158a6.509,6.509,0,0,0-.943-3.153l-3.2-5.259-.836-1.053a2.433,2.433,0,0,0-3.2-.547l-.737.463a3.026,3.026,0,0,0-1.408,2.755l1.656,4.493-2.094-.405a.744.744,0,0,0-.873.6h0a.741.741,0,0,0,.453.82l3.42,1.381,3.107,4.4Z" transform="translate(-219.943 -232.855)" fill="#ffc2b0"/>
      <path id="Path_733" data-name="Path 733" d="M251.752,260.06l-.967-3.008a6.5,6.5,0,0,1-.185-3.286l1.225-6.035.429-1.273a2.431,2.431,0,0,1,2.823-1.6l.849.185a3.029,3.029,0,0,1,2.261,2.112l-.032,4.79,1.832-1.094a.745.745,0,0,1,1.025.267h0a.743.743,0,0,1-.149.926l-2.748,2.459-1.6,5.833Z" transform="translate(-250.47 -224.384)" fill="#ffc2b0"/>
      <path id="Path_734" data-name="Path 734" d="M290.557,290.687c1.331,6.069-2.4,53.171,9.75,64.832-4.671.038-13.628-4.117-13.3-10.222a373.632,373.632,0,0,0-1.114-51.652c-4.767-6.175-17.877-10.105-26.08-18.023C260.41,275.807,289.241,284.68,290.557,290.687Z" transform="translate(-243.848 -202.532)" fill="#396caa"/>
      <path id="Path_735" data-name="Path 735" d="M293.167,266.731l-2.075-2.131s-3.416,3.488-6.158,4.093a32.177,32.177,0,0,1-4.915,1.017l-1.336,3.685S289.556,272.615,293.167,266.731Z" transform="translate(-230.467 -210.346)" fill="#fff"/>
      <path id="Path_736" data-name="Path 736" d="M286.666,269.02a1.754,1.754,0,0,1-1.612.005c-.884-.465-2.316-3.979-4.153-3.721-2.874.4-7.038,6.436-12.22-1.981-2.693-4.377-1.114-6.739-2.425-9.222,0,0,.461,1.348,11.743-5.539s20.508,1.507,23.368,6.306,4.717,14.176-2.687,19.469c-1.229.877-9.13-.689-9.292-1.35s1.953-1.726.757-3.276A2.481,2.481,0,0,0,286.666,269.02Z" transform="translate(-239.277 -223.566)" fill="#173d7a"/>
    </g>
    <path id="Path_737" data-name="Path 737" d="M249.906,391.378a1.489,1.489,0,0,1-.755-.207L169.7,344.12a1.485,1.485,0,1,1,1.511-2.557l79.456,47.051a1.486,1.486,0,0,1-.76,2.763Z" transform="translate(35.195 158.307)" fill="#5793ce"/>
    <g id="Group_423" data-name="Group 423" transform="translate(119.332 203.744)">
      <g id="Group_415" data-name="Group 415">
        <g id="Group_406" data-name="Group 406">
          <path id="Path_738" data-name="Path 738" d="M119.347,432.65h0V217.8l85.412-22.354,15.732-9.083c3.611-2.085,9.917-1.824,14.086.583l14.679,8.475,45.556-.026L281.322,402.8c.1,1.412-.684,2.774-2.418,3.775l-85.236,64.314c-3.611,2.083-9.918,1.822-14.086-.585l-56.8-32.8C120.373,436.123,119.212,434.325,119.347,432.65Z" transform="translate(-119.328 -156.328)" fill="#396caa"/>
          <path id="Path_739" data-name="Path 739" d="M199.323,184.964a16.248,16.248,0,0,1,7.55,1.979l14.679,8.475,45.556-.026V410.817c.1,1.412-.684,2.772-2.418,3.773l-98.726,56.3a12.747,12.747,0,0,1-6.537,1.4l-1.019-216.772Z" transform="translate(-91.625 -156.323)" fill="#d4ecff"/>
          <path id="Path_740" data-name="Path 740" d="M166.97,443.124A16.037,16.037,0,0,1,155.711,443V224.744H166.97Z" transform="translate(-93.538 -128.118)" fill="#5793ce"/>
          <path id="Path_741" data-name="Path 741" d="M193.671,267.419,292.4,211.125c3.611-2.085,3.158-5.727-1.012-8.133l-56.8-32.8c-4.168-2.406-10.475-2.668-14.086-.583l-98.726,56.294c-3.609,2.085-3.158,5.725,1.012,8.132l56.8,32.8C183.754,269.243,190.06,269.5,193.671,267.419Z" transform="translate(-119.332 -168.205)" fill="#d4ecff"/>
          <path id="Path_742" data-name="Path 742" d="M122.777,214.559l56.8,32.8c4.168,2.406,10.475,2.668,14.086.585l98.725-56.3a5.432,5.432,0,0,0,1.8-1.6c1.241,2,.678,4.162-1.8,5.594l-98.725,56.294c-3.611,2.085-9.918,1.824-14.086-.585l-56.8-32.8c-3.24-1.87-4.225-4.483-2.813-6.534A7.872,7.872,0,0,0,122.777,214.559Z" transform="translate(-119.328 -152.72)" fill="#fafdff"/>
          <g id="Group_405" data-name="Group 405" transform="translate(36.76 18.213)">
            <path id="Path_743" data-name="Path 743" d="M175.628,237.048l65.729-38.1c1.689-.976,1.477-2.68-.473-3.806L214.3,179.793a7.331,7.331,0,0,0-6.592-.273l-65.729,38.1c-1.689.974-1.477,2.678.473,3.8l26.582,15.347A7.326,7.326,0,0,0,175.628,237.048Z" transform="translate(-140.841 -178.862)" fill="#173d7a"/>
            <g id="Group_404" data-name="Group 404" transform="translate(27.285 16.818)">
              <path id="Path_744" data-name="Path 744" d="M183.955,193.68l3.809-2.2c.234-.135.2-.371-.067-.526l-3.678-2.124a1.012,1.012,0,0,0-.911-.038l-3.809,2.2c-.232.135-.2.371.067.526l3.676,2.123A1.016,1.016,0,0,0,183.955,193.68Z" transform="translate(-140.969 -188.703)" fill="#d4ecff"/>
              <path id="Path_745" data-name="Path 745" d="M176.511,197.961l3.808-2.2c.234-.135.205-.371-.065-.526l-3.678-2.124a1.016,1.016,0,0,0-.913-.038l-3.808,2.2c-.234.135-.205.371.065.526l3.678,2.123A1.01,1.01,0,0,0,176.511,197.961Z" transform="translate(-146.248 -185.667)" fill="#f5b010"/>
              <path id="Path_746" data-name="Path 746" d="M169.064,202.244l3.809-2.2c.234-.135.2-.371-.065-.526l-3.678-2.124a1.016,1.016,0,0,0-.913-.038l-3.809,2.2c-.232.135-.2.371.067.526l3.678,2.124A1.012,1.012,0,0,0,169.064,202.244Z" transform="translate(-151.527 -182.632)" fill="#d4ecff"/>
              <path id="Path_747" data-name="Path 747" d="M161.62,206.525l3.808-2.2c.234-.135.205-.371-.065-.526l-3.678-2.123a1.011,1.011,0,0,0-.913-.039l-3.808,2.2c-.234.135-.205.371.065.526l3.678,2.124A1.016,1.016,0,0,0,161.62,206.525Z" transform="translate(-156.806 -179.597)" fill="#d4ecff"/>
            </g>
            <path id="Path_748" data-name="Path 748" d="M241.354,198.946l-.079.044c-.128-.091-.246-.186-.395-.272L214.3,183.372a7.325,7.325,0,0,0-6.592-.272l-65.651,38.055c-1.557-1.114-1.639-2.632-.079-3.533l65.729-38.1a7.331,7.331,0,0,1,6.592.273L240.88,195.14C242.83,196.267,243.042,197.971,241.354,198.946Z" transform="translate(-140.837 -178.862)" fill="#5793ce"/>
          </g>
        </g>
        <g id="Group_408" data-name="Group 408" transform="translate(7.983 96.407)">
          <path id="Path_749" data-name="Path 749" d="M165.182,269.989l-37.371-21.4c-2.1-1.213-3.808-4.471-3.808-7.275V227.95c0-2.8,1.7-4.091,3.808-2.878l37.371,21.4c2.1,1.215,3.808,4.473,3.808,7.275v13.365C168.99,269.914,167.284,271.2,165.182,269.989Z" transform="translate(-124.003 -224.616)" fill="#173d7a"/>
          <path id="Path_750" data-name="Path 750" d="M125.96,224.647a3.737,3.737,0,0,0-.955,2.781v13.365c0,2.8,1.706,6.062,3.808,7.275l37.371,21.4a2.736,2.736,0,0,0,1.851.4,2.273,2.273,0,0,1-2.852.1l-37.371-21.4c-2.1-1.213-3.808-4.471-3.808-7.275V227.928C124,226.024,124.8,224.845,125.96,224.647Z" transform="translate(-124.003 -224.594)" fill="#fff"/>
          <g id="Group_407" data-name="Group 407" transform="translate(14.217 16.282)">
            <path id="Path_751" data-name="Path 751" d="M143.288,245.97l-3.428-1.979a1.992,1.992,0,0,1-.831-1.586v-3.662c0-.61.373-.892.831-.627l3.428,1.979a1.989,1.989,0,0,1,.831,1.586v3.662C144.118,245.953,143.746,246.235,143.288,245.97Z" transform="translate(-127.567 -231.397)" fill="#396caa"/>
            <path id="Path_752" data-name="Path 752" d="M136.581,242.1l-3.428-1.979a1.984,1.984,0,0,1-.831-1.586v-3.661c0-.612.371-.892.831-.629l3.428,1.981a1.984,1.984,0,0,1,.829,1.584v3.662C137.41,242.081,137.039,242.362,136.581,242.1Z" transform="translate(-132.322 -234.143)" fill="#fff"/>
          </g>
        </g>
        <g id="Group_410" data-name="Group 410" transform="translate(7.983 192.98)">
          <path id="Path_753" data-name="Path 753" d="M165.182,326.5l-37.371-21.4c-2.1-1.213-3.808-4.471-3.808-7.275V284.459c0-2.8,1.7-4.093,3.808-2.878l37.371,21.4c2.1,1.213,3.808,4.473,3.808,7.275v13.365C168.99,326.422,167.284,327.711,165.182,326.5Z" transform="translate(-124.003 -281.123)" fill="#173d7a"/>
          <path id="Path_754" data-name="Path 754" d="M125.96,281.155a3.737,3.737,0,0,0-.955,2.781V297.3c0,2.8,1.706,6.062,3.808,7.275l37.371,21.4a2.745,2.745,0,0,0,1.851.4,2.273,2.273,0,0,1-2.852.1l-37.371-21.4c-2.1-1.214-3.808-4.471-3.808-7.275V284.436C124,282.533,124.8,281.353,125.96,281.155Z" transform="translate(-124.003 -281.101)" fill="#fff"/>
          <g id="Group_409" data-name="Group 409" transform="translate(14.217 16.283)">
            <path id="Path_755" data-name="Path 755" d="M143.288,302.478,139.86,300.5a1.986,1.986,0,0,1-.831-1.584v-3.663c0-.612.373-.892.831-.627l3.428,1.979a1.989,1.989,0,0,1,.831,1.586v3.661C144.118,302.461,143.746,302.743,143.288,302.478Z" transform="translate(-127.567 -287.905)" fill="#f5b010"/>
            <path id="Path_756" data-name="Path 756" d="M136.581,298.6l-3.428-1.979a1.984,1.984,0,0,1-.831-1.586v-3.661c0-.612.371-.892.831-.629l3.428,1.981a1.984,1.984,0,0,1,.829,1.584v3.662C137.41,298.589,137.039,298.87,136.581,298.6Z" transform="translate(-132.322 -290.651)" fill="#fff"/>
          </g>
        </g>
        <g id="Group_412" data-name="Group 412" transform="translate(7.983 241.267)">
          <path id="Path_757" data-name="Path 757" d="M165.182,354.75l-37.371-21.4c-2.1-1.213-3.808-4.471-3.808-7.275V312.713c0-2.8,1.7-4.093,3.808-2.878l37.371,21.4c2.1,1.213,3.808,4.471,3.808,7.275v13.365C168.99,354.676,167.284,355.965,165.182,354.75Z" transform="translate(-124.003 -309.377)" fill="#173d7a"/>
          <path id="Path_758" data-name="Path 758" d="M125.96,309.409A3.737,3.737,0,0,0,125,312.19v13.365c0,2.8,1.706,6.062,3.808,7.275l37.371,21.4a2.745,2.745,0,0,0,1.851.4,2.271,2.271,0,0,1-2.852.1l-37.371-21.4c-2.1-1.213-3.808-4.471-3.808-7.275V312.69C124,310.786,124.8,309.607,125.96,309.409Z" transform="translate(-124.003 -309.355)" fill="#fff"/>
          <g id="Group_411" data-name="Group 411" transform="translate(14.217 16.283)">
            <path id="Path_759" data-name="Path 759" d="M143.288,330.732l-3.428-1.981a1.986,1.986,0,0,1-.831-1.584V323.5c0-.612.373-.892.831-.627l3.428,1.979a1.989,1.989,0,0,1,.831,1.586V330.1C144.118,330.715,143.746,331,143.288,330.732Z" transform="translate(-127.567 -316.159)" fill="#396caa"/>
            <path id="Path_760" data-name="Path 760" d="M136.581,326.859l-3.428-1.979a1.984,1.984,0,0,1-.831-1.586v-3.661c0-.612.371-.894.831-.629l3.428,1.979a1.99,1.99,0,0,1,.829,1.586v3.662C137.41,326.844,137.039,327.124,136.581,326.859Z" transform="translate(-132.322 -318.905)" fill="#fff"/>
          </g>
        </g>
        <g id="Group_414" data-name="Group 414" transform="translate(7.983 144.694)">
          <path id="Path_761" data-name="Path 761" d="M165.182,298.241l-37.371-21.4c-2.1-1.213-3.808-4.471-3.808-7.275V256.2c0-2.8,1.7-4.091,3.808-2.878l37.371,21.4c2.1,1.215,3.808,4.471,3.808,7.275v13.365C168.99,298.168,167.284,299.457,165.182,298.241Z" transform="translate(-124.003 -252.87)" fill="#173d7a"/>
          <path id="Path_762" data-name="Path 762" d="M125.96,252.9a3.737,3.737,0,0,0-.955,2.781v13.365c0,2.8,1.706,6.062,3.808,7.275l37.371,21.4a2.746,2.746,0,0,0,1.851.4,2.271,2.271,0,0,1-2.852.1l-37.371-21.4c-2.1-1.213-3.808-4.471-3.808-7.275V256.182C124,254.278,124.8,253.1,125.96,252.9Z" transform="translate(-124.003 -252.848)" fill="#fff"/>
          <g id="Group_413" data-name="Group 413" transform="translate(14.217 16.283)">
            <path id="Path_763" data-name="Path 763" d="M143.288,274.224l-3.428-1.979a1.991,1.991,0,0,1-.831-1.586V267c0-.612.373-.892.831-.627l3.428,1.979a1.989,1.989,0,0,1,.831,1.586V273.6C144.118,274.207,143.746,274.487,143.288,274.224Z" transform="translate(-127.567 -259.652)" fill="#396caa"/>
            <path id="Path_764" data-name="Path 764" d="M136.581,270.35l-3.428-1.979a1.984,1.984,0,0,1-.831-1.586v-3.661c0-.612.371-.892.831-.627l3.428,1.979a1.984,1.984,0,0,1,.829,1.584v3.662C137.41,270.335,137.039,270.615,136.581,270.35Z" transform="translate(-132.322 -262.398)" fill="#fff"/>
          </g>
        </g>
      </g>
      <g id="Group_416" data-name="Group 416" transform="translate(78.036 52.143)">
        <path id="Path_765" data-name="Path 765" d="M168.488,274.672l86.219-49.779c1.929-1.114,3.495-4.1,3.495-6.677V201.775c0-2.572-1.566-3.755-3.495-2.64l-86.219,49.779c-1.931,1.114-3.495,4.1-3.495,6.675V272.03C164.993,274.6,166.557,275.785,168.488,274.672Z" transform="translate(-164.993 -198.716)" fill="#5793ce"/>
        <path id="Path_766" data-name="Path 766" d="M169.221,266.431l81.27-46.921a4.245,4.245,0,0,0,1.772-3.387v-12.36c0-1.306-.793-1.906-1.772-1.34l-81.27,46.92a4.245,4.245,0,0,0-1.772,3.387v12.36C167.449,266.395,168.242,266.995,169.221,266.431Z" transform="translate(-163.252 -196.238)" fill="#d4ecff" opacity="0.4"/>
        <path id="Path_767" data-name="Path 767" d="M206.843,219.292l12.129-7a4.124,4.124,0,0,0,1.721-3.29h0c0-1.266-.771-1.849-1.721-1.3l-12.129,7a4.124,4.124,0,0,0-1.721,3.29h0C205.122,219.26,205.893,219.841,206.843,219.292Z" transform="translate(-136.54 -192.492)" fill="#d4ecff"/>
        <path id="Path_768" data-name="Path 768" d="M200.081,218.087c0,1.268.89,1.781,1.988,1.147a4.393,4.393,0,0,0,1.989-3.442c0-1.268-.89-1.783-1.989-1.148A4.4,4.4,0,0,0,200.081,218.087Z" transform="translate(-140.115 -187.615)" fill="#173d7a"/>
        <path id="Path_769" data-name="Path 769" d="M195.978,220.456c0,1.268.89,1.781,1.988,1.147a4.389,4.389,0,0,0,1.988-3.442c0-1.268-.889-1.783-1.988-1.148A4.4,4.4,0,0,0,195.978,220.456Z" transform="translate(-143.024 -185.935)" fill="#173d7a"/>
        <path id="Path_770" data-name="Path 770" d="M191.875,222.825c0,1.268.889,1.781,1.988,1.148a4.4,4.4,0,0,0,1.988-3.444c0-1.268-.89-1.783-1.988-1.148A4.392,4.392,0,0,0,191.875,222.825Z" transform="translate(-145.933 -184.255)" fill="#d4ecff"/>
        <path id="Path_771" data-name="Path 771" d="M187.771,225.194c0,1.268.89,1.781,1.988,1.147a4.388,4.388,0,0,0,1.989-3.442c0-1.268-.89-1.783-1.989-1.148A4.4,4.4,0,0,0,187.771,225.194Z" transform="translate(-148.843 -182.576)" fill="#173d7a"/>
        <path id="Path_772" data-name="Path 772" d="M170.944,239.808l4.085-2.358a2.646,2.646,0,0,0,1.106-2.111v-4.322c0-.814-.5-1.188-1.106-.836l-4.085,2.358a2.645,2.645,0,0,0-1.1,2.111v4.322C169.84,239.787,170.334,240.16,170.944,239.808Z" transform="translate(-161.556 -176.5)" fill="#173d7a"/>
      </g>
      <g id="Group_417" data-name="Group 417" transform="translate(78.036 81.133)">
        <path id="Path_773" data-name="Path 773" d="M168.488,291.635l86.219-49.779c1.929-1.114,3.495-4.1,3.495-6.675V218.74c0-2.574-1.566-3.756-3.495-2.642l-86.219,49.779c-1.931,1.114-3.495,4.1-3.495,6.677v16.441C164.993,291.567,166.557,292.75,168.488,291.635Z" transform="translate(-164.993 -215.679)" fill="#5793ce"/>
        <path id="Path_774" data-name="Path 774" d="M169.221,283.393l81.27-46.92a4.248,4.248,0,0,0,1.772-3.387V220.725c0-1.3-.793-1.9-1.772-1.34l-81.27,46.921a4.245,4.245,0,0,0-1.772,3.387v12.36C167.449,283.359,168.242,283.959,169.221,283.393Z" transform="translate(-163.252 -213.201)" fill="#d4ecff" opacity="0.4"/>
        <path id="Path_775" data-name="Path 775" d="M206.843,236.256l12.129-7a4.127,4.127,0,0,0,1.721-3.29h0c0-1.268-.771-1.851-1.721-1.3l-12.129,7a4.124,4.124,0,0,0-1.721,3.29h0C205.122,236.222,205.893,236.805,206.843,236.256Z" transform="translate(-136.54 -209.455)" fill="#d4ecff"/>
        <path id="Path_776" data-name="Path 776" d="M200.081,235.051c0,1.266.89,1.781,1.988,1.147a4.393,4.393,0,0,0,1.989-3.444c0-1.266-.89-1.781-1.989-1.147A4.4,4.4,0,0,0,200.081,235.051Z" transform="translate(-140.115 -204.577)" fill="#fff"/>
        <path id="Path_777" data-name="Path 777" d="M195.978,237.42c0,1.266.89,1.781,1.988,1.147a4.392,4.392,0,0,0,1.988-3.444c0-1.266-.889-1.781-1.988-1.147A4.4,4.4,0,0,0,195.978,237.42Z" transform="translate(-143.024 -202.897)" fill="#173d7a"/>
        <path id="Path_778" data-name="Path 778" d="M191.875,239.789c0,1.266.889,1.781,1.988,1.147a4.4,4.4,0,0,0,1.988-3.442c0-1.268-.89-1.783-1.988-1.148A4.392,4.392,0,0,0,191.875,239.789Z" transform="translate(-145.933 -201.218)" fill="#d4ecff"/>
        <path id="Path_779" data-name="Path 779" d="M187.771,242.158c0,1.266.89,1.781,1.988,1.147a4.393,4.393,0,0,0,1.989-3.442c0-1.268-.89-1.783-1.989-1.148A4.4,4.4,0,0,0,187.771,242.158Z" transform="translate(-148.843 -199.538)" fill="#173d7a"/>
        <path id="Path_780" data-name="Path 780" d="M170.944,256.772l4.085-2.358a2.646,2.646,0,0,0,1.106-2.111v-4.322c0-.813-.5-1.188-1.106-.836l-4.085,2.358a2.645,2.645,0,0,0-1.1,2.111v4.322C169.84,256.75,170.334,257.124,170.944,256.772Z" transform="translate(-161.556 -193.462)" fill="#173d7a"/>
      </g>
      <g id="Group_418" data-name="Group 418" transform="translate(78.036 110.125)">
        <path id="Path_781" data-name="Path 781" d="M168.488,308.6l86.219-49.779c1.929-1.114,3.495-4.1,3.495-6.675V235.7c0-2.574-1.566-3.756-3.495-2.642l-86.219,49.779c-1.931,1.114-3.495,4.1-3.495,6.677v16.439C164.993,308.531,166.557,309.714,168.488,308.6Z" transform="translate(-164.993 -232.643)" fill="#5793ce"/>
        <path id="Path_782" data-name="Path 782" d="M169.221,300.358l81.27-46.921a4.243,4.243,0,0,0,1.772-3.387v-12.36c0-1.306-.793-1.906-1.772-1.34l-81.27,46.921a4.245,4.245,0,0,0-1.772,3.387v12.36C167.449,300.324,168.242,300.923,169.221,300.358Z" transform="translate(-163.252 -230.165)" fill="#d4ecff" opacity="0.4"/>
        <path id="Path_783" data-name="Path 783" d="M206.843,253.221l12.129-7a4.121,4.121,0,0,0,1.721-3.288h0c0-1.268-.771-1.851-1.721-1.3l-12.129,7a4.123,4.123,0,0,0-1.721,3.288h0C205.122,253.186,205.893,253.769,206.843,253.221Z" transform="translate(-136.54 -226.419)" fill="#d4ecff"/>
        <path id="Path_784" data-name="Path 784" d="M200.081,252.014c0,1.268.89,1.783,1.988,1.148a4.394,4.394,0,0,0,1.989-3.444c0-1.268-.89-1.781-1.989-1.147A4.393,4.393,0,0,0,200.081,252.014Z" transform="translate(-140.115 -221.541)" fill="#fff"/>
        <path id="Path_785" data-name="Path 785" d="M195.978,254.383c0,1.268.89,1.783,1.988,1.148a4.392,4.392,0,0,0,1.988-3.444c0-1.268-.889-1.781-1.988-1.147A4.4,4.4,0,0,0,195.978,254.383Z" transform="translate(-143.024 -219.861)" fill="#173d7a"/>
        <path id="Path_786" data-name="Path 786" d="M191.875,256.752c0,1.268.889,1.783,1.988,1.148a4.4,4.4,0,0,0,1.988-3.444c0-1.268-.89-1.781-1.988-1.147A4.391,4.391,0,0,0,191.875,256.752Z" transform="translate(-145.933 -218.182)" fill="#d4ecff"/>
        <path id="Path_787" data-name="Path 787" d="M187.771,259.121c0,1.268.89,1.783,1.988,1.148a4.393,4.393,0,0,0,1.989-3.444c0-1.266-.89-1.781-1.989-1.147A4.4,4.4,0,0,0,187.771,259.121Z" transform="translate(-148.843 -216.502)" fill="#173d7a"/>
        <path id="Path_788" data-name="Path 788" d="M170.944,273.736l4.085-2.36a2.646,2.646,0,0,0,1.106-2.111v-4.322c0-.814-.5-1.188-1.106-.834l-4.085,2.358a2.645,2.645,0,0,0-1.1,2.111V272.9C169.84,273.714,170.334,274.088,170.944,273.736Z" transform="translate(-161.556 -210.426)" fill="#173d7a"/>
      </g>
      <g id="Group_419" data-name="Group 419" transform="translate(78.036 139.117)">
        <path id="Path_789" data-name="Path 789" d="M168.488,325.563l86.219-49.779c1.929-1.114,3.495-4.1,3.495-6.677V252.666c0-2.572-1.566-3.755-3.495-2.64L168.488,299.8c-1.931,1.114-3.495,4.1-3.495,6.675v16.441C164.993,325.5,166.557,326.678,168.488,325.563Z" transform="translate(-164.993 -249.607)" fill="#5793ce"/>
        <path id="Path_790" data-name="Path 790" d="M169.221,317.322l81.27-46.922a4.245,4.245,0,0,0,1.772-3.387v-12.36c0-1.306-.793-1.906-1.772-1.34l-81.27,46.92a4.248,4.248,0,0,0-1.772,3.387v12.36C167.449,317.286,168.242,317.886,169.221,317.322Z" transform="translate(-163.252 -247.129)" fill="#d4ecff" opacity="0.4"/>
        <path id="Path_791" data-name="Path 791" d="M206.843,270.183l12.129-7a4.124,4.124,0,0,0,1.721-3.29h0c0-1.266-.771-1.849-1.721-1.3l-12.129,7a4.127,4.127,0,0,0-1.721,3.29h0C205.122,270.151,205.893,270.733,206.843,270.183Z" transform="translate(-136.54 -243.383)" fill="#d4ecff"/>
        <path id="Path_792" data-name="Path 792" d="M200.081,268.978c0,1.268.89,1.781,1.988,1.147a4.388,4.388,0,0,0,1.989-3.442c0-1.268-.89-1.783-1.989-1.148A4.4,4.4,0,0,0,200.081,268.978Z" transform="translate(-140.115 -238.506)" fill="#173d7a"/>
        <path id="Path_793" data-name="Path 793" d="M195.978,271.347c0,1.268.89,1.781,1.988,1.148a4.391,4.391,0,0,0,1.988-3.444c0-1.268-.889-1.781-1.988-1.148A4.4,4.4,0,0,0,195.978,271.347Z" transform="translate(-143.024 -236.826)" fill="#173d7a"/>
        <path id="Path_794" data-name="Path 794" d="M191.875,273.716c0,1.268.889,1.781,1.988,1.148a4.4,4.4,0,0,0,1.988-3.444c0-1.268-.89-1.781-1.988-1.148A4.392,4.392,0,0,0,191.875,273.716Z" transform="translate(-145.933 -235.146)" fill="#d4ecff"/>
        <path id="Path_795" data-name="Path 795" d="M187.771,276.085c0,1.268.89,1.781,1.988,1.148a4.393,4.393,0,0,0,1.989-3.444c0-1.268-.89-1.781-1.989-1.147A4.39,4.39,0,0,0,187.771,276.085Z" transform="translate(-148.843 -233.466)" fill="#173d7a"/>
        <path id="Path_796" data-name="Path 796" d="M170.944,290.7l4.085-2.358a2.646,2.646,0,0,0,1.106-2.111v-4.322c0-.814-.5-1.188-1.106-.836l-4.085,2.359a2.645,2.645,0,0,0-1.1,2.111v4.324C169.84,290.678,170.334,291.051,170.944,290.7Z" transform="translate(-161.556 -227.391)" fill="#d4ecff"/>
      </g>
      <g id="Group_420" data-name="Group 420" transform="translate(78.036 168.108)">
        <path id="Path_797" data-name="Path 797" d="M168.488,342.526l86.219-49.779c1.929-1.114,3.495-4.1,3.495-6.675V269.631c0-2.574-1.566-3.756-3.495-2.642l-86.219,49.779c-1.931,1.114-3.495,4.1-3.495,6.677v16.441C164.993,342.458,166.557,343.641,168.488,342.526Z" transform="translate(-164.993 -266.57)" fill="#5793ce"/>
        <path id="Path_798" data-name="Path 798" d="M169.221,334.284l81.27-46.92a4.245,4.245,0,0,0,1.772-3.387v-12.36c0-1.306-.793-1.906-1.772-1.34l-81.27,46.92a4.245,4.245,0,0,0-1.772,3.387v12.36C167.449,334.25,168.242,334.85,169.221,334.284Z" transform="translate(-163.252 -264.092)" fill="#d4ecff" opacity="0.4"/>
        <path id="Path_799" data-name="Path 799" d="M206.843,287.147l12.129-7a4.124,4.124,0,0,0,1.721-3.29h0c0-1.268-.771-1.849-1.721-1.3l-12.129,7a4.124,4.124,0,0,0-1.721,3.29h0C205.122,287.113,205.893,287.7,206.843,287.147Z" transform="translate(-136.54 -260.345)" fill="#d4ecff"/>
        <path id="Path_800" data-name="Path 800" d="M200.081,285.942c0,1.266.89,1.781,1.988,1.147a4.393,4.393,0,0,0,1.989-3.442c0-1.268-.89-1.783-1.989-1.149A4.4,4.4,0,0,0,200.081,285.942Z" transform="translate(-140.115 -255.468)" fill="#173d7a"/>
        <path id="Path_801" data-name="Path 801" d="M195.978,288.311c0,1.268.89,1.781,1.988,1.147a4.391,4.391,0,0,0,1.988-3.442c0-1.268-.889-1.783-1.988-1.148A4.4,4.4,0,0,0,195.978,288.311Z" transform="translate(-143.024 -253.788)" fill="#fff"/>
        <path id="Path_802" data-name="Path 802" d="M191.875,290.68c0,1.266.889,1.781,1.988,1.147a4.4,4.4,0,0,0,1.988-3.442c0-1.268-.89-1.782-1.988-1.148A4.392,4.392,0,0,0,191.875,290.68Z" transform="translate(-145.933 -252.109)" fill="#d4ecff"/>
        <path id="Path_803" data-name="Path 803" d="M187.771,293.049c0,1.268.89,1.781,1.988,1.147a4.393,4.393,0,0,0,1.989-3.442c0-1.268-.89-1.783-1.989-1.148A4.4,4.4,0,0,0,187.771,293.049Z" transform="translate(-148.843 -250.429)" fill="#fff"/>
        <path id="Path_804" data-name="Path 804" d="M170.944,307.663l4.085-2.358a2.646,2.646,0,0,0,1.106-2.111v-4.322c0-.814-.5-1.188-1.106-.836l-4.085,2.358a2.645,2.645,0,0,0-1.1,2.111v4.322C169.84,307.641,170.334,308.015,170.944,307.663Z" transform="translate(-161.556 -244.353)" fill="#d4ecff"/>
      </g>
      <g id="Group_421" data-name="Group 421" transform="translate(78.036 197.1)">
        <path id="Path_805" data-name="Path 805" d="M168.488,359.49l86.219-49.779c1.929-1.114,3.495-4.1,3.495-6.675V286.6c0-2.574-1.566-3.756-3.495-2.642l-86.219,49.779c-1.931,1.114-3.495,4.1-3.495,6.677v16.439C164.993,359.422,166.557,360.6,168.488,359.49Z" transform="translate(-164.993 -283.534)" fill="#5793ce"/>
        <path id="Path_806" data-name="Path 806" d="M169.221,351.249l81.27-46.921a4.242,4.242,0,0,0,1.772-3.387V288.58c0-1.3-.793-1.906-1.772-1.34l-81.27,46.921a4.245,4.245,0,0,0-1.772,3.387v12.36C167.449,351.214,168.242,351.814,169.221,351.249Z" transform="translate(-163.252 -281.056)" fill="#d4ecff" opacity="0.4"/>
        <path id="Path_807" data-name="Path 807" d="M206.843,304.112l12.129-7a4.127,4.127,0,0,0,1.721-3.29h0c0-1.268-.771-1.851-1.721-1.3l-12.129,7a4.123,4.123,0,0,0-1.721,3.288h0C205.122,304.078,205.893,304.66,206.843,304.112Z" transform="translate(-136.54 -277.31)" fill="#d4ecff"/>
        <path id="Path_808" data-name="Path 808" d="M200.081,302.9c0,1.268.89,1.783,1.988,1.148a4.393,4.393,0,0,0,1.989-3.444c0-1.266-.89-1.781-1.989-1.147A4.4,4.4,0,0,0,200.081,302.9Z" transform="translate(-140.115 -272.432)" fill="#173d7a"/>
        <path id="Path_809" data-name="Path 809" d="M195.978,305.274c0,1.268.89,1.783,1.988,1.148a4.392,4.392,0,0,0,1.988-3.444c0-1.267-.889-1.781-1.988-1.147A4.4,4.4,0,0,0,195.978,305.274Z" transform="translate(-143.024 -270.752)" fill="#173d7a"/>
        <path id="Path_810" data-name="Path 810" d="M191.875,307.644c0,1.266.889,1.781,1.988,1.147a4.4,4.4,0,0,0,1.988-3.444c0-1.266-.89-1.781-1.988-1.147A4.391,4.391,0,0,0,191.875,307.644Z" transform="translate(-145.933 -269.073)" fill="#d4ecff"/>
        <path id="Path_811" data-name="Path 811" d="M187.771,310.012c0,1.268.89,1.783,1.988,1.149a4.394,4.394,0,0,0,1.989-3.444c0-1.266-.89-1.781-1.989-1.147A4.4,4.4,0,0,0,187.771,310.012Z" transform="translate(-148.843 -267.393)" fill="#173d7a"/>
        <path id="Path_812" data-name="Path 812" d="M170.944,324.627l4.085-2.358a2.647,2.647,0,0,0,1.106-2.112v-4.322c0-.814-.5-1.188-1.106-.834l-4.085,2.358a2.645,2.645,0,0,0-1.1,2.111v4.322C169.84,324.605,170.334,324.979,170.944,324.627Z" transform="translate(-161.556 -261.317)" fill="#173d7a"/>
      </g>
      <g id="Group_422" data-name="Group 422" transform="translate(78.036 226.091)">
        <path id="Path_813" data-name="Path 813" d="M168.488,376.454l86.219-49.779c1.929-1.114,3.495-4.1,3.495-6.677V303.557c0-2.572-1.566-3.755-3.495-2.64L168.488,350.7c-1.931,1.114-3.495,4.1-3.495,6.676v16.441C164.993,376.386,166.557,377.569,168.488,376.454Z" transform="translate(-164.993 -300.498)" fill="#5793ce"/>
        <path id="Path_814" data-name="Path 814" d="M169.221,368.213l81.27-46.921a4.245,4.245,0,0,0,1.772-3.387v-12.36c0-1.306-.793-1.906-1.772-1.34l-81.27,46.921a4.242,4.242,0,0,0-1.772,3.386v12.361C167.449,368.178,168.242,368.778,169.221,368.213Z" transform="translate(-163.252 -298.02)" fill="#d4ecff" opacity="0.4"/>
        <path id="Path_815" data-name="Path 815" d="M206.843,321.074l12.129-7a4.123,4.123,0,0,0,1.721-3.288h0c0-1.268-.771-1.851-1.721-1.3l-12.129,7a4.121,4.121,0,0,0-1.721,3.288h0C205.122,321.041,205.893,321.624,206.843,321.074Z" transform="translate(-136.54 -294.274)" fill="#d4ecff"/>
        <path id="Path_816" data-name="Path 816" d="M198.784,322.157c0,2.394,1.682,3.365,3.755,2.169a8.3,8.3,0,0,0,3.756-6.5c0-2.394-1.682-3.365-3.756-2.167A8.3,8.3,0,0,0,198.784,322.157Z" transform="translate(-141.034 -290.115)" fill="#fff"/>
        <path id="Path_817" data-name="Path 817" d="M190.285,325.76c0,1.268.89,1.783,1.989,1.148a4.4,4.4,0,0,0,1.988-3.444c0-1.266-.89-1.781-1.988-1.147A4.393,4.393,0,0,0,190.285,325.76Z" transform="translate(-147.06 -285.219)" fill="#173d7a"/>
        <path id="Path_818" data-name="Path 818" d="M186.182,328.129c0,1.268.89,1.783,1.988,1.148a4.392,4.392,0,0,0,1.988-3.444c0-1.266-.889-1.781-1.988-1.147A4.4,4.4,0,0,0,186.182,328.129Z" transform="translate(-149.969 -283.539)" fill="#d4ecff"/>
        <path id="Path_819" data-name="Path 819" d="M182.079,330.5c0,1.266.89,1.781,1.988,1.147a4.4,4.4,0,0,0,1.988-3.444c0-1.266-.89-1.781-1.988-1.147A4.4,4.4,0,0,0,182.079,330.5Z" transform="translate(-152.878 -281.86)" fill="#173d7a"/>
        <path id="Path_820" data-name="Path 820" d="M170.944,341.59l4.085-2.358a2.646,2.646,0,0,0,1.106-2.111V332.8c0-.814-.5-1.188-1.106-.836l-4.085,2.359a2.65,2.65,0,0,0-1.1,2.112v4.322C169.84,341.569,170.334,341.944,170.944,341.59Z" transform="translate(-161.556 -278.282)" fill="#d4ecff"/>
      </g>
    </g>
    <g id="Group_425" data-name="Group 425" transform="translate(510.645 118.082)">
      <g id="Group_424" data-name="Group 424">
        <path id="Path_821" data-name="Path 821" d="M378.958,187.345l-30.658-17.7,30.657-17.7,30.658,17.7Z" transform="translate(-348.3 -94.073)" fill="#173d7a" opacity="0.5"/>
        <path id="Path_822" data-name="Path 822" d="M396.9,163.838l-30.657,17.7v-35.4l30.657-17.7Z" transform="translate(-335.581 -110.739)" fill="#173d7a"/>
        <path id="Path_823" data-name="Path 823" d="M378.958,153.482l-30.657-17.7,30.657-17.7,30.657,17.7Z" transform="translate(-348.3 -118.082)" fill="#d4ecff"/>
        <path id="Path_824" data-name="Path 824" d="M378.958,181.538l-30.657-17.7v-35.4l30.657,17.7Z" transform="translate(-348.3 -110.739)" fill="#5793ce"/>
      </g>
      <path id="Path_825" data-name="Path 825" d="M363.336,154.48l-8.575-4.951v-9.9l8.575,4.951Z" transform="translate(-343.719 -102.805)" fill="#fff"/>
    </g>
  </g>
</svg>
