<svg xmlns="http://www.w3.org/2000/svg" width="617.742" height="412" viewBox="0 0 617.742 412">
  <path id="Intersection_5" data-name="Intersection 5" d="M-5257.786,435a21.392,21.392,0,0,0,1.4-1.676c4.33-12.427,7.579-21.768,10.214-32.112-2.656,11.988-4.553,17.56-10.533,33.788Zm-75.612,0c28.718-60.768,41.506-127.428,36.5-189.178-4.316-12.943-4.316-12.943-19.973-59.294a190.282,190.282,0,0,1-16.707-11.5,303.9,303.9,0,0,1-47.025-45.221,6.535,6.535,0,0,1-3.753-1.169c1.241-1.064,3.321-2.839,7.755-1.373-.318.476-.745,1.114-1.066,1.59a260.489,260.489,0,0,0,44.355,43.311,179.921,179.921,0,0,0,16.242,11.147c14.66,42.234,14.943,43.042,21.176,61.4,5.816,62.078-6.386,129.151-34.786,190.286Zm-11.448,0c30.1-59.4,45.272-124.535,43.461-185.042q-7.743-25.274-15.487-50.546c-5.676-3.519-11.769-7.738-18.2-12.643-31.3-23.882-61.709-57.283-78.213-84.4a22.821,22.821,0,0,1-4.134-1.439c5.151-2.914,10.263.809,10.3.855l-2.015.883c15.181,26.081,44.408,58.186,74.5,81.137,6.328,4.83,12.317,8.962,17.885,12.4,5.51,17.592,11.076,35.168,16.558,52.77,2.606,60.81-11.962,126.3-41.7,186.03Zm-12.457,0c31.656-58.195,49.3-121.983,50.653-181.375-6.752-24.216-8.156-29.254-11.485-41.369-6-3.809-12.381-8.272-19.082-13.385a415.759,415.759,0,0,1-64.329-61.86,12.07,12.07,0,0,1-3.9-.416c-.052-.614-.117-1.432-.168-2.043,2.066-1.469,4.566-2.893,8.131-1.163-.146.581-.341,1.358-.486,1.939,16.892,21.861,38.916,43.364,61.353,60.481,6.653,5.075,12.981,9.491,18.919,13.239,4.534,16.039,4.534,16.039,12.437,43.716-.568,59.654-17.588,123.757-48.836,182.234Zm-13.475,0c33.393-57.169,53.607-119.852,58.112-178.273-2.407-9.491-5.6-22.145-7.97-31.643q-9.2-5.973-19.379-13.721c-40.746-31.087-80.33-74.565-101.811-109.87a20.027,20.027,0,0,1-4.488-1.423c.381-.571.888-1.333,1.269-1.9,4.9-.485,8.09.052,9.486,1.6-.583.469-1.358,1.093-1.942,1.561,20.179,34.428,58.646,76.68,98.246,106.891,6.766,5.164,13.24,9.724,19.358,13.675,2.626,10.239,6.149,23.883,8.806,34.11-3.713,58.651-23.274,121.59-56.215,179Zm-14.635,0c35.334-56.338,58.257-118.145,65.94-175.755-1.469-6.436-3.436-15.015-4.88-21.459q-9.124-6.055-19.074-13.632c-29.09-22.194-57.646-50.075-80.671-77.577a12.356,12.356,0,0,1-4.383-.5c-.2-.6-.478-1.39-.683-1.987,4.121-5.365,9.091-2.2,9.137-2.155.009.614.022,1.43.031,2.044,21.253,28.1,49.106,55.3,77.482,76.943q10.011,7.639,19.2,13.693c1.677,7.216,3.908,16.839,5.609,24.047-6.885,57.8-29.118,119.8-63.951,176.332Zm-15.8,0c37.468-55.7,63.255-116.874,74.175-173.83l-2.233-10.786q-8.76-5.938-18.185-13.118c-49.622-37.856-97.826-90.8-123.984-133.8a20.062,20.062,0,0,1-4.368-1.067c-.152-.63-.358-1.469-.509-2.1,6.552-3.413,11.112.293,11.149.336-.358.586-.834,1.368-1.192,1.956,24.29,42.521,71.438,94.311,119.975,131.341q9.563,7.3,18.455,13.279l2.857,13.529c-10.1,57.1-35.157,118.414-72.07,174.253Zm-21.173,0c34.775-47.548,61.531-99.187,77.9-148.62-1.293-7.89-3.022-18.406-4.262-26.3-5.069-1.271-2.664-9.341-.417-10.709a3.375,3.375,0,0,1,2.479,0,7.174,7.174,0,0,1,1.146,7.253c-1.007,2.439,3.535,29.389,3.58,29.659-15.646,49.48-41.727,101.138-75.947,148.717Zm-68.01,0c17.209-19.246,33.458-39.2,48.5-59.39,11.208-2.3,26.115-5.585,37.206-8.394.5-1.76,2.577-7.319,8.494-4.834,5.209,6.134-.875,12.155-4.624,11.566a4.615,4.615,0,0,1-3.432-2.72c-10.661,2.658-24.923,6.026-35.69,8.214-13.968,18.884-29.01,37.531-44.922,55.559Zm-37.13,0A1105.34,1105.34,0,0,0-5413.126,294.48q8.061,6.874,16.224,13.444c2.611-1.787,3.389-1.7,5.575-.58,4.72,5.955-1.106,11.724-4.294,11.152-1.3-.234-4.222-1.4-3.341-7.155q-6.956-5.594-13.851-11.424A1055.57,1055.57,0,0,1-5521.686,435Zm-23.813,0c51.748-52.176,99.824-109.45,137.321-161.879,12.608,11.124,25.475,21.735,38.412,31.6q1.884,1.438,3.746,2.837c2.282-1.948,2.818-1.774,5.073-1.038a7.286,7.286,0,0,1,.533,9.087c-2.7,3.728-6.813,2.759-7.458-1.757a17.055,17.055,0,0,1-.033-1.788,12.826,12.826,0,0,0-3.657-3.785c-12.264-9.356-24.467-19.373-36.447-29.855-36,51.025-81.832,106.191-131.446,156.575Zm-24.221,0q3-2.955,6.022-5.97c57.957-57.743,113.083-120.966,155.267-176.4,10.74,9.8,21.722,19.235,32.812,28.158,2.155-1.445,2.806-1.883,5-.79,4.285,5.532-.873,11.308-3.733,10.885-1.46-.216-3.8-1.377-3.086-6.736-10.458-8.415-20.824-17.287-30.987-26.481-41.323,55.22-95.172,117.534-152.094,174.247q-1.558,1.551-3.108,3.087Zm-24.449,0q8.777-8.565,17.884-17.636c62.094-61.865,122.562-128.514,168.3-184.252a654.4,654.4,0,0,0,51.275,43.694q1.684,1.285,3.354,2.54c1.586-1.4,2.636-2.33,4.451-1.28,1.279,1.988,2.874,4.463.667,8.72h0a7.694,7.694,0,0,1-3.469,2.445c-2.414-1.219-2.849-1.439-3.22-5.5a11.31,11.31,0,0,0-3.3-3.463c-16.955-12.933-33.776-27.268-49.941-42.373C-5458.843,293.637-5517.94,359.465-5579,420.3q-7.552,7.525-14.894,14.7Zm-35.241,0a6.258,6.258,0,0,1,7.1-1.62,10.171,10.171,0,0,1,2.114,1.4q.094.111.183.222Zm-112.827,0c-25.837-1.846-41.991-1.335-52.6,0h-15.833c15.26-5.144,31.325-5.784,76.473-3.648.908-3.513,3.966-5.112,7.51-1.708a7.344,7.344,0,0,1,1.705,5.356Zm-74.558,0c-13.821-21.19-23.721-40.791-28.171-56.946a73.758,73.758,0,0,1-2.225-11.016l-.417-3.952a74.483,74.483,0,0,0,2.276,11.322c4.71,17.107,15.439,38.015,30.428,60.592Zm-6.57,0c-9.394-15.662-16.176-30.121-19.568-42.44q-.935-3.4-1.5-6.471l-.8-4.726a76.018,76.018,0,0,0,1.706,7.585c3.658,13.282,11.187,29.013,21.649,46.052Zm-4.874,0c-5.419-10.2-9.429-19.666-11.742-28.063q-.3-1.1-.566-2.173l-.98-4.231q.326,1.385.728,2.836c2.583,9.384,7.246,20.084,13.6,31.631Zm-2.858,0a112.463,112.463,0,0,1-4.18-11.053l-1.211-4.032A120.27,120.27,0,0,0-5836.439,435Zm178.926-11.292c.837-5.114,5.519-4.645,7.521-4.444,11.779-10.644,23.309-22.21,35.412-34.27,61.754-61.521,126.1-123.643,178.429-172.625-51.391-52.643-92.354-110.3-102.945-148.753-7.686-27.907,2.084-40.406,24.084-38.042l3.1.336c-21.151-1.972-30.469,10.365-22.987,37.533,10.562,38.354,51.811,96.111,103.337,148.483-52.17,49.988-117.243,113.563-180.03,176.116q-18.152,18.088-34.581,34.591c.571,2.328,1.281,5.227-1.917,7.689a6.383,6.383,0,0,1-3.2.892A6.508,6.508,0,0,1-5658.016,423.708Zm382.034,7.187c-8.51,0-18.765-2.055-30.529-6.142-3.08,4.846-5.124,2.96-5.582,1.355-1.173-4.1,2.952-11.551,5.735-10.353,1.877.806,1.451,3.957,1.311,4.994,25.012,8.686,43.142,8.122,52.121-1.927,6.151-19.632,9.631-30.775,12.162-50.157-2.356,18.293-4.792,30.612-12.938,53.822-4.812,5.616-12.358,8.408-22.271,8.408Zm-575.951-67.477a71.717,71.717,0,0,1-2.633-14.8l-.2-4.389a71.814,71.814,0,0,0,2.695,15.484c4.842,17.577,15.678,38.944,30.812,62.039,17.722-6.167,34.82-7.863,95.522-5.087,1.148-3.614,4.522-5.284,8.183-1.822,4.062,5.523-.189,9.072-.234,9.1-.9.673-4.809,2.173-7.432-2.732-71.316-5.639-88.453,1.279-95.772,4.233C-5836.208,402.345-5847.1,380.968-5851.933,363.418Zm9.291,55.468.309,1.028C-5842.439,419.572-5842.543,419.227-5842.642,418.887Zm545.565-8.952a363.334,363.334,0,0,0,15.212-78.069c-1.519-2.666-1.6-11.1,1.5-11.98,2.8,2.634,1.892,9.934.292,12.131a384.742,384.742,0,0,1-13.959,74.37c20.3,6.131,35.345,5.346,43.626-2.506,6.782-24.43,9.876-35.582,11.486-66a34.652,34.652,0,0,0,.658-6.6v3.637a35.694,35.694,0,0,1-.583,6.543c-2.228,26.146-3.244,38.079-12.108,66.219-4.676,4.62-11.579,6.915-20.429,6.915C-5278.677,414.594-5287.295,413.035-5297.077,409.935Zm-555.065-61.274a70.262,70.262,0,0,1-2.859-18.4l.059-4.34a70.133,70.133,0,0,0,2.892,19.046c4.841,17.6,15.391,38.792,30.109,61.73,14.885-4.776,23.765-6.248,53.895-6.794.855-3.59,3.5-5.587,6.717-2.211,3.521,5.3.1,9.02.063,9.057-1.612,1.566-4.75,1.422-6.446-2.929-27.05.509-39.293,1.6-54.121,6.693C-5836.665,387.521-5847.294,366.262-5852.142,348.661Zm171.375,50.877c.865-5.22,5.387-4.759,7.317-4.56,11.523-10.877,22.941-22.561,35.044-34.621a2104.036,2104.036,0,0,1,162.656-146c-49.021-53.426-86.839-109.094-97.429-147.55-7.817-28.377.549-42.475,20.675-42.75l3.539-.04c-19.6.45-27.7,14.372-20.032,42.218,10.613,38.53,48.9,94.558,98.333,148.015-51.831,42.283-110.39,94.908-164.891,149.207q-18.157,18.088-34.247,34.943c1.08,3.637.435,6.285-1.916,7.871a6.011,6.011,0,0,1-3.109.91C-5678.476,407.175-5681.418,403.469-5680.766,399.538Zm409.359-10.079c1.345.253,1.2,3.315,1.151,4.321,9.165.595,16.413-1.12,21.45-5.162,5.837-24.241,8.5-35.308,8.985-65.265a33.263,33.263,0,0,0,.95-10.212l.206,3.445a75.12,75.12,0,0,1-.842,10.412c-1.263,25.762-1.84,37.518-9.61,65.471-5.1,4.266-12.529,6.077-21.977,5.466-1.242,3.433-2,3.686-2.887,3.983C-5278.02,398.776-5271.652,389.414-5271.407,389.458Zm28.986-6.3c-1.121,6.708-2.347,12.538-3.748,18.054C-5245.132,396.52-5243.977,390.837-5242.42,383.158Zm-605,17.185c.015.063.029.126.044.19Zm-.044-.19.044.19Zm-3.973-66.27c-2.375-8.619-3.3-15.965-2.911-22.049l.063-.929.235-3.194c-.427,6.188.507,13.671,2.929,22.471,4.813,17.465,14.989,38.323,29.161,60.91,13.535-4.029,24.223-7.21,72.84-7.084,1.3-4.333,4.68-5.3,7.705-2.214,3.716,5.559-.321,9.388-.364,9.425-1.05.895-4.578,2.346-6.918-2.562-39.977-1.5-57.693,1.333-73.324,6.383C-5836.338,372.35-5846.614,351.391-5851.435,333.883Zm210.377,48.606c.289-1.4,1.72-5.875,8.072-4.911a24.127,24.127,0,0,0,6.116-4.844c57.613-57.4,118.8-113.96,171.181-159.043-50.49-53.338-90.058-110.257-100.7-148.884-7.726-28.046,1.2-41.4,22.03-40.561l1.168.049,2.8.139c-20.6-.864-29.43,12.3-21.8,40,10.635,38.617,50.59,95.768,101.356,148.989-52.456,46.04-114.463,103.955-173.114,162.386q-2.629,2.616-5.218,5.207c1.013,3.728.219,6.483-2.359,8.192a6.71,6.71,0,0,1-3.435.993A6.4,6.4,0,0,1-5641.057,382.49Zm398.908-.956-.142.981c-.042.22-.084.425-.129.643C-5242.33,382.614-5242.237,382.089-5242.149,381.534Zm-460.17-6.383c.236-1.367,1.439-5.736,7.1-4.7,11.277-11.11,22.584-22.917,34.69-34.977a1231.666,1231.666,0,0,1,142.376-121.5c-44.627-51.836-78.1-103.667-88.329-140.8-7.858-28.525-.74-43.835,17.59-46.318l3.907-.506c-18.11,2.481-25.139,17.636-17.366,45.855,10.291,37.372,44.37,89.78,89.648,141.945a1298.266,1298.266,0,0,0-145.114,124.46q-18.156,18.088-33.928,35.3c.957,3.663.289,6.347-1.991,7.973a5.635,5.635,0,0,1-3.04.947C-5700.257,382.836-5703,379.123-5702.319,375.151Zm461.548-3.066c-.445,3.361-.9,6.491-1.377,9.449Zm-609.037-53.038c-2.763-10.029-3.655-18.4-2.841-25.149l.555-4.23c-.88,6.858.006,15.412,2.833,25.68,4.739,17.2,14.473,37.566,28,59.622,11.9-3.3,14.375-3.985,32.115-5.949.642-3.188,3.019-6.263,6.085-2.738a8.424,8.424,0,0,1-.083,9.349c-1.73,2.019-4.554,1.333-5.744-2.611-15.594,1.754-19.762,2.308-32.612,6.014C-5835.2,356.83-5845.05,336.328-5849.808,319.047Zm609.061,49.476c-.006.048-.012.1-.019.142C-5240.759,368.618-5240.753,368.57-5240.747,368.523Zm.266-2.116q-.131,1.074-.266,2.116C-5240.657,367.828-5240.571,367.118-5240.481,366.406Zm1.488-14.313q.178-1.231.272-2.543l-.207,3.543q-.084,1.294-.238,2.509c-.464,3.889-.891,7.442-1.315,10.8C-5239.952,362.1-5239.458,357.4-5238.993,352.094Zm-424.66,5.625c.311-1.405,1.8-5.917,7.962-4.927a24.682,24.682,0,0,0,6.077-4.847,1550.058,1550.058,0,0,1,153.023-133.523c-47.049-52.918-82.821-106.877-93.274-144.83-7.852-28.513-.111-43.261,19.141-44.67l3.608-.253c-18.788,1.547-26.3,16.125-18.585,44.151,10.5,38.107,46.8,92.536,94.391,145.636a1657.768,1657.768,0,0,0-155.532,136.6q-2.629,2.618-5.209,5.214c.911,3.748.078,6.522-2.479,8.249a6.453,6.453,0,0,1-3.354,1C-5661.65,365.513-5664.538,361.729-5663.653,357.719Zm-189.889,4.5.09.862C-5853.485,362.8-5853.514,362.509-5853.542,362.223Zm131.06-11.433c.254-1.387,1.5-5.832,6.9-4.833,11.045-11.342,22.253-23.275,34.356-35.334a876.838,876.838,0,0,1,118.666-98.663c-38.7-48.093-67.08-94.623-76.612-129.244-7.837-28.445-1.783-44.632,14.912-48.9l3.8-.953c-16.446,4.3-22.389,20.346-14.643,48.482,9.637,34.987,38.679,82.249,78.185,130.912a909.479,909.479,0,0,0-121.806,101.464q-18.157,18.088-33.628,35.655c.836,3.688.138,6.4-2.072,8.076a5.317,5.317,0,0,1-2.985,1C-5720.7,358.45-5723.21,354.771-5722.482,350.791Zm452.646,3.646c-3.183-.533-2.4-13.6.127-16.41.743-.825,2.756-1.331,3.134,6.156,7.347.781,13.4-.007,17.984-2.39.232-4.225.581-5.754,1.077-6.855l.235-.272c.084,0,.2-.009.287-.01,1.408,1.611,1.247,8.359,1.225,9.125-.01.3-.24,7.467-1.711,7.689-.522-.459-.894-1.534-1.12-5.483-4.644,2.417-10.782,3.216-18.23,2.421-.927,5.313-2.23,6.04-2.871,6.04A.968.968,0,0,1-5269.836,354.437Zm.673-12.649c-1.2.6-2.149,7.853-.311,8.434.961-.016,1.435-2.279,1.562-3.615.25-2.6-.265-4.872-1.043-4.872A.464.464,0,0,0-5269.163,341.788Zm21.839-2.759c-.641,1.173-.873,8.588.17,8.226.536-.5.707-2.987.725-4.233a14.209,14.209,0,0,0-.345-3.711c-.116-.361-.228-.485-.327-.485S-5247.262,338.917-5247.324,339.029Zm8.662,9.513q-.022.51-.059,1.009Zm-616.114-4.532.009.216Zm13.154-62.206c-3.756-13.638-4.344-24.481-2.117-32.563l1.149-4.025c-2.284,8.155-1.707,19.12,2.1,32.93,4.771,17.324,14.19,37.582,27.222,59.523,20.992-4.318,32.575-5.7,68.855-6.529a549.838,549.838,0,0,1,42.478-47.291,653.735,653.735,0,0,1,53.851-47.95c-.721-7.951,7.425-9.525,10.31-7.131a10.357,10.357,0,0,1,.768.806c3.093,5.381-2.645,8.988-2.7,9.025a7.08,7.08,0,0,1-5.384.643,518.245,518.245,0,0,0-54.569,47.655,562.612,562.612,0,0,0-43.531,48.478c-33.789.794-49.565,1.9-70.786,6.55C-5827.238,319.747-5836.811,299.269-5841.622,281.8Zm156.691,51.052c.336-1.413,1.894-5.946,7.837-4.963a25.347,25.347,0,0,0,6.032-4.856A1024.033,1024.033,0,0,1-5540.167,213.12c-41.82-50.214-72.816-99.553-82.734-135.567-7.866-28.566-1.265-44.357,16.3-47.743l3.728-.7c-17.248,3.445-23.706,19.083-15.94,47.278,10,36.322,41.635,86.316,84.189,136.984A1068.872,1068.872,0,0,0-5668.46,326.144q-2.629,2.62-5.2,5.225c.781,3.75-.1,6.537-2.624,8.275a6.209,6.209,0,0,1-3.273,1C-5683.195,340.648-5685.886,336.864-5684.93,332.855Zm442.685-.493c-.974-2.671-1.108-9.72-1.129-11.1l-2.421-9.686c-4.838,5.016-13,6.571-23.913,4.723-2.17-7.538-5.313-17.515-7.671-24.993-.3.4-.547.725-1.028.608-2.247-.543-4.433-13.922-1.6-16.576,2.194-.188,3.9,7.588,3.4,13,2.262,7.124,5.133,16.665,7.3,23.82,10.644,1.716,18.584.087,23.246-4.948.833,3.194,1.942,7.455,2.776,10.653a5.865,5.865,0,0,1,.33-1.871c.115.034.268.072.38.1.834,2.1,1.1,6.529,1.184,8.337.059,1.413.207,6.168-.475,8.023C-5241.979,332.428-5242.13,332.391-5242.246,332.363Zm-.5-7.429c.087,1.35.343,3.8.692,3.413a15.991,15.991,0,0,0,.2-4.412,10.923,10.923,0,0,0-.6-3.828.093.093,0,0,0-.062-.031C-5242.823,320.075-5242.894,322.563-5242.743,324.934Zm-36.683-45.475c-.972.46-.872,7.516.8,8.288.854.095.976-2.1.917-3.413-.12-2.541-.907-4.905-1.589-4.905A.322.322,0,0,0-5279.425,279.459Zm41.166,50.93c0,.3,0,.6,0,.891Zm-616.68-4.726,0,.259C-5854.942,325.835-5854.94,325.749-5854.939,325.663Zm18.178-58.442c-4.127-14.986-4.532-26.688-1.664-35.153l1.393-3.979c-2.937,8.532-2.544,20.349,1.63,35.508,4.591,16.671,13.376,35.992,25.475,56.9,15.848-3.066,27.3-5.282,60.974-6.321a506.858,506.858,0,0,1,38.2-42.444q10.02-9.987,20.539-19.472c-1.154-7.159,6.407-10.773,9.892-7.8,2.911,2.484,1.993,7.785-1.782,10.313a5.748,5.748,0,0,1-5.96.49q-10.5,9.494-20.53,19.484a517.107,517.107,0,0,0-39.27,43.66c-22.854.9-42.589,1.679-62.979,6.4C-5823.176,303.632-5832.122,284.065-5836.761,267.222Zm132.073,40.916c.074-.285,1.874-6.973,8.484-4.656q2.569-2.616,5.195-5.233a766.7,766.7,0,0,1,105.887-87.709c-35.309-45.494-60.971-88.929-70.044-121.88-7.782-28.256-2.254-44.761,13.586-49.83l3.819-1.2c-15.684,5.057-21.151,21.442-13.434,49.469,9.193,33.388,35.542,77.621,71.714,123.8A791.463,791.463,0,0,0-5688.6,301.328q-2.632,2.618-5.2,5.23c.63,3.739-.312,6.522-2.794,8.276a6.173,6.173,0,0,1-3.3,1.058C-5703.361,315.892-5705.73,312.189-5704.687,308.138Zm465.736,3.645c.033.459.061.911.08,1.356Zm-615.068-4.444-.027.373Q-5854.034,307.523-5854.02,307.339Zm23.055-54.588c-4.5-16.341-4.683-28.87-1.1-37.647l.8-1.927.877-2.077c-3.7,8.835-3.55,21.5,1.012,38.069,4.384,15.915,12.5,34.193,23.622,53.943,15.742-2.853,24.414-4.426,52.741-5.868a472.949,472.949,0,0,1,33.919-37.5,542.059,542.059,0,0,1,54.334-47.272c-.213-7.705,7.791-9.22,10.44-6.895a8.734,8.734,0,0,1,.7.787c2.7,5.242-3.092,8.727-3.151,8.761a6.067,6.067,0,0,1-6.009.234,553.612,553.612,0,0,0-54.279,47.358,481.437,481.437,0,0,0-35,38.743c-27.835,1.547-36.231,2.288-54.817,6C-5818.241,287.413-5826.526,268.868-5830.965,252.751Zm6.224-54.136,1.987-4.063c-3.457,9.857-10.652,30.374,22,91.086,17.336-2.935,20.462-3.463,44.261-5.216q13.457-16.353,29.574-32.448,10.022-9.987,20.609-19.367c-.719-6.98,6.738-10.578,9.919-7.707,2.66,2.4,1.493,7.582-2.273,10.088a5.519,5.519,0,0,1-5.745.528q-10.568,9.392-20.6,19.38a451.629,451.629,0,0,0-30.667,33.72c-25.989,1.874-29.909,2.55-46.408,5.4C-5813.1,268.939-5836.026,225.087-5824.741,198.615Zm-27.322,90.818-.031.234Zm580.975-57.375a15.508,15.508,0,0,1-2.416.513c.917,3.41.709,3.773.485,4.161-2.183-1.9-4.541-11.675-4.1-12.158.432.325.837.632,2.225,3.948a14.925,14.925,0,0,0,2.541-.562c12.661,25.422,16.165,33.01,24.525,55.634,2.932-4.767,3.541-11.887,1.489-21.4l.593,2.569c2.42,10.411,1.8,18.11-1.433,23.145C-5254.721,267.089-5257.5,259.849-5271.088,232.058Zm-545.543-7.61c-5.183-18.826-4.855-32.781.219-41.949l2.109-3.733c-5.13,9.2-5.476,23.235-.26,42.179,3.889,14.117,10.61,30.028,19.692,47.157,19.373-3.052,20.129-3.171,35.479-4.384q11.611-13.812,25.154-27.33a466.56,466.56,0,0,1,54.759-46.615c-.284-6.338,7.579-9.431,10.549-6.67a7.885,7.885,0,0,1,.625.756c2.284,5.094-3.549,8.457-3.609,8.486a5.9,5.9,0,0,1-5.84.216,474.373,474.373,0,0,0-54.71,46.7q-14.186,14.132-26.265,28.615c-20.361,1.833-24.031,2.161-37.712,4.634C-5805.781,255.033-5812.677,238.811-5816.632,224.448Zm554.438,43.358a26.941,26.941,0,0,1-7.457.41c-7.738-19.5-17.364-43.771-38.833-88.866-1.867-.572-4.281-9.988-4.318-10.4.033-.013.071-.033.1-.046a12.793,12.793,0,0,1,1.971,3.586l40.636,91.552a25.912,25.912,0,0,0,6.932-.422,14.187,14.187,0,0,1-.322-3.97h.708a25.681,25.681,0,0,1,2.288,6.81c.806,3.933.408,4.772.17,5.276C-5260.975,271.122-5261.277,270.841-5262.194,267.806Zm-14.381-52.028a14.7,14.7,0,0,1-4.951.848,13,13,0,0,1,.816,3.705l-.394.169c-1.341-1.637-4.754-10.175-4.284-11.837.429.346.834.676,2.327,3.973a13.875,13.875,0,0,0,4.938-.882c13.7,24.856,17.534,32.3,27.019,54.664,2.563-5.009,2.661-12.5-.093-22.513-.061-.217-.122-.435-.184-.654l.9,3.029c.112.392.225.784.332,1.173,2.266,10.026,3.294,15.61-.036,23.263C-5258.739,250.116-5261.861,242.969-5276.575,215.778Zm29.779,44.443q.247,1.005.457,1.978Zm-561.266-49.6c-5.513-20.019-4.875-34.609,1.01-43.863l2.3-3.555c-5.916,9.279-6.559,23.92-1.025,44.012,3.606,13.1,9.618,27.716,17.669,43.409,7.925-1.154,18.517-2.566,26.483-3.392q9.667-11.212,20.641-22.155,10.02-9.982,20.67-19.264c-.247-6.75,7.084-10.351,9.936-7.619,2.375,2.274.937,7.315-2.8,9.806a5.253,5.253,0,0,1-5.509.6q-10.633,9.292-20.664,19.28-11.613,11.569-21.777,23.45c-8.647.926-20.163,2.328-28.757,3.654C-5798.194,238.931-5804.383,223.983-5808.062,210.623Zm524.854-10.84a13.458,13.458,0,0,1-6.773.888c.979,2.731.969,3.191.954,3.828-1.9-1.389-5.187-10.732-5-11.693.414.374.806.725,2.383,3.957a12.714,12.714,0,0,0,6.6-.911c14.77,24.265,18.944,31.556,29.608,53.695,1.506-5.225,2.22-9.15-.512-19.556q-.77-2.8-1.838-5.79l.8,2.148c.7,2.126,1.706,4.939,2.308,7.094l0,0c1.9,8.4,2.936,13.875.42,20.289C-5263.872,233.369-5267.352,226.316-5283.208,199.784Zm-559.3,45.144-.084.288C-5842.561,245.12-5842.534,245.023-5842.5,244.927Zm590.5-3.762q.328,1.054.623,2.086Zm-546.579-44.049c-5.819-21.126-4.859-36.268,1.839-45.536l2.546-3.463c-6.738,9.285-7.71,24.472-1.872,45.672,3.3,12.005,8.614,25.28,15.647,39.477,5.171-.7,12.051-1.735,17.236-2.3q7.619-8.569,16.017-16.947a413.01,413.01,0,0,1,55.123-45.988c.2-6.066,7.983-9.087,10.628-6.466a7.234,7.234,0,0,1,.542.72c1.809,4.858-4.043,8.119-4.1,8.15a5.759,5.759,0,0,1-5.609.274,418.892,418.892,0,0,0-55.077,46.067q-9.046,9.011-17.187,18.249c-5.877.738-13.727,1.639-19.579,2.569C-5789.716,223.016-5795.2,209.4-5798.582,197.117Zm507.633-12.909a8.115,8.115,0,0,1-2.892.908,21.206,21.206,0,0,1,1.5,3.6c-1.614-.451-6.085-11.064-6.1-11.161.351.3.713.617,2.552,3.747a7.629,7.629,0,0,0,2.833-.919c15.847,23.626,20.364,30.758,32.254,52.634,1.361-4.015,1.166-9.564-.79-16.672a86.649,86.649,0,0,0-4.229-11.655l1.225,2.7c3.245,7.98,3.373,8.292,4.5,12.335,2.05,7.449,2.22,13.236.731,17.384C-5270.084,217-5273.933,210.045-5290.948,184.208Zm-545.986,43.6-.1.28C-5837,228-5836.966,227.9-5836.934,227.81Zm578.16-6.263q.524,1.342.991,2.654Zm-77.9-98.348.014.018-.018-.022h0v0l0,0h0l-.005-.006h0v0h0l.005.006.008.008,0,0c14.955,16.315,35.434,38.658,57.727,70.256.481-2.623.2-5.985-.933-10.1-1.667-5.21-5.442-16.993-21.71-38.437.9,1.164,1.777,2.316,2.528,3.328l.948,1.28c10.18,13.835,17.507,26.847,20.3,36.993,1.213,4.395,1.494,7.97.942,10.735-12.468-17.719-26.6-37.8-59.806-74.059l-.009-.009h0c15.393,17.554,41.149,46.921,65.68,85.7.8-3.194.531-7.423-.924-12.7-1.713-5.349-3.821-11.919-11.359-24.522l1.95,3.207c5.709,10.036,8.325,15.07,11.252,24.574,1.538,5.587,1.791,10.042.905,13.378C-5284.169,189.093-5300.613,164.38-5336.677,123.2Zm-493.679,87.82-.033.081Zm.034-.081-.034.081Zm563.266-8.968q.643,1.376,1.233,2.722Zm-69.521-78.668c17.813,18.6,30.847,32.529,48.721,55.33a20.172,20.172,0,0,0-.852-7.677c-4.521-16.407-24.185-42.391-47.373-63.838l-1.379.308c-.745,2.627-1.282,4.528.77,15.752,0,0,0,.006,0,.009s0-.006,0-.007v0c-4.055-13.311-4.935-16.561-5.044-20.749l.681-.139.055.047,1.254,1.126c-.281-.049-.657-.117-.938-.167-.243,2.136-.521,4.559,3.993,19.882-2.358-12.211-2.67-14.8-.928-17.11a4.109,4.109,0,0,1,.846.228c24.63,22.709,45.563,50.318,50.355,67.724a20.973,20.973,0,0,1,.883,8.266C-5302.421,160.658-5313.261,147.666-5336.578,123.3Zm-477.574,55.193-.152.271C-5814.253,178.675-5814.2,178.585-5814.151,178.495Zm529.273-9.443c.558.9,1.09,1.777,1.6,2.626Zm-51.806-45.861,0,0h0c.121-1.059.228-1.879.335-2.6-.1.765-.213,1.618-.335,2.6.072-.21.154-.426.246-.645-.084.22-.167.436-.246.645l1.374-2.163c2.664,2.587,4.853,5.565,5.386,7.5a3.2,3.2,0,0,1,.117.654l-6.876-5.986c4.9,4.478,11.462,10.427,16.293,14.981a7.206,7.206,0,0,0-.287-1.75c-2.318-7.229-10.076-15.276-13.306-18.4a39.552,39.552,0,0,0-2.455,4.522,23.045,23.045,0,0,1,2.735-5.507c12.116,11.876,15.24,19.417,16.021,22.11a8.7,8.7,0,0,1,.348,2.155c-5.77-5.475-13.479-12.751-19.349-18.113,16.386,15.666,17.727,16.949,28.087,27.729a12.858,12.858,0,0,0-.512-3.47c-2.358-8.556-12.32-21.922-24.27-33.269-2.029,2.717-2.523,3.42-2.97,6.406.644-4.778.982-5.584,2.917-7.332,13.316,12.6,24.444,27.5,27.066,37.026a13.337,13.337,0,0,1,.563,3.942c-14.03-14.684-16.558-17.333-30.882-31.032,13.712,13.706,23.62,23.608,38.923,41.221a16.589,16.589,0,0,0-.706-5.455c-3.427-12.446-18.133-32.019-35.618-48.41-2.074,1.8-3.114,2.707-2.6,12.644-.46-8.482-.67-12.354,2.22-13.518,20.311,19.4,33.99,37.953,38.517,52.236a17.546,17.546,0,0,1,.749,5.988C-5308.924,152.027-5315.808,144.064-5336.684,123.191Zm3.621,3.1c-.014-.1-.037-.234-.061-.333a10.819,10.819,0,0,0-2.8-3.905l-.765,1.138Zm-3.625-3.1h0Zm0,0h0Zm0,0Zm0,0Zm0,0Zm0,0Zm0,0ZM-5336.688,123.186Zm0,0Zm0,0Zm0,0Zm0,0Zm0,0ZM-5336.688,123.186Zm0,0Zm0,0Zm0,0Zm0,0Zm0,0Zm-467.88,39.736-.185.284C-5804.692,163.111-5804.63,163.017-5804.568,162.922Zm466.758-3.08c-1.958-.225-1.269-9.031.784-10.02a107.121,107.121,0,0,0,.337-26.634h0q1.455,2.62,2.825,5.294c.676,1.228,1.763,3.309,2.664,5.2a27.143,27.143,0,0,1,1.463,3.449c-.182-.105-.3-.175-4.2-8.687q-1.333-2.651-2.75-5.252h0q1.3,2.529,2.523,5.116c.617,1.2,1.59,3.216,2.384,5.034a23.3,23.3,0,0,1,1.265,3.324c-.157-.095-.348-.214-3.725-8.406q-1.187-2.562-2.448-5.067a108.574,108.574,0,0,1,.244,27.107,14.762,14.762,0,0,1,.312,6.514c-.331,1.861-.956,3.036-1.613,3.036A.565.565,0,0,1-5337.81,159.842Zm.092-2.643c.539.333.888-.9,1.009-1.674.25-1.587.028-3.275-.432-3.285h0C-5337.872,152.239-5338.627,156.263-5337.718,157.2Zm-400.062-6.344a10.668,10.668,0,0,1,2.233-3.976q-1.871-5.378-3.276-10.474c-7.06-25.635-4.17-42.489,6.824-50.748l3.413-2.526c-10.964,8.249-13.846,25.064-6.8,50.637q1.4,5.081,3.271,10.455c4.494-1.887,5.346.886,4.506,3.355a11.582,11.582,0,0,1-4.728,5.594h0a6.508,6.508,0,0,1-3.25,1.086C-5737.312,154.255-5738.289,153.017-5737.78,150.855Zm-56.229-2.991-.187.254C-5794.136,148.034-5794.073,147.948-5794.009,147.864Zm5.8-1.015c-.01-.627.346-1.824,3.22-5.537a27.716,27.716,0,0,1,5.911-11.908l2.9-3.266a27.693,27.693,0,0,0-5.945,11.95c1.4-1.322,1.941-1.694,2.414-1.657.59.87-2.915,5.64-5.476,8.309-1.905,1.984-2.569,2.154-2.855,2.228C-5788.092,146.932-5788.162,146.883-5788.214,146.849Zm415.878-37.569c-66.576-26.26-66.576-26.26-96.743-37.73q-.725-2.159-1.3-4.22c-5.038-18.295.311-27.421,13.221-27.676,18.441,6.109,49.3,16.335,80.392,40.026.558.2,1.127.42,1.71.657-.506-.454-1.179-1.068-1.671-1.54,2.4.941,7.622,6.356,7.672,6.408a18.745,18.745,0,0,1-3.3-2.512q-.921-.375-1.8-.688c-14.641-10.668-39.146-28.52-79.526-40.963-12.362.386-17.45,9.279-12.579,26.966q.494,1.793,1.111,3.66c31.118,12.109,40.972,16.048,95.856,38.332,6.455,10.732,17.682,23.649,29.893,34.152a98.472,98.472,0,0,0,2.7-20.965,101.683,101.683,0,0,1-2.645,23.575C-5352.773,135.3-5365.185,121.095-5372.335,109.28Zm67.567,31.531q1.666,2.117,3.186,4.12C-5302.687,143.5-5303.819,142.042-5304.769,140.811Zm-452.746-.21a11.979,11.979,0,0,1,2.68-4.549c-3.272-18.67-.167-31.563,8.326-38.786l3.284-2.751c-8.473,7.213-11.569,20.089-8.3,38.727,3.967-2.154,4.18.111,3.735,1.609a14.645,14.645,0,0,1-5.2,6.557,6.332,6.332,0,0,1-3.272,1.345C-5757.271,142.753-5757.841,142.1-5757.514,140.6Zm424.423-11.715q-.7-1.143-1.408-2.275l1.473,2.3c.867,1.327,2.263,3.565,3.435,5.577.713,1.225,1.646,2.873,2.021,3.759C-5327.769,138.159-5327.769,138.159-5333.091,128.886Zm-.269-.133q-1.614-2.795-3.31-5.537l.006.01q1.727,2.757,3.37,5.564c.8,1.291,2.1,3.484,3.189,5.464a38.9,38.9,0,0,1,1.843,3.668C-5328.465,137.82-5328.5,137.8-5333.36,128.752Zm-.284-.146q-1.476-2.729-3.035-5.4v0q1.592,2.695,3.1,5.441c.747,1.271,1.943,3.414,2.932,5.337a33.787,33.787,0,0,1,1.655,3.565C-5329.174,137.443-5329.257,137.4-5333.644,128.606Zm-26.489-15.946c-50.734-22.473-71.41-31.084-93.295-40.2q-.337-1.076-.625-2.126c-4.375-15.9-.025-24.084,10.763-24.809,17.939,6.961,47.963,18.605,76.988,43.86a43.232,43.232,0,0,1,6.053,2.651c-.414-.464-.963-1.089-1.364-1.565,1.958.97,6.048,6.213,6.088,6.264-.744-.433-.744-.433-2.492-2.288a39.634,39.634,0,0,0-5.679-2.47c-13.742-11.416-36.74-30.523-76.131-44.837-10.282.818-14.4,8.767-10.186,24.074q.224.823.479,1.666c22.737,9.687,44.208,18.838,92.42,40.833,3.838,6.547,10.578,14.461,18.022,21.089a85.374,85.374,0,0,0,2.4-11.613,88.394,88.394,0,0,1-2.552,13.773C-5347.85,129.362-5355.667,120.228-5360.133,112.66ZM-5682.9,136.929c-4.3-.232-6.285-4.645-.1-10.025a182.655,182.655,0,0,1-7.637-21.758c-7.578-27.506-3.177-44.444,10.7-51.071l3.714-1.741c-13.791,6.6-18.154,23.456-10.622,50.813a182.3,182.3,0,0,0,7.6,21.653c3.423-1.037,5.426-.831,7.147.735,2.7,4.337-2.949,9.066-6.421,10.52a11.875,11.875,0,0,1-4.1.88C-5682.717,136.937-5682.811,136.934-5682.9,136.929Zm-.006-4.327c.9,1.643,3.2,1.066,4.427.466,3.092-1.521,4.293-4.719,2.109-5.612a2.87,2.87,0,0,0-1.088-.2C-5680.108,127.26-5683.776,130.1-5682.907,132.6Zm334.777-15.246c-39.824-19.866-62.317-30.257-89.747-42.767-.039-.145-.082-.291-.119-.435-3.738-13.569-.273-20.78,8.56-21.827,17.421,7.838,46.579,20.954,73.544,47.839q.781.246,1.641.595c-1.417-1.639-1.6-1.877-2.043-2.451,2.617,2.075,7.127,8.1,7.164,8.158a30.117,30.117,0,0,1-2.67-2.905c-.528-.216-1.031-.395-1.509-.544-14.474-13.748-34.3-32.579-72.66-48.845-8.375,1.108-11.635,8.068-8.054,21.065l.024.078c27.8,12.97,50.442,23.679,88.839,43.42a39.215,39.215,0,0,0,7.176,8.6q.739-2.161,1.294-4.155-.659,2.771-1.645,5.837A52.954,52.954,0,0,1-5348.13,117.357Zm11.5,5.912q1.083,1.66,2.136,3.341Zm-.028-.052c.058.071.127.157.182.222,1.377,1.677,2.244,2.763,2.46,3.066C-5334.938,125.439-5335.783,124.313-5336.663,123.217ZM-5775.97,125.9l-.21.237C-5776.111,126.059-5776.04,125.98-5775.97,125.9Zm439.3-2.692v0l.09.094Zm0,.015-.022-.036h0l.05.079Zm-.014-.022-.008-.014h0l.016.026Zm.008,0Zm-.018-.018h0l0,0h0l0,0,0,0h0l0,0v0h0v0h0v0h0l.007.012Zm0,0Zm0,0,0,0h0l0,0Zm0,0,0,0Zm0,0h0Zm0,0Zm0,0h0Zm0,0h0Zm0,0h0Zm0,0ZM-5336.688,123.186Zm0,0ZM-5336.688,123.186ZM-5336.688,123.186Zm.009.01Zm0,0,0,0,0,0Zm0,0v0Zm0,0v0Zm0,0h0Zm0,0h0Zm0,0h0Zm0,0h0ZM-5336.688,123.188ZM-5336.688,123.188Zm0,0Zm0,0Zm0,0Zm0,0Zm0,0Zm0,0Zm0,0Zm0,0Zm0,0Zm0,0Zm0,0Zm0,0h0ZM-5336.688,123.186ZM-5336.688,123.186ZM-5336.688,123.186ZM-5336.688,123.186ZM-5336.688,123.186ZM-5336.688,123.186Zm0,0h0Zm0,0Zm0,0Zm0,0Zm0,0Zm0,0Zm0,0Zm0,0Zm0,0Zm0,0Zm0,0Zm0,0Zm0,0ZM-5336.689,123.186ZM-5336.689,123.186ZM-5336.689,123.186ZM-5336.689,123.186ZM-5336.689,123.186ZM-5336.689,123.186ZM-5336.689,123.186ZM-5336.689,123.186Zm0,0Zm0,0Zm0,0Zm0,0Zm0,0Zm0,0Zm0,0Zm0,0Zm0,0Zm0,0Zm0,0Zm0,0Zm0,0Zm0,0Zm0,0Zm0,0Zm0,0Zm0,0Zm0,0Zm0,0Zm0,0Zm0,0Zm0,0Zm0-.007h0a.037.037,0,0,1,0,.007A.065.065,0,0,0-5336.691,123.179Zm0,.007Zm0,0Zm0,0Zm0,0Zm0,0Zm0,0Zm0,0Zm0,0Zm0,0Zm0,0Zm0,0Zm0,0Zm0,0Zm0,0Zm0,0Zm0,0Zm0,0Zm0,0Zm0,0Zm0,0Zm0,0ZM-5336.689,123.186Zm0,0Zm0,0Zm0,0ZM-5336.689,123.186Zm0,0Zm0,0Zm0,0ZM-5336.689,123.186ZM-5336.689,123.186Zm0,0Zm0,0Zm0,0ZM-5336.689,123.186ZM-5336.689,123.186Zm0,0Zm0,0Zm0,0Zm0,0ZM-5336.689,123.186ZM-5336.689,123.186Zm0,0Zm0,0Zm0,0Zm0,0Zm0,0ZM-5336.689,123.186ZM-5336.689,123.186Zm0,0Zm0,0Zm0,0Zm0,0Zm0,0ZM-5407.107,82.6c-1.825-8.09.249-12.692,5.344-13.9,31.695,18.846,43.249,28.52,65.073,54.477-17.135-20.03-28.444-32.328-61.637-52.18-4.7,1.185-6.623,5.473-4.991,12.949,29.447,16.465,44.394,25.263,66.628,39.231C-5361.8,107.8-5376.934,99.08-5407.107,82.6Zm15.1,5.9c-1.121-5.766.386-9.168,3.969-10.255,24.527,16.674,31.1,21.942,51.349,44.941-19.231-21.456-25.956-27.4-47.948-42.428-3.244,1.047-4.621,4.167-3.646,9.409,19.315,11.829,29.012,17.765,51.595,33.019C-5356.941,109.829-5364.024,105.23-5392.007,88.5Zm44.477,26.448c-5.695-4.137-11.507-8.082-17.452-11.776-1.725-.831-5.932-3.336-6.109-3.442a34.731,34.731,0,0,1-4.325-2.8c.891-.327,8.733,4.75,10.391,6.006q6.819,4.284,13.411,8.97c-4.676-3.47-9.363-6.856-13.5-9.652-1.672-.864-5.707-3.37-6.161-3.654a36.786,36.786,0,0,1-4.309-2.9c1-.217,8.819,5.056,10.452,6.334a300.873,300.873,0,0,1,28.444,21.151C-5339.977,120.672-5343.7,117.829-5347.531,114.949Zm8.4,6.159a307.584,307.584,0,0,0-26.028-19.69c-1.737-.956-6.013-3.731-6.2-3.847a38.853,38.853,0,0,1-4.281-2.987c1.088-.109,8.874,5.341,10.481,6.639a308.909,308.909,0,0,1,24.624,18.685l3.836,3.278Zm-.467-.819c.3.294.6.569.9.868l2.007,2.029Zm-7.291-7.289c-1.913-1.723-3.8-3.475-5.707-5.21-2.979-2.716-3.306-3.031-3.806-3.543,1.292.731,7.374,6.5,9.563,8.727q5.156,4.963,10.145,10.212Q-5341.7,117.952-5346.884,113Zm.21-.1c-1.878-1.748-3.732-3.52-5.6-5.276-2.918-2.742-3.233-3.058-3.711-3.563,1.281.766,7,6.328,9.375,8.82q5.048,5.008,9.926,10.3Q-5341.593,117.9-5346.674,112.9Zm9.791,10c-.313-.451-.632-.892-.926-1.355.389.537.751,1.09,1.12,1.64C-5336.749,123.1-5336.829,122.988-5336.883,122.9Zm-9.288-25.069.018.006,1.308,1.121c-.052.614-.192,2.242,8.156,24.228C-5341.851,110.156-5345.3,101.35-5346.171,97.831Zm-384.2,21.271a10.561,10.561,0,0,1,2.954-4.17C-5730.924,94.938-5727,81.671-5716.9,75l3.51-2.284c-10.051,6.656-13.952,19.879-10.461,39.8,4.247-1.72,4.433.478,3.94,1.885-.685,1.947-3.108,4.469-5.634,5.867a7.292,7.292,0,0,1-3.292,1.038C-5730.066,121.308-5730.781,120.629-5730.373,119.1Zm389.262-.284c.352.345.713.672,1.065,1.016l.453.454C-5340.095,119.788-5340.608,119.312-5341.111,118.818Zm-5.956-5.686c-.084-.072-8.474-7.442-9.68-8.641,1.259.67,7.472,6.383,9.721,8.6,2,1.864,3.951,3.8,5.914,5.723C-5343.085,116.9-5345.062,114.99-5347.066,113.132Zm-2.726-18.092c-1.95-1.614-3.8-3.34-5.769-4.923l1.8,1.432.1.077.03.027,1.589,1.281a23.816,23.816,0,0,1,2.686,2.374h-.025C-5349.443,95.309-5349.479,95.281-5349.792,95.04Zm-393.142-.768-.29.243C-5743.127,94.434-5743.032,94.352-5742.934,94.272Zm264.54-8.381c-4.5-.3-9.417-2.035-7.195-4.162-6.223-1.892-14.529-4.375-20.757-6.247a111.982,111.982,0,0,1-4.124-12.021c-6.226-22.614.429-33.854,16.456-34.093,21.03,3.417,33.634,6.809,34.814,8.263-2.769-.484-12.646-3.572-12.742-3.6l-18.59-3.839c-15.45.407-21.826,11.439-15.762,33.452a108.491,108.491,0,0,0,3.806,11.2c18.753,5.714,18.753,5.714,22.073,5.648.654-.016,6.5-.064,9.846,2.405,1.854,2.424-3.3,3.034-6.5,3.034C-5477.57,85.931-5478.024,85.916-5478.394,85.891Zm-3.693-2.742c.611,1,2.948,1.358,4.232,1.411a9.172,9.172,0,0,0,2.773-.266c1.266-.389,1.339-1.069.176-1.655a10.08,10.08,0,0,0-4.152-.808C-5480.866,81.831-5482.376,82.258-5482.087,83.149Zm11.674-48.945a18.265,18.265,0,0,0,2.528.867,45.179,45.179,0,0,0,5.1,1.333,47.7,47.7,0,0,0-7.522-2.217h-.022A.183.183,0,0,0-5470.414,34.2Zm-257.875,48.7-.3.222C-5728.488,83.054-5728.389,82.982-5728.288,82.908Zm351.407-8.116c-.966-.657-1.923-1.287-2.873-1.908,2.63,1.67,5.334,3.466,8.128,5.427Zm-20.561-11.557c-19.573-10.606-21.173-11.47-35.647-17.409-.687-.155-.793-.179-7.65-2.908-.858-.342-1.722-.682-2.574-1.043,1.687.32,21.653,7.56,43.338,19.734a146.8,146.8,0,0,1,20.222,11.274A135.03,135.03,0,0,0-5397.442,63.234ZM-5713.056,72.5l-.338.22C-5713.282,72.642-5713.169,72.568-5713.056,72.5Zm37.231-20.349-.4.189C-5676.095,52.272-5675.958,52.208-5675.824,52.146Zm38.52-14.657-.456.143C-5637.609,37.583-5637.458,37.536-5637.3,37.489Zm17.479-4.781-.63.157C-5620.246,32.812-5620.036,32.758-5619.825,32.708Zm17.648-3.733-.7.132C-5602.642,29.06-5602.41,29.016-5602.176,28.975Zm17.724-2.686-.528.068C-5584.806,26.333-5584.63,26.309-5584.453,26.288Zm72.036-.379q.781.073,1.584.172Zm-53.745-1.308-.954.067C-5566.8,24.643-5566.483,24.621-5566.162,24.6Zm35.776-.169c.238.009.476.021.717.034ZM-5547.962,24l-1,.012Q-5548.468,24-5547.962,24Z" transform="translate(5855.501 -23.5)" fill="#0c2d79" stroke="rgba(0,0,0,0)" stroke-width="1"/>
</svg>
