<svg xmlns="http://www.w3.org/2000/svg" width="400.29" height="251.667" viewBox="0 0 400.29 251.667">
  <g id="Group_5" data-name="Group 5" transform="translate(831.5 1124)" opacity="0.1">
    <g id="Group_28" data-name="Group 28" transform="translate(-831.5 -1124)">
      <circle id="Ellipse_2" data-name="Ellipse 2" cx="5.881" cy="5.881" r="5.881" fill="#157cf9"/>
      <circle id="Ellipse_3" data-name="Ellipse 3" cx="5.881" cy="5.881" r="5.881" transform="translate(27.752)" fill="#157cf9"/>
      <circle id="Ellipse_4" data-name="Ellipse 4" cx="5.881" cy="5.881" r="5.881" transform="translate(55.504)" fill="#157cf9"/>
      <circle id="Ellipse_5" data-name="Ellipse 5" cx="5.881" cy="5.881" r="5.881" transform="translate(83.256)" fill="#157cf9"/>
      <circle id="Ellipse_6" data-name="Ellipse 6" cx="5.881" cy="5.881" r="5.881" transform="translate(111.008)" fill="#157cf9"/>
      <circle id="Ellipse_7" data-name="Ellipse 7" cx="5.881" cy="5.881" r="5.881" transform="translate(138.76)" fill="#157cf9"/>
      <circle id="Ellipse_8" data-name="Ellipse 8" cx="5.881" cy="5.881" r="5.881" transform="translate(166.512)" fill="#157cf9"/>
      <circle id="Ellipse_9" data-name="Ellipse 9" cx="5.881" cy="5.881" r="5.881" transform="translate(194.264)" fill="#157cf9"/>
      <circle id="Ellipse_10" data-name="Ellipse 10" cx="5.881" cy="5.881" r="5.881" transform="translate(222.016)" fill="#157cf9"/>
      <circle id="Ellipse_11" data-name="Ellipse 11" cx="5.881" cy="5.881" r="5.881" transform="translate(249.767)" fill="#157cf9"/>
      <circle id="Ellipse_12" data-name="Ellipse 12" cx="5.881" cy="5.881" r="5.881" transform="translate(277.519)" fill="#157cf9"/>
      <circle id="Ellipse_13" data-name="Ellipse 13" cx="5.881" cy="5.881" r="5.881" transform="translate(305.271)" fill="#157cf9"/>
      <circle id="Ellipse_14" data-name="Ellipse 14" cx="5.881" cy="5.881" r="5.881" transform="translate(333.023)" fill="#157cf9"/>
      <circle id="Ellipse_15" data-name="Ellipse 15" cx="5.881" cy="5.881" r="5.881" transform="translate(360.775)" fill="#157cf9"/>
      <circle id="Ellipse_16" data-name="Ellipse 16" cx="5.881" cy="5.881" r="5.881" transform="translate(388.527)" fill="#157cf9"/>
    </g>
    <g id="Group_29" data-name="Group 29" transform="translate(-831.5 -1102.191)">
      <circle id="Ellipse_17" data-name="Ellipse 17" cx="5.881" cy="5.881" r="5.881" transform="translate(0 0)" fill="#157cf9"/>
      <circle id="Ellipse_18" data-name="Ellipse 18" cx="5.881" cy="5.881" r="5.881" transform="translate(27.752 0)" fill="#157cf9"/>
      <circle id="Ellipse_19" data-name="Ellipse 19" cx="5.881" cy="5.881" r="5.881" transform="translate(55.504 0)" fill="#157cf9"/>
      <circle id="Ellipse_20" data-name="Ellipse 20" cx="5.881" cy="5.881" r="5.881" transform="translate(83.256 0)" fill="#157cf9"/>
      <circle id="Ellipse_21" data-name="Ellipse 21" cx="5.881" cy="5.881" r="5.881" transform="translate(111.008 0)" fill="#157cf9"/>
      <circle id="Ellipse_22" data-name="Ellipse 22" cx="5.881" cy="5.881" r="5.881" transform="translate(138.76 0)" fill="#157cf9"/>
      <circle id="Ellipse_23" data-name="Ellipse 23" cx="5.881" cy="5.881" r="5.881" transform="translate(166.512 0)" fill="#157cf9"/>
      <circle id="Ellipse_24" data-name="Ellipse 24" cx="5.881" cy="5.881" r="5.881" transform="translate(194.264 0)" fill="#157cf9"/>
      <circle id="Ellipse_25" data-name="Ellipse 25" cx="5.881" cy="5.881" r="5.881" transform="translate(222.016 0)" fill="#157cf9"/>
      <circle id="Ellipse_26" data-name="Ellipse 26" cx="5.881" cy="5.881" r="5.881" transform="translate(249.767 0)" fill="#157cf9"/>
      <circle id="Ellipse_27" data-name="Ellipse 27" cx="5.881" cy="5.881" r="5.881" transform="translate(277.519 0)" fill="#157cf9"/>
      <circle id="Ellipse_28" data-name="Ellipse 28" cx="5.881" cy="5.881" r="5.881" transform="translate(305.271 0)" fill="#157cf9"/>
      <circle id="Ellipse_29" data-name="Ellipse 29" cx="5.881" cy="5.881" r="5.881" transform="translate(333.023 0)" fill="#157cf9"/>
      <circle id="Ellipse_30" data-name="Ellipse 30" cx="5.881" cy="5.881" r="5.881" transform="translate(360.775 0)" fill="#157cf9"/>
      <circle id="Ellipse_31" data-name="Ellipse 31" cx="5.881" cy="5.881" r="5.881" transform="translate(388.527 0)" fill="#157cf9"/>
    </g>
    <g id="Group_30" data-name="Group 30" transform="translate(-831.5 -1080.381)">
      <circle id="Ellipse_32" data-name="Ellipse 32" cx="5.881" cy="5.881" r="5.881" transform="translate(0 0)" fill="#157cf9"/>
      <circle id="Ellipse_33" data-name="Ellipse 33" cx="5.881" cy="5.881" r="5.881" transform="translate(27.752 0)" fill="#157cf9"/>
      <circle id="Ellipse_34" data-name="Ellipse 34" cx="5.881" cy="5.881" r="5.881" transform="translate(55.504 0)" fill="#157cf9"/>
      <circle id="Ellipse_35" data-name="Ellipse 35" cx="5.881" cy="5.881" r="5.881" transform="translate(83.256 0)" fill="#157cf9"/>
      <circle id="Ellipse_36" data-name="Ellipse 36" cx="5.881" cy="5.881" r="5.881" transform="translate(111.008 0)" fill="#157cf9"/>
      <circle id="Ellipse_37" data-name="Ellipse 37" cx="5.881" cy="5.881" r="5.881" transform="translate(138.76 0)" fill="#157cf9"/>
      <circle id="Ellipse_38" data-name="Ellipse 38" cx="5.881" cy="5.881" r="5.881" transform="translate(166.512 0)" fill="#157cf9"/>
      <circle id="Ellipse_39" data-name="Ellipse 39" cx="5.881" cy="5.881" r="5.881" transform="translate(194.264 0)" fill="#157cf9"/>
      <circle id="Ellipse_40" data-name="Ellipse 40" cx="5.881" cy="5.881" r="5.881" transform="translate(222.016 0)" fill="#157cf9"/>
      <circle id="Ellipse_41" data-name="Ellipse 41" cx="5.881" cy="5.881" r="5.881" transform="translate(249.767 0)" fill="#157cf9"/>
      <circle id="Ellipse_42" data-name="Ellipse 42" cx="5.881" cy="5.881" r="5.881" transform="translate(277.519 0)" fill="#157cf9"/>
      <circle id="Ellipse_43" data-name="Ellipse 43" cx="5.881" cy="5.881" r="5.881" transform="translate(305.271 0)" fill="#157cf9"/>
      <circle id="Ellipse_44" data-name="Ellipse 44" cx="5.881" cy="5.881" r="5.881" transform="translate(333.023 0)" fill="#157cf9"/>
      <circle id="Ellipse_45" data-name="Ellipse 45" cx="5.881" cy="5.881" r="5.881" transform="translate(360.775 0)" fill="#157cf9"/>
      <circle id="Ellipse_46" data-name="Ellipse 46" cx="5.881" cy="5.881" r="5.881" transform="translate(388.527 0)" fill="#157cf9"/>
    </g>
    <g id="Group_31" data-name="Group 31" transform="translate(-831.5 -1058.572)">
      <circle id="Ellipse_47" data-name="Ellipse 47" cx="5.881" cy="5.881" r="5.881" fill="#157cf9"/>
      <circle id="Ellipse_48" data-name="Ellipse 48" cx="5.881" cy="5.881" r="5.881" transform="translate(27.752)" fill="#157cf9"/>
      <circle id="Ellipse_49" data-name="Ellipse 49" cx="5.881" cy="5.881" r="5.881" transform="translate(55.504)" fill="#157cf9"/>
      <circle id="Ellipse_50" data-name="Ellipse 50" cx="5.881" cy="5.881" r="5.881" transform="translate(83.256)" fill="#157cf9"/>
      <circle id="Ellipse_51" data-name="Ellipse 51" cx="5.881" cy="5.881" r="5.881" transform="translate(111.008)" fill="#157cf9"/>
      <circle id="Ellipse_52" data-name="Ellipse 52" cx="5.881" cy="5.881" r="5.881" transform="translate(138.76)" fill="#157cf9"/>
      <circle id="Ellipse_53" data-name="Ellipse 53" cx="5.881" cy="5.881" r="5.881" transform="translate(166.512)" fill="#157cf9"/>
      <circle id="Ellipse_54" data-name="Ellipse 54" cx="5.881" cy="5.881" r="5.881" transform="translate(194.264)" fill="#157cf9"/>
      <circle id="Ellipse_55" data-name="Ellipse 55" cx="5.881" cy="5.881" r="5.881" transform="translate(222.016)" fill="#157cf9"/>
      <circle id="Ellipse_56" data-name="Ellipse 56" cx="5.881" cy="5.881" r="5.881" transform="translate(249.767)" fill="#157cf9"/>
      <circle id="Ellipse_57" data-name="Ellipse 57" cx="5.881" cy="5.881" r="5.881" transform="translate(277.519)" fill="#157cf9"/>
      <circle id="Ellipse_58" data-name="Ellipse 58" cx="5.881" cy="5.881" r="5.881" transform="translate(305.271)" fill="#157cf9"/>
      <circle id="Ellipse_59" data-name="Ellipse 59" cx="5.881" cy="5.881" r="5.881" transform="translate(333.023)" fill="#157cf9"/>
      <circle id="Ellipse_60" data-name="Ellipse 60" cx="5.881" cy="5.881" r="5.881" transform="translate(360.775)" fill="#157cf9"/>
      <circle id="Ellipse_61" data-name="Ellipse 61" cx="5.881" cy="5.881" r="5.881" transform="translate(388.527)" fill="#157cf9"/>
    </g>
    <g id="Group_32" data-name="Group 32" transform="translate(-831.5 -1036.762)">
      <circle id="Ellipse_62" data-name="Ellipse 62" cx="5.881" cy="5.881" r="5.881" fill="#157cf9"/>
      <circle id="Ellipse_63" data-name="Ellipse 63" cx="5.881" cy="5.881" r="5.881" transform="translate(27.752)" fill="#157cf9"/>
      <circle id="Ellipse_64" data-name="Ellipse 64" cx="5.881" cy="5.881" r="5.881" transform="translate(55.504)" fill="#157cf9"/>
      <circle id="Ellipse_65" data-name="Ellipse 65" cx="5.881" cy="5.881" r="5.881" transform="translate(83.256)" fill="#157cf9"/>
      <circle id="Ellipse_66" data-name="Ellipse 66" cx="5.881" cy="5.881" r="5.881" transform="translate(111.008)" fill="#157cf9"/>
      <circle id="Ellipse_67" data-name="Ellipse 67" cx="5.881" cy="5.881" r="5.881" transform="translate(138.76)" fill="#157cf9"/>
      <circle id="Ellipse_68" data-name="Ellipse 68" cx="5.881" cy="5.881" r="5.881" transform="translate(166.512)" fill="#157cf9"/>
      <circle id="Ellipse_69" data-name="Ellipse 69" cx="5.881" cy="5.881" r="5.881" transform="translate(194.264)" fill="#157cf9"/>
      <circle id="Ellipse_70" data-name="Ellipse 70" cx="5.881" cy="5.881" r="5.881" transform="translate(222.016)" fill="#157cf9"/>
      <circle id="Ellipse_71" data-name="Ellipse 71" cx="5.881" cy="5.881" r="5.881" transform="translate(249.767)" fill="#157cf9"/>
      <circle id="Ellipse_72" data-name="Ellipse 72" cx="5.881" cy="5.881" r="5.881" transform="translate(277.519)" fill="#157cf9"/>
      <circle id="Ellipse_73" data-name="Ellipse 73" cx="5.881" cy="5.881" r="5.881" transform="translate(305.271)" fill="#157cf9"/>
      <circle id="Ellipse_74" data-name="Ellipse 74" cx="5.881" cy="5.881" r="5.881" transform="translate(333.023)" fill="#157cf9"/>
      <circle id="Ellipse_75" data-name="Ellipse 75" cx="5.881" cy="5.881" r="5.881" transform="translate(360.775)" fill="#157cf9"/>
      <circle id="Ellipse_76" data-name="Ellipse 76" cx="5.881" cy="5.881" r="5.881" transform="translate(388.527)" fill="#157cf9"/>
    </g>
    <g id="Group_33" data-name="Group 33" transform="translate(-831.5 -1014.953)">
      <circle id="Ellipse_77" data-name="Ellipse 77" cx="5.881" cy="5.881" r="5.881" transform="translate(0 0)" fill="#157cf9"/>
      <circle id="Ellipse_78" data-name="Ellipse 78" cx="5.881" cy="5.881" r="5.881" transform="translate(27.752 0)" fill="#157cf9"/>
      <circle id="Ellipse_79" data-name="Ellipse 79" cx="5.881" cy="5.881" r="5.881" transform="translate(55.504 0)" fill="#157cf9"/>
      <circle id="Ellipse_80" data-name="Ellipse 80" cx="5.881" cy="5.881" r="5.881" transform="translate(83.256 0)" fill="#157cf9"/>
      <circle id="Ellipse_81" data-name="Ellipse 81" cx="5.881" cy="5.881" r="5.881" transform="translate(111.008 0)" fill="#157cf9"/>
      <circle id="Ellipse_82" data-name="Ellipse 82" cx="5.881" cy="5.881" r="5.881" transform="translate(138.76 0)" fill="#157cf9"/>
      <circle id="Ellipse_83" data-name="Ellipse 83" cx="5.881" cy="5.881" r="5.881" transform="translate(166.512 0)" fill="#157cf9"/>
      <circle id="Ellipse_84" data-name="Ellipse 84" cx="5.881" cy="5.881" r="5.881" transform="translate(194.264 0)" fill="#157cf9"/>
      <circle id="Ellipse_85" data-name="Ellipse 85" cx="5.881" cy="5.881" r="5.881" transform="translate(222.016 0)" fill="#157cf9"/>
      <circle id="Ellipse_86" data-name="Ellipse 86" cx="5.881" cy="5.881" r="5.881" transform="translate(249.767 0)" fill="#157cf9"/>
      <circle id="Ellipse_87" data-name="Ellipse 87" cx="5.881" cy="5.881" r="5.881" transform="translate(277.519 0)" fill="#157cf9"/>
      <circle id="Ellipse_88" data-name="Ellipse 88" cx="5.881" cy="5.881" r="5.881" transform="translate(305.271 0)" fill="#157cf9"/>
      <circle id="Ellipse_89" data-name="Ellipse 89" cx="5.881" cy="5.881" r="5.881" transform="translate(333.023 0)" fill="#157cf9"/>
      <circle id="Ellipse_90" data-name="Ellipse 90" cx="5.881" cy="5.881" r="5.881" transform="translate(360.775 0)" fill="#157cf9"/>
      <circle id="Ellipse_91" data-name="Ellipse 91" cx="5.881" cy="5.881" r="5.881" transform="translate(388.527 0)" fill="#157cf9"/>
    </g>
    <g id="Group_34" data-name="Group 34" transform="translate(-831.5 -993.143)">
      <circle id="Ellipse_92" data-name="Ellipse 92" cx="5.881" cy="5.881" r="5.881" transform="translate(0 0)" fill="#157cf9"/>
      <circle id="Ellipse_93" data-name="Ellipse 93" cx="5.881" cy="5.881" r="5.881" transform="translate(27.752 0)" fill="#157cf9"/>
      <circle id="Ellipse_94" data-name="Ellipse 94" cx="5.881" cy="5.881" r="5.881" transform="translate(55.504 0)" fill="#157cf9"/>
      <circle id="Ellipse_95" data-name="Ellipse 95" cx="5.881" cy="5.881" r="5.881" transform="translate(83.256 0)" fill="#157cf9"/>
      <circle id="Ellipse_96" data-name="Ellipse 96" cx="5.881" cy="5.881" r="5.881" transform="translate(111.008 0)" fill="#157cf9"/>
      <circle id="Ellipse_97" data-name="Ellipse 97" cx="5.881" cy="5.881" r="5.881" transform="translate(138.76 0)" fill="#157cf9"/>
      <circle id="Ellipse_98" data-name="Ellipse 98" cx="5.881" cy="5.881" r="5.881" transform="translate(166.512 0)" fill="#157cf9"/>
      <circle id="Ellipse_99" data-name="Ellipse 99" cx="5.881" cy="5.881" r="5.881" transform="translate(194.264 0)" fill="#157cf9"/>
      <circle id="Ellipse_100" data-name="Ellipse 100" cx="5.881" cy="5.881" r="5.881" transform="translate(222.016 0)" fill="#157cf9"/>
      <circle id="Ellipse_101" data-name="Ellipse 101" cx="5.881" cy="5.881" r="5.881" transform="translate(249.767 0)" fill="#157cf9"/>
      <circle id="Ellipse_102" data-name="Ellipse 102" cx="5.881" cy="5.881" r="5.881" transform="translate(277.519 0)" fill="#157cf9"/>
      <circle id="Ellipse_103" data-name="Ellipse 103" cx="5.881" cy="5.881" r="5.881" transform="translate(305.271 0)" fill="#157cf9"/>
      <circle id="Ellipse_104" data-name="Ellipse 104" cx="5.881" cy="5.881" r="5.881" transform="translate(333.023 0)" fill="#157cf9"/>
      <circle id="Ellipse_105" data-name="Ellipse 105" cx="5.881" cy="5.881" r="5.881" transform="translate(360.775 0)" fill="#157cf9"/>
      <circle id="Ellipse_106" data-name="Ellipse 106" cx="5.881" cy="5.881" r="5.881" transform="translate(388.527 0)" fill="#157cf9"/>
    </g>
    <g id="Group_35" data-name="Group 35" transform="translate(-831.5 -971.334)">
      <circle id="Ellipse_107" data-name="Ellipse 107" cx="5.881" cy="5.881" r="5.881" transform="translate(0 0)" fill="#157cf9"/>
      <circle id="Ellipse_108" data-name="Ellipse 108" cx="5.881" cy="5.881" r="5.881" transform="translate(27.752 0)" fill="#157cf9"/>
      <circle id="Ellipse_109" data-name="Ellipse 109" cx="5.881" cy="5.881" r="5.881" transform="translate(55.504 0)" fill="#157cf9"/>
      <circle id="Ellipse_110" data-name="Ellipse 110" cx="5.881" cy="5.881" r="5.881" transform="translate(83.256 0)" fill="#157cf9"/>
      <circle id="Ellipse_111" data-name="Ellipse 111" cx="5.881" cy="5.881" r="5.881" transform="translate(111.008 0)" fill="#157cf9"/>
      <circle id="Ellipse_112" data-name="Ellipse 112" cx="5.881" cy="5.881" r="5.881" transform="translate(138.76 0)" fill="#157cf9"/>
      <circle id="Ellipse_113" data-name="Ellipse 113" cx="5.881" cy="5.881" r="5.881" transform="translate(166.512 0)" fill="#157cf9"/>
      <circle id="Ellipse_114" data-name="Ellipse 114" cx="5.881" cy="5.881" r="5.881" transform="translate(194.264 0)" fill="#157cf9"/>
      <circle id="Ellipse_115" data-name="Ellipse 115" cx="5.881" cy="5.881" r="5.881" transform="translate(222.016 0)" fill="#157cf9"/>
      <circle id="Ellipse_116" data-name="Ellipse 116" cx="5.881" cy="5.881" r="5.881" transform="translate(249.767 0)" fill="#157cf9"/>
      <circle id="Ellipse_117" data-name="Ellipse 117" cx="5.881" cy="5.881" r="5.881" transform="translate(277.519 0)" fill="#157cf9"/>
      <circle id="Ellipse_118" data-name="Ellipse 118" cx="5.881" cy="5.881" r="5.881" transform="translate(305.271 0)" fill="#157cf9"/>
      <circle id="Ellipse_119" data-name="Ellipse 119" cx="5.881" cy="5.881" r="5.881" transform="translate(333.023 0)" fill="#157cf9"/>
      <circle id="Ellipse_120" data-name="Ellipse 120" cx="5.881" cy="5.881" r="5.881" transform="translate(360.775 0)" fill="#157cf9"/>
      <circle id="Ellipse_121" data-name="Ellipse 121" cx="5.881" cy="5.881" r="5.881" transform="translate(388.527 0)" fill="#157cf9"/>
    </g>
    <g id="Group_36" data-name="Group 36" transform="translate(-831.5 -949.524)">
      <circle id="Ellipse_122" data-name="Ellipse 122" cx="5.881" cy="5.881" r="5.881" fill="#157cf9"/>
      <circle id="Ellipse_123" data-name="Ellipse 123" cx="5.881" cy="5.881" r="5.881" transform="translate(27.752)" fill="#157cf9"/>
      <circle id="Ellipse_124" data-name="Ellipse 124" cx="5.881" cy="5.881" r="5.881" transform="translate(55.504)" fill="#157cf9"/>
      <circle id="Ellipse_125" data-name="Ellipse 125" cx="5.881" cy="5.881" r="5.881" transform="translate(83.256)" fill="#157cf9"/>
      <circle id="Ellipse_126" data-name="Ellipse 126" cx="5.881" cy="5.881" r="5.881" transform="translate(111.008)" fill="#157cf9"/>
      <circle id="Ellipse_127" data-name="Ellipse 127" cx="5.881" cy="5.881" r="5.881" transform="translate(138.76)" fill="#157cf9"/>
      <circle id="Ellipse_128" data-name="Ellipse 128" cx="5.881" cy="5.881" r="5.881" transform="translate(166.512)" fill="#157cf9"/>
      <circle id="Ellipse_129" data-name="Ellipse 129" cx="5.881" cy="5.881" r="5.881" transform="translate(194.264)" fill="#157cf9"/>
      <circle id="Ellipse_130" data-name="Ellipse 130" cx="5.881" cy="5.881" r="5.881" transform="translate(222.016)" fill="#157cf9"/>
      <circle id="Ellipse_131" data-name="Ellipse 131" cx="5.881" cy="5.881" r="5.881" transform="translate(249.767)" fill="#157cf9"/>
      <circle id="Ellipse_132" data-name="Ellipse 132" cx="5.881" cy="5.881" r="5.881" transform="translate(277.519)" fill="#157cf9"/>
      <circle id="Ellipse_133" data-name="Ellipse 133" cx="5.881" cy="5.881" r="5.881" transform="translate(305.271)" fill="#157cf9"/>
      <circle id="Ellipse_134" data-name="Ellipse 134" cx="5.881" cy="5.881" r="5.881" transform="translate(333.023)" fill="#157cf9"/>
      <circle id="Ellipse_135" data-name="Ellipse 135" cx="5.881" cy="5.881" r="5.881" transform="translate(360.775)" fill="#157cf9"/>
      <circle id="Ellipse_136" data-name="Ellipse 136" cx="5.881" cy="5.881" r="5.881" transform="translate(388.527)" fill="#157cf9"/>
    </g>
    <g id="Group_37" data-name="Group 37" transform="translate(-831.5 -927.715)">
      <circle id="Ellipse_137" data-name="Ellipse 137" cx="5.881" cy="5.881" r="5.881" transform="translate(0 0)" fill="#157cf9"/>
      <circle id="Ellipse_138" data-name="Ellipse 138" cx="5.881" cy="5.881" r="5.881" transform="translate(27.752 0)" fill="#157cf9"/>
      <circle id="Ellipse_139" data-name="Ellipse 139" cx="5.881" cy="5.881" r="5.881" transform="translate(55.504 0)" fill="#157cf9"/>
      <circle id="Ellipse_140" data-name="Ellipse 140" cx="5.881" cy="5.881" r="5.881" transform="translate(83.256 0)" fill="#157cf9"/>
      <circle id="Ellipse_141" data-name="Ellipse 141" cx="5.881" cy="5.881" r="5.881" transform="translate(111.008 0)" fill="#157cf9"/>
      <circle id="Ellipse_142" data-name="Ellipse 142" cx="5.881" cy="5.881" r="5.881" transform="translate(138.76 0)" fill="#157cf9"/>
      <circle id="Ellipse_143" data-name="Ellipse 143" cx="5.881" cy="5.881" r="5.881" transform="translate(166.512 0)" fill="#157cf9"/>
      <circle id="Ellipse_144" data-name="Ellipse 144" cx="5.881" cy="5.881" r="5.881" transform="translate(194.264 0)" fill="#157cf9"/>
      <circle id="Ellipse_145" data-name="Ellipse 145" cx="5.881" cy="5.881" r="5.881" transform="translate(222.016 0)" fill="#157cf9"/>
      <circle id="Ellipse_146" data-name="Ellipse 146" cx="5.881" cy="5.881" r="5.881" transform="translate(249.767 0)" fill="#157cf9"/>
      <circle id="Ellipse_147" data-name="Ellipse 147" cx="5.881" cy="5.881" r="5.881" transform="translate(277.519 0)" fill="#157cf9"/>
      <circle id="Ellipse_148" data-name="Ellipse 148" cx="5.881" cy="5.881" r="5.881" transform="translate(305.271 0)" fill="#157cf9"/>
      <circle id="Ellipse_149" data-name="Ellipse 149" cx="5.881" cy="5.881" r="5.881" transform="translate(333.023 0)" fill="#157cf9"/>
      <circle id="Ellipse_150" data-name="Ellipse 150" cx="5.881" cy="5.881" r="5.881" transform="translate(360.775 0)" fill="#157cf9"/>
      <circle id="Ellipse_151" data-name="Ellipse 151" cx="5.881" cy="5.881" r="5.881" transform="translate(388.527 0)" fill="#157cf9"/>
    </g>
    <g id="Group_38" data-name="Group 38" transform="translate(-831.5 -905.905)">
      <circle id="Ellipse_152" data-name="Ellipse 152" cx="5.881" cy="5.881" r="5.881" transform="translate(0 0)" fill="#157cf9"/>
      <circle id="Ellipse_153" data-name="Ellipse 153" cx="5.881" cy="5.881" r="5.881" transform="translate(27.752 0)" fill="#157cf9"/>
      <circle id="Ellipse_154" data-name="Ellipse 154" cx="5.881" cy="5.881" r="5.881" transform="translate(55.504 0)" fill="#157cf9"/>
      <circle id="Ellipse_155" data-name="Ellipse 155" cx="5.881" cy="5.881" r="5.881" transform="translate(83.256 0)" fill="#157cf9"/>
      <circle id="Ellipse_156" data-name="Ellipse 156" cx="5.881" cy="5.881" r="5.881" transform="translate(111.008 0)" fill="#157cf9"/>
      <circle id="Ellipse_157" data-name="Ellipse 157" cx="5.881" cy="5.881" r="5.881" transform="translate(138.76 0)" fill="#157cf9"/>
      <circle id="Ellipse_158" data-name="Ellipse 158" cx="5.881" cy="5.881" r="5.881" transform="translate(166.512 0)" fill="#157cf9"/>
      <circle id="Ellipse_159" data-name="Ellipse 159" cx="5.881" cy="5.881" r="5.881" transform="translate(194.264 0)" fill="#157cf9"/>
      <circle id="Ellipse_160" data-name="Ellipse 160" cx="5.881" cy="5.881" r="5.881" transform="translate(222.016 0)" fill="#157cf9"/>
      <circle id="Ellipse_161" data-name="Ellipse 161" cx="5.881" cy="5.881" r="5.881" transform="translate(249.767 0)" fill="#157cf9"/>
      <circle id="Ellipse_162" data-name="Ellipse 162" cx="5.881" cy="5.881" r="5.881" transform="translate(277.519 0)" fill="#157cf9"/>
      <circle id="Ellipse_163" data-name="Ellipse 163" cx="5.881" cy="5.881" r="5.881" transform="translate(305.271 0)" fill="#157cf9"/>
      <circle id="Ellipse_164" data-name="Ellipse 164" cx="5.881" cy="5.881" r="5.881" transform="translate(333.023 0)" fill="#157cf9"/>
      <circle id="Ellipse_165" data-name="Ellipse 165" cx="5.881" cy="5.881" r="5.881" transform="translate(360.775 0)" fill="#157cf9"/>
      <circle id="Ellipse_166" data-name="Ellipse 166" cx="5.881" cy="5.881" r="5.881" transform="translate(388.527 0)" fill="#157cf9"/>
    </g>
    <g id="Group_39" data-name="Group 39" transform="translate(-831.5 -884.096)">
      <circle id="Ellipse_167" data-name="Ellipse 167" cx="5.881" cy="5.881" r="5.881" transform="translate(0 0)" fill="#157cf9"/>
      <circle id="Ellipse_168" data-name="Ellipse 168" cx="5.881" cy="5.881" r="5.881" transform="translate(27.752 0)" fill="#157cf9"/>
      <circle id="Ellipse_169" data-name="Ellipse 169" cx="5.881" cy="5.881" r="5.881" transform="translate(55.504 0)" fill="#157cf9"/>
      <circle id="Ellipse_170" data-name="Ellipse 170" cx="5.881" cy="5.881" r="5.881" transform="translate(83.256 0)" fill="#157cf9"/>
      <circle id="Ellipse_171" data-name="Ellipse 171" cx="5.881" cy="5.881" r="5.881" transform="translate(111.008 0)" fill="#157cf9"/>
      <circle id="Ellipse_172" data-name="Ellipse 172" cx="5.881" cy="5.881" r="5.881" transform="translate(138.76 0)" fill="#157cf9"/>
      <circle id="Ellipse_173" data-name="Ellipse 173" cx="5.881" cy="5.881" r="5.881" transform="translate(166.512 0)" fill="#157cf9"/>
      <circle id="Ellipse_174" data-name="Ellipse 174" cx="5.881" cy="5.881" r="5.881" transform="translate(194.264 0)" fill="#157cf9"/>
      <circle id="Ellipse_175" data-name="Ellipse 175" cx="5.881" cy="5.881" r="5.881" transform="translate(222.016 0)" fill="#157cf9"/>
      <circle id="Ellipse_176" data-name="Ellipse 176" cx="5.881" cy="5.881" r="5.881" transform="translate(249.767 0)" fill="#157cf9"/>
      <circle id="Ellipse_177" data-name="Ellipse 177" cx="5.881" cy="5.881" r="5.881" transform="translate(277.519 0)" fill="#157cf9"/>
      <circle id="Ellipse_178" data-name="Ellipse 178" cx="5.881" cy="5.881" r="5.881" transform="translate(305.271 0)" fill="#157cf9"/>
      <circle id="Ellipse_179" data-name="Ellipse 179" cx="5.881" cy="5.881" r="5.881" transform="translate(333.023 0)" fill="#157cf9"/>
      <circle id="Ellipse_180" data-name="Ellipse 180" cx="5.881" cy="5.881" r="5.881" transform="translate(360.775 0)" fill="#157cf9"/>
      <circle id="Ellipse_181" data-name="Ellipse 181" cx="5.881" cy="5.881" r="5.881" transform="translate(388.527 0)" fill="#157cf9"/>
    </g>
  </g>
</svg>
